%TF.GenerationSoftware,Altium Limited,Altium Designer,22.10.1 (41)*%
G04 Layer_Color=16711935*
%FSLAX45Y45*%
%MOMM*%
%TF.SameCoordinates,8EF9DDD9-B046-4884-B7CB-8C41A3A7CB5C*%
%TF.FilePolarity,Negative*%
%TF.FileFunction,Soldermask,Bot*%
%TF.Part,Single*%
G01*
G75*
%TA.AperFunction,SMDPad,CuDef*%
%ADD59R,0.91000X1.09000*%
%TA.AperFunction,ConnectorPad*%
%ADD60R,1.25000X1.57000*%
%TA.AperFunction,SMDPad,CuDef*%
%ADD61R,1.09000X0.91000*%
%TA.AperFunction,ComponentPad*%
%ADD62C,1.40000*%
%ADD63C,0.85000*%
%TA.AperFunction,WasherPad*%
%ADD64C,3.10000*%
%TA.AperFunction,SMDPad,CuDef*%
%ADD65C,3.10000*%
%TA.AperFunction,ComponentPad*%
%ADD66O,1.00000X1.90000*%
D59*
X3752002Y1370000D02*
D03*
X3890000D02*
D03*
X3877998Y2620000D02*
D03*
X3740000D02*
D03*
D60*
X3752000Y740000D02*
D03*
X3928000D02*
D03*
X3920002Y3559998D02*
D03*
X3744001D02*
D03*
X3928002Y1949999D02*
D03*
X3752001D02*
D03*
Y910002D02*
D03*
X3928002D02*
D03*
X3752001Y1070000D02*
D03*
X3928002D02*
D03*
X3752001Y1230002D02*
D03*
X3928002D02*
D03*
X3742001Y1539999D02*
D03*
X3918002D02*
D03*
X3752001Y1749999D02*
D03*
X3928002D02*
D03*
X3752001Y2110001D02*
D03*
X3928002D02*
D03*
X3762001Y2279998D02*
D03*
X3938002D02*
D03*
X3752001Y2460000D02*
D03*
X3928002D02*
D03*
X3742001Y2809999D02*
D03*
X3918002D02*
D03*
X3744001Y3750000D02*
D03*
X3920002D02*
D03*
X3742001Y3150001D02*
D03*
X3918002D02*
D03*
X3742001Y3350001D02*
D03*
X3918002D02*
D03*
D61*
X3350000Y3762002D02*
D03*
Y3900000D02*
D03*
D62*
X491999Y2381000D02*
D03*
X237999Y2508000D02*
D03*
Y2762000D02*
D03*
X491999Y2635000D02*
D03*
X468000Y638500D02*
D03*
X214000D02*
D03*
X341000Y892500D02*
D03*
X595000D02*
D03*
X2297498Y616500D02*
D03*
Y362500D02*
D03*
X2043498Y743500D02*
D03*
Y489500D02*
D03*
X237999Y1817000D02*
D03*
X491999Y1690000D02*
D03*
X237999Y1563000D02*
D03*
X491999Y1436000D02*
D03*
D63*
X417999Y2902000D02*
D03*
X735000Y712500D02*
D03*
X2117498Y222500D02*
D03*
X417999Y1957000D02*
D03*
D64*
X299999Y299999D02*
D03*
X3699998D02*
D03*
D65*
X299999D02*
D03*
D66*
X894999Y3842502D02*
D03*
X1554998D02*
D03*
%TF.MD5,e0bbe327fe2602a8e8facdf77c28cb64*%
M02*
