%TF.GenerationSoftware,Altium Limited,Altium Designer,22.10.1 (41)*%
G04 Layer_Color=32896*
%FSLAX45Y45*%
%MOMM*%
%TF.SameCoordinates,8EF9DDD9-B046-4884-B7CB-8C41A3A7CB5C*%
%TF.FilePolarity,Positive*%
%TF.FileFunction,Legend,Bot*%
%TF.Part,Single*%
G01*
G75*
%TA.AperFunction,NonConductor*%
%ADD56C,0.20320*%
%ADD57C,0.15300*%
%ADD58C,0.25400*%
D56*
X3821024Y1321745D02*
Y1418265D01*
X3301740Y3831024D02*
X3398260D01*
X3809022Y2571745D02*
Y2668265D01*
D57*
X3298315Y1418323D02*
X3314976Y1434984D01*
X3348298D01*
X3364960Y1418323D01*
Y1351678D01*
X3348298Y1335016D01*
X3314976D01*
X3298315Y1351678D01*
X3264992Y1335016D02*
X3231669D01*
X3248331D01*
Y1434984D01*
X3264992Y1418323D01*
X3181686D02*
X3165024Y1434984D01*
X3131702D01*
X3115041Y1418323D01*
Y1401661D01*
X3131702Y1385000D01*
X3148363D01*
X3131702D01*
X3115041Y1368339D01*
Y1351678D01*
X3131702Y1335016D01*
X3165024D01*
X3181686Y1351678D01*
X3586645Y838322D02*
X3603306Y854984D01*
X3636629D01*
X3653290Y838322D01*
Y771677D01*
X3636629Y755016D01*
X3603306D01*
X3586645Y771677D01*
X3486678Y755016D02*
X3553323D01*
X3486678Y821661D01*
Y838322D01*
X3503339Y854984D01*
X3536661D01*
X3553323Y838322D01*
X3453355D02*
X3436693Y854984D01*
X3403371D01*
X3386710Y838322D01*
Y821661D01*
X3403371Y805000D01*
X3386710Y788339D01*
Y771677D01*
X3403371Y755016D01*
X3436693D01*
X3453355Y771677D01*
Y788339D01*
X3436693Y805000D01*
X3453355Y821661D01*
Y838322D01*
X3436693Y805000D02*
X3403371D01*
X3846645Y3955822D02*
X3863306Y3972484D01*
X3896629D01*
X3913290Y3955822D01*
Y3889177D01*
X3896629Y3872516D01*
X3863306D01*
X3846645Y3889177D01*
X3813323Y3955822D02*
X3796661Y3972484D01*
X3763339D01*
X3746678Y3955822D01*
Y3939161D01*
X3763339Y3922500D01*
X3780000D01*
X3763339D01*
X3746678Y3905839D01*
Y3889177D01*
X3763339Y3872516D01*
X3796661D01*
X3813323Y3889177D01*
X3646710Y3872516D02*
X3713355D01*
X3646710Y3939161D01*
Y3955822D01*
X3663371Y3972484D01*
X3696693D01*
X3713355Y3955822D01*
X3529984Y3603322D02*
X3546645Y3619984D01*
X3579967D01*
X3596629Y3603322D01*
Y3536677D01*
X3579967Y3520016D01*
X3546645D01*
X3529984Y3536677D01*
X3496661Y3603322D02*
X3480000Y3619984D01*
X3446677D01*
X3430016Y3603322D01*
Y3586661D01*
X3446677Y3570000D01*
X3463339D01*
X3446677D01*
X3430016Y3553339D01*
Y3536677D01*
X3446677Y3520016D01*
X3480000D01*
X3496661Y3536677D01*
X3396693Y3520016D02*
X3363371D01*
X3380032D01*
Y3619984D01*
X3396693Y3603322D01*
X3559813Y3393490D02*
X3576474Y3410152D01*
X3609797D01*
X3626458Y3393490D01*
Y3326845D01*
X3609797Y3310184D01*
X3576474D01*
X3559813Y3326845D01*
X3526491Y3393490D02*
X3509829Y3410152D01*
X3476507D01*
X3459846Y3393490D01*
Y3376829D01*
X3476507Y3360168D01*
X3493168D01*
X3476507D01*
X3459846Y3343506D01*
Y3326845D01*
X3476507Y3310184D01*
X3509829D01*
X3526491Y3326845D01*
X3426523Y3393490D02*
X3409861Y3410152D01*
X3376539D01*
X3359878Y3393490D01*
Y3326845D01*
X3376539Y3310184D01*
X3409861D01*
X3426523Y3326845D01*
Y3393490D01*
X3562145Y3190823D02*
X3578806Y3207484D01*
X3612129D01*
X3628790Y3190823D01*
Y3124178D01*
X3612129Y3107516D01*
X3578806D01*
X3562145Y3124178D01*
X3462177Y3107516D02*
X3528823D01*
X3462177Y3174161D01*
Y3190823D01*
X3478839Y3207484D01*
X3512161D01*
X3528823Y3190823D01*
X3428855Y3124178D02*
X3412193Y3107516D01*
X3378871D01*
X3362210Y3124178D01*
Y3190823D01*
X3378871Y3207484D01*
X3412193D01*
X3428855Y3190823D01*
Y3174161D01*
X3412193Y3157500D01*
X3362210D01*
X3561645Y2855822D02*
X3578307Y2872484D01*
X3611629D01*
X3628290Y2855822D01*
Y2789177D01*
X3611629Y2772516D01*
X3578307D01*
X3561645Y2789177D01*
X3461678Y2772516D02*
X3528323D01*
X3461678Y2839161D01*
Y2855822D01*
X3478339Y2872484D01*
X3511661D01*
X3528323Y2855822D01*
X3428355Y2872484D02*
X3361710D01*
Y2855822D01*
X3428355Y2789177D01*
Y2772516D01*
X3584645Y2495822D02*
X3601306Y2512483D01*
X3634629D01*
X3651290Y2495822D01*
Y2429177D01*
X3634629Y2412516D01*
X3601306D01*
X3584645Y2429177D01*
X3484678Y2412516D02*
X3551323D01*
X3484678Y2479161D01*
Y2495822D01*
X3501339Y2512483D01*
X3534661D01*
X3551323Y2495822D01*
X3384710Y2512483D02*
X3418032Y2495822D01*
X3451355Y2462500D01*
Y2429177D01*
X3434693Y2412516D01*
X3401371D01*
X3384710Y2429177D01*
Y2445838D01*
X3401371Y2462500D01*
X3451355D01*
X3576645Y2303323D02*
X3593307Y2319984D01*
X3626629D01*
X3643290Y2303323D01*
Y2236678D01*
X3626629Y2220016D01*
X3593307D01*
X3576645Y2236678D01*
X3476678Y2220016D02*
X3543323D01*
X3476678Y2286661D01*
Y2303323D01*
X3493339Y2319984D01*
X3526661D01*
X3543323Y2303323D01*
X3376710Y2319984D02*
X3443355D01*
Y2270000D01*
X3410032Y2286661D01*
X3393371D01*
X3376710Y2270000D01*
Y2236678D01*
X3393371Y2220016D01*
X3426693D01*
X3443355Y2236678D01*
X3584145Y1823322D02*
X3600806Y1839984D01*
X3634129D01*
X3650790Y1823322D01*
Y1756677D01*
X3634129Y1740016D01*
X3600806D01*
X3584145Y1756677D01*
X3484177Y1740016D02*
X3550822D01*
X3484177Y1806661D01*
Y1823322D01*
X3500839Y1839984D01*
X3534161D01*
X3550822Y1823322D01*
X3400871Y1740016D02*
Y1839984D01*
X3450855Y1790000D01*
X3384210D01*
X3579145Y1608322D02*
X3595806Y1624984D01*
X3629129D01*
X3645790Y1608322D01*
Y1541677D01*
X3629129Y1525016D01*
X3595806D01*
X3579145Y1541677D01*
X3479177Y1525016D02*
X3545822D01*
X3479177Y1591661D01*
Y1608322D01*
X3495839Y1624984D01*
X3529161D01*
X3545822Y1608322D01*
X3445855D02*
X3429193Y1624984D01*
X3395871D01*
X3379210Y1608322D01*
Y1591661D01*
X3395871Y1575000D01*
X3412532D01*
X3395871D01*
X3379210Y1558339D01*
Y1541677D01*
X3395871Y1525016D01*
X3429193D01*
X3445855Y1541677D01*
X3576645Y1283323D02*
X3593307Y1299984D01*
X3626629D01*
X3643290Y1283323D01*
Y1216678D01*
X3626629Y1200016D01*
X3593307D01*
X3576645Y1216678D01*
X3476678Y1200016D02*
X3543323D01*
X3476678Y1266661D01*
Y1283323D01*
X3493339Y1299984D01*
X3526661D01*
X3543323Y1283323D01*
X3376710Y1200016D02*
X3443355D01*
X3376710Y1266661D01*
Y1283323D01*
X3393371Y1299984D01*
X3426693D01*
X3443355Y1283323D01*
X3575484Y1135822D02*
X3592145Y1152483D01*
X3625467D01*
X3642129Y1135822D01*
Y1069177D01*
X3625467Y1052516D01*
X3592145D01*
X3575484Y1069177D01*
X3475516Y1052516D02*
X3542161D01*
X3475516Y1119161D01*
Y1135822D01*
X3492177Y1152483D01*
X3525500D01*
X3542161Y1135822D01*
X3442193Y1052516D02*
X3408871D01*
X3425532D01*
Y1152483D01*
X3442193Y1135822D01*
X3586645Y993323D02*
X3603306Y1009984D01*
X3636629D01*
X3653290Y993323D01*
Y926678D01*
X3636629Y910016D01*
X3603306D01*
X3586645Y926678D01*
X3486678Y910016D02*
X3553323D01*
X3486678Y976661D01*
Y993323D01*
X3503339Y1009984D01*
X3536661D01*
X3553323Y993323D01*
X3453355D02*
X3436693Y1009984D01*
X3403371D01*
X3386710Y993323D01*
Y926678D01*
X3403371Y910016D01*
X3436693D01*
X3453355Y926678D01*
Y993323D01*
X3578315Y2133323D02*
X3594976Y2149984D01*
X3628298D01*
X3644960Y2133323D01*
Y2066678D01*
X3628298Y2050016D01*
X3594976D01*
X3578315Y2066678D01*
X3544992Y2050016D02*
X3511669D01*
X3528331D01*
Y2149984D01*
X3544992Y2133323D01*
X3461685Y2066678D02*
X3445024Y2050016D01*
X3411702D01*
X3395040Y2066678D01*
Y2133323D01*
X3411702Y2149984D01*
X3445024D01*
X3461685Y2133323D01*
Y2116661D01*
X3445024Y2100000D01*
X3395040D01*
X3584645Y1977249D02*
X3601306Y1993910D01*
X3634629D01*
X3651290Y1977249D01*
Y1910604D01*
X3634629Y1893943D01*
X3601306D01*
X3584645Y1910604D01*
X3551323Y1893943D02*
X3518000D01*
X3534661D01*
Y1993910D01*
X3551323Y1977249D01*
X3468016D02*
X3451355Y1993910D01*
X3418032D01*
X3401371Y1977249D01*
Y1960588D01*
X3418032Y1943927D01*
X3401371Y1927265D01*
Y1910604D01*
X3418032Y1893943D01*
X3451355D01*
X3468016Y1910604D01*
Y1927265D01*
X3451355Y1943927D01*
X3468016Y1960588D01*
Y1977249D01*
X3451355Y1943927D02*
X3418032D01*
X3571661Y2648323D02*
X3588323Y2664984D01*
X3621645D01*
X3638306Y2648323D01*
Y2581678D01*
X3621645Y2565016D01*
X3588323D01*
X3571661Y2581678D01*
X3538339Y2664984D02*
X3471694D01*
Y2648323D01*
X3538339Y2581678D01*
Y2565016D01*
X3171677Y3844161D02*
X3155016Y3860822D01*
Y3894145D01*
X3171677Y3910806D01*
X3238322D01*
X3254984Y3894145D01*
Y3860822D01*
X3238322Y3844161D01*
X3254984Y3744193D02*
Y3810838D01*
X3188339Y3744193D01*
X3171677D01*
X3155016Y3760855D01*
Y3794177D01*
X3171677Y3810838D01*
D58*
X2304600Y1520400D02*
X2228425D01*
X2203033Y1545792D01*
X2228425Y1571184D01*
X2279208D01*
X2304600Y1596575D01*
X2279208Y1621967D01*
X2203033D01*
X2152249Y1520400D02*
Y1621967D01*
X2076074D01*
X2050682Y1596575D01*
Y1520400D01*
X1898331D02*
X1999898D01*
X1898331Y1621967D01*
Y1647359D01*
X1923723Y1672751D01*
X1974507D01*
X1999898Y1647359D01*
X1847548Y1621967D02*
X1745981Y1520400D01*
X1796764Y1571184D01*
X1745981Y1621967D01*
X1847548Y1520400D01*
%TF.MD5,590e62f7126b1cbed15bd773b2e2270b*%
M02*
