M48
;Layer_Color=9474304
;FILE_FORMAT=4:4
METRIC,LZ
;TYPE=PLATED
T1F00S00C0.2000
T3F00S00C0.8000
T4F00S00C3.4000
;TYPE=NON_PLATED
T5F00S00C1.5000
%
T01
X00180594Y00038354
X0020066Y00071628
X00260858Y00069088
X00254254Y00049784
X002794Y00078994
X00353568Y00064516
X00342646Y00047752
X00388366Y00109728
X00387604Y0013081
X00376174Y00159766
X00384048Y00204388
X0037465Y00227838
X003575Y00239014
X00357886Y00274574
X00364998Y0027305
X00336296Y00278638
X0030861Y00287528
X00299466Y00312166
X00279654Y00321564
X00307848Y00349758
X00371094Y00336296
X00392684Y00358648
X00384302Y00385826
X00381Y00393954
X00394742Y003
X00390398Y00244624
X00309372Y0023749
X00302768Y00258826
X00256794Y00283972
X0025948Y00224028
X00250698Y00224282
X0024384Y00160858
X00134874Y00127762
X00142494Y00102362
X00106934Y00169672
X00122238Y00304292
X0009398Y00361442
X00073939Y00363957
X00071345Y00352044
X00086387Y00381254
X00047244Y00390652
X00038608Y0027051
X00169672Y00354838
X001905Y00375666
X00198628Y0037338
X00470215Y00368396
X005Y00329692
X00504501Y00310134
X00502412Y00225552
X0049276Y00223012
X00455676Y00202184
Y00192024
X00397764Y0019304
X00405384Y0025654
X00440182Y00136398
X00456438Y00125222
X0048641Y00132588
X00501396Y00097282
X00428762Y00086614
X004572Y00414528
X00430784Y00453898
X00448056Y00500888
X00459374Y0049595
X00492481Y0047752
X00344678Y00471424
X0033147Y00460252
X00303784Y00461264
X00303022Y00468884
X0027896Y00459808
X00263Y00474726
X00255016
X00247Y00488886
X0028448Y0048895
X00281178Y00519938
X0029Y00525145
X00322863Y00516337
X00315942Y00507272
X00252984Y00534901
X0022225Y0047371
X00197104Y00471424
X00206502Y00488
X00202438Y00450088
X00209042Y00441875
X00226568Y00425196
X0024638Y00445008
X00272034Y00434848
X00267716Y00404872
X00260636Y00398272
X00327978Y00412242
X00344678Y00413512
X00342138Y00438658
X00365Y00425196
X0035687Y00397764
X00168402Y00411226
X00150622Y00417322
X00137668Y0041656
X00117094Y00425196
X00114973Y00441199
X00115296Y00473964
X0009652Y00461772
X00157734Y00448056
X00151638Y00485811
X00151254Y00532573
T03
X00025602Y0009324
X00051002
X00038302Y0011864
X00063702
X00051002Y0019608
X00025602
X00038302Y0022148
X00063702
X00051002Y0029892
X00025602
X00038302Y0032432
X00063702
X00051002Y0040176
X00025602
X00038302Y0042716
X00063702
X000477Y005046
X000223
X00035Y0053
X000604
T04
X0005Y0005
X005
T05
X00077702Y0010064
Y0020348
Y0030632
Y0040916
X000744Y00512
M30
