%TF.GenerationSoftware,Altium Limited,Altium Designer,22.10.1 (41)*%
G04 Layer_Color=128*
%FSLAX45Y45*%
%MOMM*%
%TF.SameCoordinates,8149DA90-88D9-4985-9A7D-E7F2AEE67DA1*%
%TF.FilePolarity,Positive*%
%TF.FileFunction,Paste,Bot*%
%TF.Part,Single*%
G01*
G75*
%TA.AperFunction,SMDPad,CuDef*%
%ADD18R,0.81000X0.99000*%
%ADD33R,0.99000X0.81000*%
%TA.AperFunction,ConnectorPad*%
%ADD55R,1.15000X1.47000*%
D18*
X3890000Y1370000D02*
D03*
X3752002D02*
D03*
X3877998Y2600000D02*
D03*
X3740000D02*
D03*
D33*
X3350000Y3762002D02*
D03*
Y3900000D02*
D03*
D55*
X3920002Y3559998D02*
D03*
X3744001D02*
D03*
X3928002Y1949999D02*
D03*
X3752001D02*
D03*
X3928000Y750000D02*
D03*
X3752000D02*
D03*
X3752001Y910002D02*
D03*
X3928002D02*
D03*
X3752001Y1070000D02*
D03*
X3928002D02*
D03*
X3752001Y1230002D02*
D03*
X3928002D02*
D03*
X3742001Y1499999D02*
D03*
X3918002D02*
D03*
X3752001Y1669999D02*
D03*
X3928002D02*
D03*
X3752001Y2110001D02*
D03*
X3928002D02*
D03*
X3762001Y2279998D02*
D03*
X3938002D02*
D03*
X3762001Y2440000D02*
D03*
X3938002D02*
D03*
X3742001Y2750000D02*
D03*
X3918002D02*
D03*
X3744001Y3750000D02*
D03*
X3920002D02*
D03*
X3744001Y3190001D02*
D03*
X3920002D02*
D03*
X3744001Y3370001D02*
D03*
X3920002D02*
D03*
%TF.MD5,8edfdca1c0793ac127ea26318bc600e9*%
M02*
