%TF.GenerationSoftware,Altium Limited,Altium Designer,20.2.4 (192)*%
G04 Layer_Color=8421504*
%FSLAX45Y45*%
%MOMM*%
%TF.SameCoordinates,538F140D-ADF5-4649-B7F1-A5983F3DD12E*%
%TF.FilePolarity,Positive*%
%TF.FileFunction,Paste,Top*%
%TF.Part,Single*%
G01*
G75*
%TA.AperFunction,SMDPad,CuDef*%
%ADD10R,5.60000X1.65000*%
%ADD11R,2.79000X0.74000*%
%ADD12R,0.30000X0.60000*%
%ADD13R,0.90000X0.95000*%
%ADD14R,0.81000X0.99000*%
%ADD15R,0.90000X0.85000*%
%ADD16R,0.52583X1.65524*%
G04:AMPARAMS|DCode=17|XSize=1.65524mm|YSize=0.52583mm|CornerRadius=0.26292mm|HoleSize=0mm|Usage=FLASHONLY|Rotation=270.000|XOffset=0mm|YOffset=0mm|HoleType=Round|Shape=RoundedRectangle|*
%AMROUNDEDRECTD17*
21,1,1.65524,0.00000,0,0,270.0*
21,1,1.12941,0.52583,0,0,270.0*
1,1,0.52583,0.00000,-0.56470*
1,1,0.52583,0.00000,0.56470*
1,1,0.52583,0.00000,0.56470*
1,1,0.52583,0.00000,-0.56470*
%
%ADD17ROUNDEDRECTD17*%
G04:AMPARAMS|DCode=18|XSize=0.52583mm|YSize=1.65524mm|CornerRadius=0.26292mm|HoleSize=0mm|Usage=FLASHONLY|Rotation=270.000|XOffset=0mm|YOffset=0mm|HoleType=Round|Shape=RoundedRectangle|*
%AMROUNDEDRECTD18*
21,1,0.52583,1.12941,0,0,270.0*
21,1,0.00000,1.65524,0,0,270.0*
1,1,0.52583,-0.56470,0.00000*
1,1,0.52583,-0.56470,0.00000*
1,1,0.52583,0.56470,0.00000*
1,1,0.52583,0.56470,0.00000*
%
%ADD18ROUNDEDRECTD18*%
%ADD19R,1.27000X1.39700*%
%ADD20R,1.45000X0.95000*%
%ADD21R,0.95000X1.45000*%
%ADD22R,5.00000X5.00000*%
%TA.AperFunction,SMDPad,SMDef*%
%ADD23R,0.25000X0.60000*%
%ADD24R,0.60000X0.25000*%
%TA.AperFunction,SMDPad,CuDef*%
%ADD28R,3.00000X3.00000*%
%ADD29R,1.98120X0.55880*%
%ADD30R,1.90000X1.90000*%
%TA.AperFunction,ConnectorPad*%
%ADD31R,1.60000X1.40000*%
%ADD32R,0.40000X1.35000*%
%TA.AperFunction,SMDPad,CuDef*%
%ADD33R,0.88900X1.00000*%
%ADD34R,3.10000X4.20000*%
%ADD35R,1.50000X4.70000*%
%ADD36R,1.15000X0.70000*%
%ADD37R,0.95000X0.90000*%
%ADD38R,0.40000X1.10000*%
%ADD39R,0.99000X0.81000*%
G36*
X3784998Y2827498D02*
X3814998Y2827498D01*
X3819998Y2822498D01*
Y2807498D01*
X3814998Y2802498D01*
X3784998Y2802498D01*
Y2794998D01*
X3667498D01*
X3662498Y2799998D01*
X3662498Y2829998D01*
X3667498Y2834998D01*
X3784998D01*
Y2827498D01*
D02*
G37*
G36*
X3632498Y2834995D02*
X3637498Y2829995D01*
X3637498Y2799995D01*
X3632498Y2794995D01*
X3514998D01*
Y2802495D01*
X3484998D01*
X3479998Y2807495D01*
Y2822495D01*
X3484998Y2827495D01*
X3514998D01*
Y2834995D01*
X3632498Y2834995D01*
D02*
G37*
G36*
X3737500Y1545000D02*
Y1460000D01*
X3785000D01*
Y1452500D01*
X3814999D01*
X3819999Y1447500D01*
Y1432500D01*
X3814999Y1427500D01*
X3785000D01*
Y1420000D01*
X3515000D01*
Y1427500D01*
X3485000Y1427500D01*
X3480000Y1432500D01*
Y1447500D01*
X3485000Y1452500D01*
X3515000D01*
Y1460000D01*
X3562500D01*
Y1545000D01*
X3567500Y1550000D01*
X3582500D01*
X3587500Y1545000D01*
Y1460000D01*
X3612500D01*
Y1545000D01*
X3617499Y1550000D01*
X3632499D01*
X3637499Y1545000D01*
Y1460000D01*
X3662500D01*
Y1545000D01*
X3667500Y1550000D01*
X3682500D01*
X3687500Y1545000D01*
Y1460000D01*
X3712500D01*
Y1545000D01*
X3717500Y1550000D01*
X3732500D01*
X3737500Y1545000D01*
D02*
G37*
G36*
X3784997Y1382502D02*
X3814997D01*
X3819997Y1377502D01*
Y1362502D01*
X3814997Y1357502D01*
X3784997Y1357502D01*
Y1350002D01*
X3667497D01*
X3662497Y1355002D01*
X3662497Y1385002D01*
X3667497Y1390002D01*
X3784997D01*
Y1382502D01*
D02*
G37*
G36*
X3637500Y1384999D02*
X3637499Y1354999D01*
X3632500Y1349999D01*
X3515000D01*
Y1357499D01*
X3485000D01*
X3480000Y1362499D01*
Y1377499D01*
X3485000Y1382498D01*
X3515000Y1382499D01*
Y1389998D01*
X3632499D01*
X3637500Y1384999D01*
D02*
G37*
G36*
X3785000Y1312500D02*
X3814999Y1312500D01*
X3819999Y1307500D01*
Y1292500D01*
X3814999Y1287500D01*
X3785000Y1287500D01*
Y1280000D01*
X3667500D01*
X3662499Y1285000D01*
X3662500Y1315000D01*
X3667499Y1320000D01*
X3785000D01*
Y1312500D01*
D02*
G37*
G36*
X3632499Y1319997D02*
X3637500Y1314997D01*
X3637499Y1284997D01*
X3632500Y1279997D01*
X3515000D01*
Y1287497D01*
X3485000D01*
X3480000Y1292497D01*
Y1307497D01*
X3485000Y1312497D01*
X3515000D01*
Y1319997D01*
X3632499Y1319997D01*
D02*
G37*
G36*
X3484998Y2872497D02*
X3479998Y2877497D01*
Y2892497D01*
X3484998Y2897496D01*
X3514998Y2897497D01*
Y2904996D01*
X3632498D01*
X3637498Y2899996D01*
X3637498Y2869997D01*
X3632498Y2864997D01*
X3514998D01*
Y2872497D01*
X3484998D01*
D02*
G37*
G36*
X3814995Y2897500D02*
X3819995Y2892500D01*
Y2877500D01*
X3814995Y2872500D01*
X3784995Y2872500D01*
Y2865000D01*
X3667496D01*
X3662495Y2870000D01*
X3662496Y2900000D01*
X3667495Y2905000D01*
X3784995D01*
Y2897500D01*
X3814995D01*
D02*
G37*
G36*
X3814998Y2967498D02*
X3819998Y2962498D01*
Y2947498D01*
X3814998Y2942498D01*
X3784998D01*
Y2934998D01*
X3514998D01*
Y2942498D01*
X3484998Y2942498D01*
X3479998Y2947498D01*
Y2962498D01*
X3484998Y2967498D01*
X3514998D01*
Y2974998D01*
X3562498D01*
Y3059998D01*
X3567498Y3064998D01*
X3582498D01*
X3587498Y3059998D01*
Y2974998D01*
X3612498D01*
Y3059998D01*
X3617498Y3064998D01*
X3632498D01*
X3637498Y3059998D01*
Y2974998D01*
X3662498D01*
Y3059998D01*
X3667498Y3064998D01*
X3682498D01*
X3687498Y3059998D01*
Y2974998D01*
X3712498D01*
Y3059998D01*
X3717498Y3064998D01*
X3732498D01*
X3737498Y3059998D01*
Y2974998D01*
X3784998D01*
Y2967498D01*
X3814998D01*
D02*
G37*
G36*
X3426252Y3767504D02*
X3421252Y3772504D01*
Y3787504D01*
X3426252Y3792504D01*
X3456252D01*
Y3800004D01*
X3726252D01*
Y3792504D01*
X3756252Y3792504D01*
X3761252Y3787504D01*
Y3772504D01*
X3756252Y3767504D01*
X3726252D01*
Y3760004D01*
X3678752D01*
Y3675004D01*
X3673752Y3670004D01*
X3658752D01*
X3653752Y3675004D01*
Y3760004D01*
X3628752D01*
Y3675004D01*
X3623752Y3670004D01*
X3608752D01*
X3603752Y3675004D01*
Y3760004D01*
X3578752D01*
Y3675004D01*
X3573752Y3670004D01*
X3558752D01*
X3553752Y3675004D01*
Y3760004D01*
X3528752D01*
Y3675004D01*
X3523752Y3670004D01*
X3508752D01*
X3503752Y3675004D01*
Y3760004D01*
X3456252D01*
Y3767504D01*
X3426252D01*
D02*
G37*
G36*
X3421252Y3912504D02*
Y3927504D01*
X3426252Y3932504D01*
X3456252Y3932504D01*
Y3940004D01*
X3573752D01*
X3578752Y3935004D01*
X3578752Y3905004D01*
X3573752Y3900004D01*
X3456252D01*
Y3907504D01*
X3426252Y3907504D01*
X3421252Y3912504D01*
D02*
G37*
G36*
X3426255Y3837502D02*
X3421255Y3842502D01*
Y3857502D01*
X3426255Y3862502D01*
X3456254Y3862502D01*
Y3870002D01*
X3573754D01*
X3578755Y3865002D01*
X3578754Y3835002D01*
X3573755Y3830002D01*
X3456254D01*
Y3837502D01*
X3426255D01*
D02*
G37*
G36*
X3756252Y3862505D02*
X3761252Y3857505D01*
Y3842505D01*
X3756252Y3837506D01*
X3726252Y3837505D01*
Y3830006D01*
X3608752D01*
X3603752Y3835006D01*
X3603752Y3865005D01*
X3608752Y3870005D01*
X3726252D01*
Y3862505D01*
X3756252D01*
D02*
G37*
G36*
X3761252Y3927507D02*
Y3912507D01*
X3756252Y3907507D01*
X3726252D01*
Y3900007D01*
X3608752Y3900007D01*
X3603752Y3905007D01*
X3603752Y3935007D01*
X3608752Y3940007D01*
X3726252D01*
Y3932507D01*
X3756252D01*
X3761252Y3927507D01*
D02*
G37*
D10*
X1400002Y607502D02*
D03*
Y192502D02*
D03*
D11*
X1800001Y4246006D02*
D03*
X1393002D02*
D03*
X1800001Y4373006D02*
D03*
X1393002D02*
D03*
X1800001Y4500006D02*
D03*
X1393002D02*
D03*
X1800001Y4627006D02*
D03*
X1393002D02*
D03*
X1800001Y4754006D02*
D03*
X1393002D02*
D03*
D12*
X1300002Y1200003D02*
D03*
X1350000D02*
D03*
X1400002D02*
D03*
X1450000D02*
D03*
X1300002Y1350000D02*
D03*
X1350000D02*
D03*
X1400002D02*
D03*
X1450000D02*
D03*
D13*
X1062380Y3314441D02*
D03*
X1222380D02*
D03*
X4127617Y735559D02*
D03*
X4287622D02*
D03*
X1062380Y3564443D02*
D03*
X1222380D02*
D03*
D14*
X1800001Y4000002D02*
D03*
X1938000D02*
D03*
X2761996Y5350002D02*
D03*
X2899999D02*
D03*
X1237996Y4000002D02*
D03*
X1099998D02*
D03*
X1150000Y899998D02*
D03*
X1288004D02*
D03*
D15*
X1205001Y5204998D02*
D03*
X1110005D02*
D03*
X1300002Y4949998D02*
D03*
X1110005D02*
D03*
X1300002Y5204998D02*
D03*
X1944995Y5227503D02*
D03*
X1754998Y4972502D02*
D03*
X1944995D02*
D03*
X1754998Y5227503D02*
D03*
X1849999D02*
D03*
D16*
X3030002Y5012548D02*
D03*
D17*
X2950002D02*
D03*
X2870002D02*
D03*
X2790002D02*
D03*
X2710002D02*
D03*
X2630002D02*
D03*
X2550003D02*
D03*
X2470003D02*
D03*
Y4187449D02*
D03*
X2550003D02*
D03*
X2630002D02*
D03*
X2710002D02*
D03*
X2790002D02*
D03*
X2870002D02*
D03*
X2950002D02*
D03*
X3030002D02*
D03*
D18*
X2337455Y4880000D02*
D03*
Y4800001D02*
D03*
Y4720001D02*
D03*
Y4640001D02*
D03*
Y4560001D02*
D03*
Y4480001D02*
D03*
Y4399996D02*
D03*
Y4319996D02*
D03*
X3162549D02*
D03*
Y4399996D02*
D03*
Y4480001D02*
D03*
Y4560001D02*
D03*
Y4640001D02*
D03*
Y4720001D02*
D03*
Y4800001D02*
D03*
Y4880000D02*
D03*
D19*
X4949998Y3771402D02*
D03*
Y4000002D02*
D03*
X5000000Y2471400D02*
D03*
Y2700000D02*
D03*
D20*
Y2999999D02*
D03*
Y3199999D02*
D03*
Y1900001D02*
D03*
Y2100001D02*
D03*
D21*
X3762700Y2162698D02*
D03*
X3562701D02*
D03*
X5212700Y1212708D02*
D03*
X5412699D02*
D03*
D22*
X3650000Y5200000D02*
D03*
X4200002Y5199995D02*
D03*
D23*
X3516249Y4129999D02*
D03*
X3566246D02*
D03*
X3616249D02*
D03*
X3666246D02*
D03*
X3725001Y1090005D02*
D03*
X3674999D02*
D03*
X3625002D02*
D03*
X3574999D02*
D03*
X3724996Y2604999D02*
D03*
X3674999D02*
D03*
X3624997D02*
D03*
X3574999D02*
D03*
D24*
X3731250Y4077503D02*
D03*
Y4027500D02*
D03*
Y3977503D02*
D03*
X3451245D02*
D03*
Y4027500D02*
D03*
Y4077503D02*
D03*
X3510001Y1142502D02*
D03*
Y1192505D02*
D03*
Y1242507D02*
D03*
X3790000D02*
D03*
Y1192505D02*
D03*
Y1142502D02*
D03*
X3510001Y2657495D02*
D03*
Y2707498D02*
D03*
Y2757495D02*
D03*
X3790000D02*
D03*
Y2707498D02*
D03*
Y2657495D02*
D03*
D28*
X5300000Y2200001D02*
D03*
Y850001D02*
D03*
X5300005Y4400001D02*
D03*
Y2999999D02*
D03*
X5300000Y1650004D02*
D03*
X5300005Y3600003D02*
D03*
D29*
X3219902Y2444501D02*
D03*
Y2317501D02*
D03*
Y2190501D02*
D03*
Y2063501D02*
D03*
Y1936501D02*
D03*
Y1809501D02*
D03*
Y1682501D02*
D03*
Y1555501D02*
D03*
X2280102D02*
D03*
Y1682501D02*
D03*
Y1809501D02*
D03*
Y1936501D02*
D03*
Y2063501D02*
D03*
Y2190501D02*
D03*
Y2317501D02*
D03*
Y2444501D02*
D03*
X3219902Y3694501D02*
D03*
Y3567501D02*
D03*
Y3440501D02*
D03*
Y3313501D02*
D03*
Y3186501D02*
D03*
Y3059501D02*
D03*
Y2932501D02*
D03*
Y2805501D02*
D03*
X2280102D02*
D03*
Y2932501D02*
D03*
Y3059501D02*
D03*
Y3186501D02*
D03*
Y3313501D02*
D03*
Y3440501D02*
D03*
Y3567501D02*
D03*
Y3694501D02*
D03*
X3219902Y1144499D02*
D03*
Y1017499D02*
D03*
Y890499D02*
D03*
Y763499D02*
D03*
Y636499D02*
D03*
Y509499D02*
D03*
Y382499D02*
D03*
Y255499D02*
D03*
X2280102D02*
D03*
Y382499D02*
D03*
Y509499D02*
D03*
Y636499D02*
D03*
Y763499D02*
D03*
Y890499D02*
D03*
Y1017499D02*
D03*
Y1144499D02*
D03*
D30*
X4320007Y302499D02*
D03*
X4080002D02*
D03*
D31*
X4520006Y547502D02*
D03*
X3880002D02*
D03*
D32*
X4330004Y570001D02*
D03*
X4265005D02*
D03*
X4200007D02*
D03*
X4135003D02*
D03*
X4070005D02*
D03*
D33*
X1500002Y899998D02*
D03*
X1654942D02*
D03*
D34*
X5000000Y5150002D02*
D03*
D35*
X5229997D02*
D03*
D36*
X4682500Y4959502D02*
D03*
Y5086502D02*
D03*
Y5213502D02*
D03*
Y5340502D02*
D03*
D37*
X5000000Y3550001D02*
D03*
Y3390001D02*
D03*
D38*
X3615004Y4599996D02*
D03*
X3550001D02*
D03*
X3485002D02*
D03*
Y4399996D02*
D03*
X3615004D02*
D03*
D39*
X1050000Y2212000D02*
D03*
Y2349998D02*
D03*
%TF.MD5,e64e77507b71c077a1c955dc830fe6ee*%
M02*
