%TF.GenerationSoftware,Altium Limited,Altium Designer,20.2.4 (192)*%
G04 Layer_Color=32768*
%FSLAX45Y45*%
%MOMM*%
%TF.SameCoordinates,538F140D-ADF5-4649-B7F1-A5983F3DD12E*%
%TF.FilePolarity,Positive*%
%TF.FileFunction,Other,Mechanical_15*%
%TF.Part,Single*%
G01*
G75*
%TA.AperFunction,NonConductor*%
%ADD64C,0.10000*%
%ADD86C,0.05000*%
D64*
X22001Y5532999D02*
X960303D01*
Y4813000D02*
Y5532999D01*
X22001Y4813000D02*
X960303D01*
X22001D02*
Y5532999D01*
X1153500Y4082506D02*
Y4917506D01*
X2125000D01*
Y4082506D02*
Y4917506D01*
X1153500Y4082506D02*
X2125000D01*
X1325001Y1275004D02*
X1425001D01*
X1375004Y1225001D02*
Y1325001D01*
X4524898Y5495000D02*
X5404998D01*
X4524898Y4804999D02*
Y5495000D01*
Y4804999D02*
X5404998D01*
Y5495000D01*
X55021Y3784600D02*
Y4504604D01*
Y3784600D02*
X993323D01*
Y4504604D01*
X55021D02*
X993323D01*
X55021Y699404D02*
Y1419403D01*
Y699404D02*
X993323D01*
Y1419403D01*
X55021D02*
X993323D01*
X55021Y1727799D02*
Y2447798D01*
Y1727799D02*
X993323D01*
Y2447798D01*
X55021D02*
X993323D01*
X55021Y3476198D02*
X993323D01*
Y2756200D02*
Y3476198D01*
X55021Y2756200D02*
X993323D01*
X55021D02*
Y3476198D01*
D86*
X1045002Y55001D02*
X1755003D01*
X1045002Y745002D02*
X1755003D01*
Y55001D02*
Y745002D01*
X1045002Y55001D02*
Y745002D01*
X1240003Y1127501D02*
X1510000D01*
X1240003D02*
Y1422502D01*
X1510000Y1127501D02*
Y1422502D01*
X1240003D02*
X1510000D01*
X3780003Y662498D02*
X4620006D01*
Y2499D02*
Y662498D01*
X3780003Y2499D02*
X4620006D01*
X3780003D02*
Y662498D01*
X3687501Y4319996D02*
Y4679996D01*
X3412500Y4319996D02*
X3687501D01*
X3412500D02*
Y4679996D01*
X3687501D01*
%TF.MD5,458573e530e098a9680ba140ec04e87d*%
M02*
