%TF.GenerationSoftware,Altium Limited,Altium Designer,22.10.1 (41)*%
G04 Layer_Color=65535*
%FSLAX45Y45*%
%MOMM*%
%TF.SameCoordinates,DE935885-D1E6-4056-9A9D-6EDDC4C2173E*%
%TF.FilePolarity,Positive*%
%TF.FileFunction,Legend,Top*%
%TF.Part,Single*%
G01*
G75*
%TA.AperFunction,NonConductor*%
%ADD56C,0.20320*%
%ADD57C,0.25400*%
%ADD58C,0.15300*%
%ADD67C,0.20000*%
%ADD68C,0.10000*%
%ADD69C,0.25000*%
%ADD70C,0.50000*%
%ADD71C,0.15000*%
%ADD72C,0.12700*%
D56*
X1144022Y1109240D02*
Y1205760D01*
X2908660Y1789740D02*
X3010260D01*
X2832460Y1817240D02*
Y2107240D01*
X969740Y1249740D02*
Y1351340D01*
X997240Y1427540D02*
X1287240D01*
X2701735Y3740978D02*
X2798255D01*
X1936735Y1033478D02*
X2033255D01*
X1848684Y3646086D02*
X1945204D01*
X3041740Y1949022D02*
X3138260D01*
X1141024Y1641735D02*
Y1738255D01*
X1252540Y3162762D02*
Y3452759D01*
X1074740Y3480262D02*
X1176340D01*
X1876735Y2593980D02*
X1973255D01*
X1178981Y1791745D02*
Y1888265D01*
X2471740Y1798981D02*
X2568260D01*
X991743Y969020D02*
X1088263D01*
X908720Y1801741D02*
Y1898261D01*
X1659022Y2981735D02*
Y3078255D01*
D57*
X1454280Y3228740D02*
X1545720D01*
X1744200Y3276400D02*
X1845800D01*
X1744200D02*
Y3326098D01*
X1845800Y3276400D02*
Y3326098D01*
X3546780Y3461240D02*
X3638220D01*
X3419280Y3273800D02*
X3510720D01*
X3284280Y3268700D02*
X3375720D01*
X3264281Y2698699D02*
X3355721D01*
X3343800Y1144280D02*
Y1235720D01*
X3356239Y1016782D02*
Y1108222D01*
X3401299Y1609278D02*
Y1700718D01*
X3371300Y2299280D02*
Y2390720D01*
X3376300Y2424278D02*
Y2515718D01*
X3405400Y340400D02*
X3472045D01*
X2475400Y348722D02*
X2542045D01*
X2508722Y382045D02*
Y315400D01*
D58*
X1407484Y2946693D02*
X1307516D01*
Y2996677D01*
X1324177Y3013338D01*
X1357500D01*
X1374161Y2996677D01*
Y2946693D01*
Y2980016D02*
X1407484Y3013338D01*
Y3113306D02*
Y3046661D01*
X1340839Y3113306D01*
X1324177D01*
X1307516Y3096645D01*
Y3063323D01*
X1324177Y3046661D01*
X2746694Y1749984D02*
Y1666677D01*
X2763355Y1650016D01*
X2796677D01*
X2813339Y1666677D01*
Y1749984D01*
X2913306D02*
X2879984Y1733322D01*
X2846661Y1700000D01*
Y1666677D01*
X2863323Y1650016D01*
X2896645D01*
X2913306Y1666677D01*
Y1683339D01*
X2896645Y1700000D01*
X2846661D01*
X2520000Y991677D02*
Y1058322D01*
X2503339Y1074984D01*
X2470016D01*
X2453355Y1058322D01*
Y991677D01*
X2470016Y975016D01*
X2503339D01*
X2486678Y1008339D02*
X2520000Y975016D01*
X2503339D02*
X2520000Y991677D01*
X2553323Y975016D02*
X2586645D01*
X2569984D01*
Y1074984D01*
X2553323Y1058322D01*
X1452484Y1503306D02*
X1369178D01*
X1352516Y1486644D01*
Y1453322D01*
X1369178Y1436661D01*
X1452484D01*
X1369178Y1403338D02*
X1352516Y1386677D01*
Y1353354D01*
X1369178Y1336693D01*
X1435823D01*
X1452484Y1353354D01*
Y1386677D01*
X1435823Y1403338D01*
X1419161D01*
X1402500Y1386677D01*
Y1336693D01*
X1379185Y1708322D02*
X1362524Y1724984D01*
X1329202D01*
X1312540Y1708322D01*
Y1641677D01*
X1329202Y1625016D01*
X1362524D01*
X1379185Y1641677D01*
X1412508Y1625016D02*
X1445831D01*
X1429170D01*
Y1724984D01*
X1412508Y1708322D01*
X1562460Y1625016D02*
X1495815D01*
X1562460Y1691661D01*
Y1708322D01*
X1545799Y1724984D01*
X1512476D01*
X1495815Y1708322D01*
X783347Y1240823D02*
X766686Y1257484D01*
X733363D01*
X716702Y1240823D01*
Y1174177D01*
X733363Y1157516D01*
X766686D01*
X783347Y1174177D01*
X816669Y1157516D02*
X849992D01*
X833331D01*
Y1257484D01*
X816669Y1240823D01*
X899976Y1157516D02*
X933298D01*
X916637D01*
Y1257484D01*
X899976Y1240823D01*
X3224984Y3152540D02*
X3125016D01*
Y3202524D01*
X3141677Y3219185D01*
X3175000D01*
X3191661Y3202524D01*
Y3152540D01*
Y3185863D02*
X3224984Y3219185D01*
Y3252508D02*
Y3285830D01*
Y3269169D01*
X3125016D01*
X3141677Y3252508D01*
X3224984Y3385798D02*
X3125016D01*
X3175000Y3335814D01*
Y3402459D01*
X3212484Y2570041D02*
X3112516D01*
Y2620024D01*
X3129177Y2636686D01*
X3162500D01*
X3179161Y2620024D01*
Y2570041D01*
Y2603363D02*
X3212484Y2636686D01*
Y2670008D02*
Y2703331D01*
Y2686670D01*
X3112516D01*
X3129177Y2670008D01*
Y2753315D02*
X3112516Y2769976D01*
Y2803299D01*
X3129177Y2819960D01*
X3145839D01*
X3162500Y2803299D01*
Y2786637D01*
Y2803299D01*
X3179161Y2819960D01*
X3195822D01*
X3212484Y2803299D01*
Y2769976D01*
X3195822Y2753315D01*
X3272540Y1745016D02*
Y1844984D01*
X3322524D01*
X3339185Y1828322D01*
Y1795000D01*
X3322524Y1778339D01*
X3272540D01*
X3305863D02*
X3339185Y1745016D01*
X3372508D02*
X3405831D01*
X3389169D01*
Y1844984D01*
X3372508Y1828322D01*
X3522460Y1745016D02*
X3455815D01*
X3522460Y1811661D01*
Y1828322D01*
X3505798Y1844984D01*
X3472476D01*
X3455815Y1828322D01*
X2474177Y2041686D02*
X2457516Y2025024D01*
Y1991702D01*
X2474177Y1975040D01*
X2540822D01*
X2557484Y1991702D01*
Y2025024D01*
X2540822Y2041686D01*
X2557484Y2075008D02*
Y2108331D01*
Y2091670D01*
X2457516D01*
X2474177Y2075008D01*
X2457516Y2224960D02*
Y2158315D01*
X2507500D01*
X2490839Y2191637D01*
Y2208299D01*
X2507500Y2224960D01*
X2540822D01*
X2557484Y2208299D01*
Y2174976D01*
X2540822Y2158315D01*
X3221678Y1974186D02*
X3205016Y1957524D01*
Y1924202D01*
X3221678Y1907541D01*
X3288323D01*
X3304984Y1924202D01*
Y1957524D01*
X3288323Y1974186D01*
X3304984Y2007508D02*
Y2040831D01*
Y2024170D01*
X3205016D01*
X3221678Y2007508D01*
X3304984Y2140799D02*
X3205016D01*
X3255000Y2090815D01*
Y2157460D01*
X2964193Y3632484D02*
Y3549178D01*
X2980855Y3532516D01*
X3014177D01*
X3030838Y3549178D01*
Y3632484D01*
X3064161Y3615823D02*
X3080823Y3632484D01*
X3114145D01*
X3130806Y3615823D01*
Y3599161D01*
X3114145Y3582500D01*
X3130806Y3565839D01*
Y3549178D01*
X3114145Y3532516D01*
X3080823D01*
X3064161Y3549178D01*
Y3565839D01*
X3080823Y3582500D01*
X3064161Y3599161D01*
Y3615823D01*
X3080823Y3582500D02*
X3114145D01*
X2359194Y2829984D02*
Y2746678D01*
X2375855Y2730016D01*
X2409178D01*
X2425839Y2746678D01*
Y2829984D01*
X2459161D02*
X2525806D01*
Y2813323D01*
X2459161Y2746678D01*
Y2730016D01*
X3486694Y3022484D02*
Y2939178D01*
X3503355Y2922516D01*
X3536677D01*
X3553339Y2939178D01*
Y3022484D01*
X3653306D02*
X3586661D01*
Y2972500D01*
X3619984Y2989161D01*
X3636645D01*
X3653306Y2972500D01*
Y2939178D01*
X3636645Y2922516D01*
X3603323D01*
X3586661Y2939178D01*
X999194Y3137484D02*
Y3054178D01*
X1015855Y3037516D01*
X1049177D01*
X1065839Y3054178D01*
Y3137484D01*
X1149145Y3037516D02*
Y3137484D01*
X1099161Y3087500D01*
X1165806D01*
X3542516Y956694D02*
X3625823D01*
X3642484Y973355D01*
Y1006677D01*
X3625823Y1023339D01*
X3542516D01*
X3559178Y1056661D02*
X3542516Y1073323D01*
Y1106645D01*
X3559178Y1123306D01*
X3575839D01*
X3592500Y1106645D01*
Y1089984D01*
Y1106645D01*
X3609161Y1123306D01*
X3625823D01*
X3642484Y1106645D01*
Y1073323D01*
X3625823Y1056661D01*
X1566694Y1222484D02*
Y1139178D01*
X1583355Y1122516D01*
X1616677D01*
X1633339Y1139178D01*
Y1222484D01*
X1733306Y1122516D02*
X1666661D01*
X1733306Y1189161D01*
Y1205823D01*
X1716645Y1222484D01*
X1683323D01*
X1666661Y1205823D01*
X755855Y2887484D02*
Y2804178D01*
X772516Y2787516D01*
X805839D01*
X822500Y2804178D01*
Y2887484D01*
X855823Y2787516D02*
X889145D01*
X872484D01*
Y2887484D01*
X855823Y2870823D01*
X3717516Y3563298D02*
X3817484D01*
Y3513314D01*
X3800822Y3496653D01*
X3767500D01*
X3750839Y3513314D01*
Y3563298D01*
Y3529976D02*
X3717516Y3496653D01*
Y3463330D02*
Y3430008D01*
Y3446669D01*
X3817484D01*
X3800822Y3463330D01*
X3717516Y3380024D02*
Y3346701D01*
Y3363363D01*
X3817484D01*
X3800822Y3380024D01*
X3567516Y3314959D02*
X3667484D01*
Y3264975D01*
X3650823Y3248314D01*
X3617500D01*
X3600839Y3264975D01*
Y3314959D01*
Y3281637D02*
X3567516Y3248314D01*
Y3214992D02*
Y3181669D01*
Y3198330D01*
X3667484D01*
X3650823Y3214992D01*
Y3131685D02*
X3667484Y3115024D01*
Y3081701D01*
X3650823Y3065040D01*
X3584178D01*
X3567516Y3081701D01*
Y3115024D01*
X3584178Y3131685D01*
X3650823D01*
X3016693Y2295016D02*
Y2394984D01*
X3066677D01*
X3083339Y2378322D01*
Y2345000D01*
X3066677Y2328338D01*
X3016693D01*
X3050016D02*
X3083339Y2295016D01*
X3183306Y2394984D02*
X3149984Y2378322D01*
X3116661Y2345000D01*
Y2311677D01*
X3133323Y2295016D01*
X3166645D01*
X3183306Y2311677D01*
Y2328338D01*
X3166645Y2345000D01*
X3116661D01*
X3181694Y2890016D02*
Y2989984D01*
X3231678D01*
X3248339Y2973322D01*
Y2940000D01*
X3231678Y2923339D01*
X3181694D01*
X3215016D02*
X3248339Y2890016D01*
X3348306Y2989984D02*
X3281661D01*
Y2940000D01*
X3314984Y2956661D01*
X3331645D01*
X3348306Y2940000D01*
Y2906677D01*
X3331645Y2890016D01*
X3298323D01*
X3281661Y2906677D01*
X3261694Y867516D02*
Y967484D01*
X3311677D01*
X3328339Y950823D01*
Y917500D01*
X3311677Y900839D01*
X3261694D01*
X3295016D02*
X3328339Y867516D01*
X3361661Y950823D02*
X3378323Y967484D01*
X3411645D01*
X3428306Y950823D01*
Y934161D01*
X3411645Y917500D01*
X3394984D01*
X3411645D01*
X3428306Y900839D01*
Y884178D01*
X3411645Y867516D01*
X3378323D01*
X3361661Y884178D01*
X3225855Y1285016D02*
Y1384984D01*
X3275839D01*
X3292500Y1368323D01*
Y1335000D01*
X3275839Y1318339D01*
X3225855D01*
X3259177D02*
X3292500Y1285016D01*
X3325823D02*
X3359145D01*
X3342484D01*
Y1384984D01*
X3325823Y1368323D01*
X1518339Y3484984D02*
X1485016D01*
X1501677D01*
Y3401677D01*
X1485016Y3385016D01*
X1468355D01*
X1451694Y3401677D01*
X1551661D02*
X1568323Y3385016D01*
X1601645D01*
X1618306Y3401677D01*
Y3468323D01*
X1601645Y3484984D01*
X1568323D01*
X1551661Y3468323D01*
Y3451661D01*
X1568323Y3435000D01*
X1618306D01*
X2220839Y992484D02*
X2187516D01*
X2204177D01*
Y909178D01*
X2187516Y892516D01*
X2170855D01*
X2154194Y909178D01*
X2320806Y992484D02*
X2287484Y975823D01*
X2254161Y942500D01*
Y909178D01*
X2270823Y892516D01*
X2304145D01*
X2320806Y909178D01*
Y925839D01*
X2304145Y942500D01*
X2254161D01*
X215839Y1294984D02*
X182516D01*
X199177D01*
Y1211678D01*
X182516Y1195016D01*
X165855D01*
X149194Y1211678D01*
X299145Y1195016D02*
Y1294984D01*
X249161Y1245000D01*
X315806D01*
X278339Y2189984D02*
X245016D01*
X261677D01*
Y2106678D01*
X245016Y2090016D01*
X228355D01*
X211694Y2106678D01*
X311661Y2173323D02*
X328323Y2189984D01*
X361645D01*
X378306Y2173323D01*
Y2156661D01*
X361645Y2140000D01*
X344984D01*
X361645D01*
X378306Y2123339D01*
Y2106678D01*
X361645Y2090016D01*
X328323D01*
X311661Y2106678D01*
X160000Y3312484D02*
X126677D01*
X143339D01*
Y3229177D01*
X126677Y3212516D01*
X110016D01*
X93355Y3229177D01*
X193323Y3212516D02*
X226645D01*
X209984D01*
Y3312484D01*
X193323Y3295822D01*
X1845016Y2956693D02*
X1944984D01*
Y3006677D01*
X1928322Y3023338D01*
X1861677D01*
X1845016Y3006677D01*
Y2956693D01*
X1944984Y3106645D02*
X1845016D01*
X1895000Y3056661D01*
Y3123306D01*
X1941678Y1264185D02*
X1925016Y1247524D01*
Y1214202D01*
X1941678Y1197540D01*
X2008323D01*
X2024984Y1214202D01*
Y1247524D01*
X2008323Y1264185D01*
X2024984Y1297508D02*
Y1330831D01*
Y1314170D01*
X1925016D01*
X1941678Y1297508D01*
Y1380815D02*
X1925016Y1397476D01*
Y1430799D01*
X1941678Y1447460D01*
X2008323D01*
X2024984Y1430799D01*
Y1397476D01*
X2008323Y1380815D01*
X1941678D01*
X1009177Y720839D02*
X992516Y704178D01*
Y670855D01*
X1009177Y654194D01*
X1075822D01*
X1092484Y670855D01*
Y704178D01*
X1075822Y720839D01*
Y754162D02*
X1092484Y770823D01*
Y804145D01*
X1075822Y820807D01*
X1009177D01*
X992516Y804145D01*
Y770823D01*
X1009177Y754162D01*
X1025839D01*
X1042500Y770823D01*
Y820807D01*
X1703339Y3913323D02*
X1686678Y3929984D01*
X1653355D01*
X1636694Y3913323D01*
Y3846678D01*
X1653355Y3830016D01*
X1686678D01*
X1703339Y3846678D01*
X1736661Y3913323D02*
X1753323Y3929984D01*
X1786645D01*
X1803307Y3913323D01*
Y3896661D01*
X1786645Y3880000D01*
X1803307Y3863339D01*
Y3846678D01*
X1786645Y3830016D01*
X1753323D01*
X1736661Y3846678D01*
Y3863339D01*
X1753323Y3880000D01*
X1736661Y3896661D01*
Y3913323D01*
X1753323Y3880000D02*
X1786645D01*
X1899177Y2355839D02*
X1882516Y2339177D01*
Y2305855D01*
X1899177Y2289194D01*
X1965822D01*
X1982483Y2305855D01*
Y2339177D01*
X1965822Y2355839D01*
X1882516Y2455806D02*
X1899177Y2422484D01*
X1932500Y2389161D01*
X1965822D01*
X1982483Y2405823D01*
Y2439145D01*
X1965822Y2455806D01*
X1949161D01*
X1932500Y2439145D01*
Y2389161D01*
X1713339Y2918323D02*
X1696678Y2934984D01*
X1663355D01*
X1646694Y2918323D01*
Y2851678D01*
X1663355Y2835016D01*
X1696678D01*
X1713339Y2851678D01*
X1813307Y2934984D02*
X1746661D01*
Y2885000D01*
X1779984Y2901661D01*
X1796645D01*
X1813307Y2885000D01*
Y2851678D01*
X1796645Y2835016D01*
X1763323D01*
X1746661Y2851678D01*
X1666677Y3623339D02*
X1650016Y3606678D01*
Y3573355D01*
X1666677Y3556694D01*
X1733322D01*
X1749984Y3573355D01*
Y3606678D01*
X1733322Y3623339D01*
X1749984Y3706646D02*
X1650016D01*
X1700000Y3656662D01*
Y3723307D01*
X1408339Y1863322D02*
X1391677Y1879984D01*
X1358355D01*
X1341694Y1863322D01*
Y1796677D01*
X1358355Y1780016D01*
X1391677D01*
X1408339Y1796677D01*
X1441661Y1863322D02*
X1458323Y1879984D01*
X1491645D01*
X1508306Y1863322D01*
Y1846661D01*
X1491645Y1830000D01*
X1474984D01*
X1491645D01*
X1508306Y1813339D01*
Y1796677D01*
X1491645Y1780016D01*
X1458323D01*
X1441661Y1796677D01*
X765000Y2035822D02*
X748339Y2052484D01*
X715016D01*
X698355Y2035822D01*
Y1969177D01*
X715016Y1952516D01*
X748339D01*
X765000Y1969177D01*
X798323Y1952516D02*
X831645D01*
X814984D01*
Y2052484D01*
X798323Y2035822D01*
X696338Y540984D02*
X663016D01*
X679677D01*
Y457677D01*
X663016Y441016D01*
X646355D01*
X629693Y457677D01*
X796306Y441016D02*
X729661D01*
X796306Y507661D01*
Y524322D01*
X779645Y540984D01*
X746323D01*
X729661Y524322D01*
D67*
X871500Y3404000D02*
G03*
X871500Y3394000I0J-5000D01*
G01*
D02*
G03*
X871500Y3404000I0J5000D01*
G01*
Y3394000D02*
G03*
X871500Y3404000I0J5000D01*
G01*
X2261900Y3869600D02*
G03*
X2371140Y3869600I54620J54620D01*
G01*
X1465320Y1077500D02*
G03*
X1574560Y1077500I54620J54620D01*
G01*
X1435000Y3492500D02*
G03*
X1435000Y3492500I-10000J0D01*
G01*
X2688798Y899998D02*
X2979999D01*
Y410002D02*
Y899998D01*
X2688798Y410002D02*
X2979999D01*
X2157781Y3869599D02*
X2261900D01*
X2371141D02*
X2475260D01*
X2477780Y2879598D02*
Y3869599D01*
X2157781Y2879598D02*
Y3869599D01*
Y2879598D02*
X2477780D01*
X1970278Y3886601D02*
X2122780D01*
X1173698Y1094501D02*
X1326200D01*
X1361201Y87498D02*
X1681201D01*
X1361201D02*
Y1077498D01*
X1681201Y87498D02*
Y1077498D01*
X1574561D02*
X1678681D01*
X1361201D02*
X1465321D01*
X1035000Y2129953D02*
X1584996D01*
Y2679954D01*
X1035000D02*
X1584996D01*
X1035000Y2129953D02*
Y2679954D01*
D68*
X3208800Y464500D02*
G03*
X3198800Y464500I-5000J0D01*
G01*
D02*
G03*
X3208800Y464500I5000J0D01*
G01*
X2430503Y134499D02*
Y844500D01*
X2270498Y134499D02*
X2430503D01*
X1910499Y844500D02*
X2430503D01*
X1910499Y134499D02*
Y844500D01*
Y134499D02*
X1970498D01*
X565004Y2955000D02*
X625004D01*
Y2244999D02*
Y2955000D01*
X105000Y2244999D02*
X625004D01*
X105000D02*
Y2955000D01*
X264999D01*
X815501Y955499D02*
Y1115499D01*
Y595500D02*
Y655500D01*
X105500Y595500D02*
Y1115499D01*
Y595500D02*
X815501D01*
X105500Y1115499D02*
X815501D01*
X105000Y2045000D02*
X264999D01*
X105000Y1334999D02*
Y2045000D01*
Y1334999D02*
X625004D01*
Y2045000D01*
X565004D02*
X625004D01*
D69*
X3492500Y3540000D02*
G03*
X3492500Y3540000I-12500J0D01*
G01*
X3522500Y1234840D02*
G03*
X3522500Y1234840I-12500J0D01*
G01*
X952499Y1982403D02*
G03*
X952499Y1982403I-12500J0D01*
G01*
X3522500Y2584840D02*
G03*
X3522500Y2584840I-12500J0D01*
G01*
D70*
X1144999Y2214952D02*
G03*
X1144999Y2214952I-25000J0D01*
G01*
D71*
X3474999Y3519998D02*
X3505002D01*
Y3537499D01*
X3195000Y3519998D02*
X3225002D01*
X3195000D02*
Y3537499D01*
X3490001Y1519839D02*
X3507501D01*
X3490001Y1489842D02*
Y1519839D01*
Y1209838D02*
X3507501D01*
X3490001D02*
Y1239840D01*
Y2559837D02*
X3507501D01*
X3490001Y2869839D02*
X3507501D01*
X3490001Y2839842D02*
Y2869839D01*
Y2559837D02*
Y2589840D01*
D72*
X845002Y3952499D02*
Y3982502D01*
X1605001Y3952499D02*
Y3982502D01*
X845002Y3692500D02*
Y3732500D01*
X1605001Y3692500D02*
Y3732500D01*
X845002Y3987500D02*
X1605001D01*
%TF.MD5,8401ece7451b919a902badfbf0340852*%
M02*
