%TF.GenerationSoftware,Altium Limited,Altium Designer,22.10.1 (41)*%
G04 Layer_Color=0*
%FSLAX45Y45*%
%MOMM*%
%TF.SameCoordinates,4984C9B7-3A7D-463B-8CDD-18E092C92588*%
%TF.FilePolarity,Positive*%
%TF.FileFunction,Plated,1,4,PTH,Drill*%
%TF.Part,Single*%
G01*
G75*
%TA.AperFunction,ComponentDrill*%
%ADD95C,0.80000*%
%ADD96C,0.80000*%
%ADD97O,0.50000X1.20000*%
%TA.AperFunction,ViaDrill,NotFilled*%
%ADD98C,0.20000*%
%ADD99C,0.30000*%
D95*
X2297498Y616500D02*
D03*
Y362500D02*
D03*
X2043498Y743500D02*
D03*
Y489500D02*
D03*
X491999Y2600000D02*
D03*
X237999Y2727000D02*
D03*
Y2473000D02*
D03*
X491999Y2346000D02*
D03*
X237999Y1817000D02*
D03*
X491999Y1690000D02*
D03*
X237999Y1563000D02*
D03*
X491999Y1436000D02*
D03*
D96*
X587500Y982500D02*
D03*
X333500D02*
D03*
X206500Y728500D02*
D03*
X460500D02*
D03*
D97*
X894999Y3842502D02*
D03*
X1554998D02*
D03*
D98*
X2617500Y947500D02*
D03*
X2750000Y3810000D02*
D03*
X2975000Y2662500D02*
D03*
X3025000Y3092500D02*
D03*
X2802500Y2222500D02*
D03*
X651500Y3399998D02*
D03*
X547500Y3300000D02*
D03*
X947546Y2056162D02*
D03*
X960000Y2127500D02*
D03*
X746248Y1572824D02*
D03*
X953075Y1757996D02*
D03*
X899502Y1540000D02*
D03*
X1607500Y1819245D02*
D03*
X1510000Y2780000D02*
D03*
X1589289Y2842639D02*
D03*
X1500000Y3150000D02*
D03*
X1420069Y2842639D02*
D03*
X912545Y2375116D02*
D03*
Y2295112D02*
D03*
Y2535124D02*
D03*
X1737585Y2135104D02*
D03*
X2742500Y1207500D02*
D03*
X1515374Y2271212D02*
D03*
X1178966Y2180001D02*
D03*
X3947500Y3499998D02*
D03*
Y3619998D02*
D03*
X3590000Y3380000D02*
D03*
X3010257Y1135202D02*
D03*
X3215000Y300000D02*
D03*
X3115000D02*
D03*
X3315000Y200000D02*
D03*
X3315000Y300465D02*
D03*
X3315000Y100000D02*
D03*
X3115000D02*
D03*
X3215000Y200000D02*
D03*
X3115000D02*
D03*
X3215000Y100000D02*
D03*
X3105713Y536000D02*
D03*
Y613500D02*
D03*
Y697500D02*
D03*
Y463500D02*
D03*
X3206785Y602500D02*
D03*
Y697500D02*
D03*
Y527500D02*
D03*
Y452500D02*
D03*
X3307857Y455000D02*
D03*
Y605000D02*
D03*
Y527500D02*
D03*
Y697500D02*
D03*
X3408928D02*
D03*
Y467500D02*
D03*
Y542500D02*
D03*
X3510000Y467500D02*
D03*
Y540000D02*
D03*
Y697500D02*
D03*
X3611072Y547500D02*
D03*
Y697500D02*
D03*
X3712143Y622500D02*
D03*
Y697500D02*
D03*
X3813215Y622500D02*
D03*
Y697500D02*
D03*
X3611072Y617500D02*
D03*
X3510000D02*
D03*
X3408928D02*
D03*
X3287502Y3745001D02*
D03*
X3205002D02*
D03*
X3479998Y3747501D02*
D03*
X3372500Y3745001D02*
D03*
X3712499Y1323333D02*
D03*
Y1230000D02*
D03*
Y1510000D02*
D03*
Y1416667D02*
D03*
X3475000Y1495000D02*
D03*
X3419998Y1562501D02*
D03*
X3290000Y2340000D02*
D03*
X3430200Y3450000D02*
D03*
X549998Y3189600D02*
D03*
X1780000Y3790000D02*
D03*
X969998Y1689997D02*
D03*
X1727998Y3030000D02*
D03*
X1454800Y2200001D02*
D03*
X1240000Y1300000D02*
D03*
X3902500Y1406666D02*
D03*
Y1313333D02*
D03*
Y1220000D02*
D03*
X3920000Y2570000D02*
D03*
Y2763333D02*
D03*
Y2860000D02*
D03*
Y2666666D02*
D03*
X3712999Y2610000D02*
D03*
Y2689168D02*
D03*
X3920000Y2110000D02*
D03*
X3090000Y1880000D02*
D03*
X1394927Y1182872D02*
D03*
X2960000Y1965000D02*
D03*
X2520000Y1730000D02*
D03*
X3430000Y2790000D02*
D03*
X3950000Y3950000D02*
D03*
Y3850000D02*
D03*
Y3750000D02*
D03*
X3955000Y730000D02*
D03*
X3330000Y3192500D02*
D03*
X3107500Y2845000D02*
D03*
X3127500Y2952500D02*
D03*
X2724799Y3434999D02*
D03*
X3417501Y3625000D02*
D03*
X3224256Y3489256D02*
D03*
X1435000Y757500D02*
D03*
X3580002Y1387786D02*
D03*
X2102500Y2660000D02*
D03*
X767540Y2190107D02*
D03*
X3902500Y1499999D02*
D03*
X3947500Y3359998D02*
D03*
X3294718Y1512781D02*
D03*
X1370000Y3285002D02*
D03*
X407500Y3132500D02*
D03*
X350000Y3292500D02*
D03*
X1594185Y2189505D02*
D03*
X819799Y1547500D02*
D03*
X3712999Y2768335D02*
D03*
X3477499Y1654998D02*
D03*
X3310001Y2622499D02*
D03*
X3457499Y3932499D02*
D03*
X3350001D02*
D03*
X3239999D02*
D03*
X2588981Y3692098D02*
D03*
Y2930098D02*
D03*
X1792402Y899998D02*
D03*
Y137998D02*
D03*
X3285002Y1425001D02*
D03*
X3712999Y2847503D02*
D03*
X2780000Y3559998D02*
D03*
X1370000Y2570002D02*
D03*
X1250000Y772998D02*
D03*
Y518998D02*
D03*
Y391998D02*
D03*
D99*
X567502Y3657498D02*
D03*
X722498D02*
D03*
X1737585Y2527623D02*
D03*
X1815536Y3199460D02*
D03*
X1210000Y1162500D02*
D03*
X1147500Y1295000D02*
D03*
X972002Y490002D02*
D03*
X1896949Y3577104D02*
D03*
X1210000Y1690000D02*
D03*
X1130000Y1540000D02*
D03*
X861830Y1849996D02*
D03*
X1110000Y1840000D02*
D03*
X3090000Y2017998D02*
D03*
X1985000Y964497D02*
D03*
X1250000Y899998D02*
D03*
X1039998D02*
D03*
X2046580Y3692098D02*
D03*
X722498Y3907500D02*
D03*
X572501D02*
D03*
X715000Y3530001D02*
D03*
X572501Y3527501D02*
D03*
X997499Y3302498D02*
D03*
X1737584Y2707630D02*
D03*
X3277499Y1062502D02*
D03*
X3102498Y845500D02*
D03*
X2750000Y3671997D02*
D03*
X1250000Y137998D02*
D03*
%TF.MD5,366933b464d0455a7d4ee026b26ea7d5*%
M02*
