%TF.GenerationSoftware,Altium Limited,Altium Designer,20.2.4 (192)*%
G04 Layer_Color=16711935*
%FSLAX45Y45*%
%MOMM*%
%TF.SameCoordinates,538F140D-ADF5-4649-B7F1-A5983F3DD12E*%
%TF.FilePolarity,Positive*%
%TF.FileFunction,Other,Top_Assembly*%
%TF.Part,Single*%
G01*
G75*
%TA.AperFunction,NonConductor*%
%ADD61C,0.20000*%
%ADD64C,0.10000*%
%ADD86C,0.05000*%
G36*
X2796287Y4591500D02*
X2759326D01*
X2759248D01*
X2758936D01*
X2758546D01*
X2758000D01*
X2757298Y4591422D01*
X2756441D01*
X2755583Y4591344D01*
X2754647D01*
X2752620Y4591110D01*
X2750592Y4590877D01*
X2748643Y4590487D01*
X2747785Y4590253D01*
X2747005Y4590019D01*
X2746927D01*
X2746849Y4589941D01*
X2746381Y4589707D01*
X2745602Y4589317D01*
X2744744Y4588771D01*
X2743808Y4588069D01*
X2742794Y4587134D01*
X2741781Y4586042D01*
X2740923Y4584716D01*
Y4584638D01*
X2740845Y4584560D01*
X2740767Y4584326D01*
X2740611Y4584014D01*
X2740221Y4583235D01*
X2739909Y4582143D01*
X2739519Y4580739D01*
X2739129Y4579180D01*
X2738895Y4577386D01*
X2738817Y4575437D01*
Y4574579D01*
X2738895Y4573877D01*
X2738973Y4573176D01*
X2739051Y4572240D01*
X2739207Y4571304D01*
X2739363Y4570290D01*
X2739831Y4568029D01*
X2740611Y4565846D01*
X2741079Y4564832D01*
X2741625Y4563818D01*
X2742326Y4562882D01*
X2743028Y4562103D01*
X2743106Y4562025D01*
X2743262Y4561947D01*
X2743496Y4561713D01*
X2743886Y4561479D01*
X2744354Y4561167D01*
X2744978Y4560855D01*
X2745758Y4560465D01*
X2746615Y4560075D01*
X2747707Y4559763D01*
X2748877Y4559373D01*
X2750202Y4559061D01*
X2751684Y4558750D01*
X2753321Y4558516D01*
X2755193Y4558282D01*
X2757142Y4558204D01*
X2759326Y4558126D01*
X2796287D01*
Y4549626D01*
X2759248D01*
X2759170D01*
X2758858D01*
X2758312D01*
X2757688D01*
X2756830Y4549704D01*
X2755895D01*
X2754803Y4549782D01*
X2753711Y4549938D01*
X2751216Y4550172D01*
X2748721Y4550562D01*
X2746147Y4551108D01*
X2744978Y4551498D01*
X2743886Y4551888D01*
X2743808D01*
X2743652Y4551965D01*
X2743340Y4552121D01*
X2742950Y4552277D01*
X2742482Y4552589D01*
X2741937Y4552901D01*
X2740611Y4553681D01*
X2739207Y4554773D01*
X2737648Y4556098D01*
X2736868Y4556956D01*
X2736088Y4557814D01*
X2735386Y4558750D01*
X2734685Y4559763D01*
Y4559841D01*
X2734529Y4559997D01*
X2734373Y4560309D01*
X2734139Y4560777D01*
X2733905Y4561401D01*
X2733593Y4562025D01*
X2733281Y4562882D01*
X2732969Y4563740D01*
X2732579Y4564754D01*
X2732267Y4565924D01*
X2731955Y4567171D01*
X2731721Y4568497D01*
X2731488Y4569900D01*
X2731332Y4571460D01*
X2731254Y4573020D01*
X2731176Y4574735D01*
Y4575593D01*
X2731254Y4576217D01*
Y4576996D01*
X2731332Y4577854D01*
X2731410Y4578868D01*
X2731566Y4579960D01*
X2731955Y4582299D01*
X2732423Y4584716D01*
X2733203Y4587212D01*
X2734217Y4589473D01*
Y4589551D01*
X2734373Y4589707D01*
X2734529Y4590019D01*
X2734763Y4590409D01*
X2735153Y4590877D01*
X2735542Y4591422D01*
X2736478Y4592592D01*
X2737804Y4593918D01*
X2739285Y4595321D01*
X2741157Y4596569D01*
X2743184Y4597583D01*
X2743262D01*
X2743496Y4597661D01*
X2743808Y4597817D01*
X2744276Y4597973D01*
X2744900Y4598128D01*
X2745602Y4598362D01*
X2746459Y4598596D01*
X2747395Y4598752D01*
X2748487Y4598986D01*
X2749734Y4599220D01*
X2751060Y4599454D01*
X2752464Y4599610D01*
X2754023Y4599766D01*
X2755661Y4599922D01*
X2757376Y4600000D01*
X2759248D01*
X2796287D01*
Y4591500D01*
D02*
G37*
G36*
X2780458Y4532627D02*
X2780614Y4532393D01*
X2780770Y4532081D01*
X2781004Y4531613D01*
X2781315Y4531067D01*
X2781627Y4530366D01*
X2782095Y4529664D01*
X2782563Y4528806D01*
X2783577Y4527013D01*
X2784902Y4525141D01*
X2786306Y4523114D01*
X2787866Y4521242D01*
X2787944Y4521164D01*
X2788100Y4521008D01*
X2788334Y4520774D01*
X2788645Y4520462D01*
X2789503Y4519605D01*
X2790595Y4518513D01*
X2791921Y4517421D01*
X2793402Y4516252D01*
X2794962Y4515160D01*
X2796521Y4514302D01*
Y4509156D01*
X2732267D01*
Y4517031D01*
X2782329D01*
X2782173Y4517187D01*
X2781861Y4517577D01*
X2781315Y4518201D01*
X2780614Y4519059D01*
X2779834Y4520150D01*
X2778898Y4521398D01*
X2777884Y4522880D01*
X2776871Y4524517D01*
Y4524595D01*
X2776715Y4524751D01*
X2776637Y4524985D01*
X2776403Y4525297D01*
X2775935Y4526155D01*
X2775311Y4527246D01*
X2774687Y4528572D01*
X2773986Y4529898D01*
X2773362Y4531301D01*
X2772816Y4532705D01*
X2780458D01*
Y4532627D01*
D02*
G37*
D61*
X3270311Y4079687D02*
Y5120310D01*
X2229693Y4079687D02*
X3270311D01*
X2229693D02*
Y5120310D01*
X3270311D01*
D64*
X1205001Y5027498D02*
Y5127498D01*
X1155004Y5077501D02*
X1255004D01*
X1799996Y5100005D02*
X1899996D01*
X1849999Y5050003D02*
Y5150002D01*
D86*
X1020003Y5270002D02*
X1390005D01*
X1020003Y4884999D02*
X1390005D01*
Y5270002D01*
X1020003Y4884999D02*
Y5270002D01*
X1664995Y4907504D02*
Y5292507D01*
X2034997Y4907504D02*
Y5292507D01*
X1664995Y4907504D02*
X2034997D01*
X1664995Y5292507D02*
X2034997D01*
%TF.MD5,f2700ab16e489d86d9356ff80a55441d*%
M02*
