%TF.GenerationSoftware,Altium Limited,Altium Designer,22.10.1 (41)*%
G04 Layer_Color=8388736*
%FSLAX45Y45*%
%MOMM*%
%TF.SameCoordinates,8F1E8784-786E-41FF-A270-8DB9F9DE2763*%
%TF.FilePolarity,Negative*%
%TF.FileFunction,Soldermask,Top*%
%TF.Part,Single*%
G01*
G75*
%TA.AperFunction,SMDPad,CuDef*%
G04:AMPARAMS|DCode=35|XSize=0.52583mm|YSize=1.65524mm|CornerRadius=0.26292mm|HoleSize=0mm|Usage=FLASHONLY|Rotation=90.000|XOffset=0mm|YOffset=0mm|HoleType=Round|Shape=RoundedRectangle|*
%AMROUNDEDRECTD35*
21,1,0.52583,1.12941,0,0,90.0*
21,1,0.00000,1.65524,0,0,90.0*
1,1,0.52583,0.56470,0.00000*
1,1,0.52583,0.56470,0.00000*
1,1,0.52583,-0.56470,0.00000*
1,1,0.52583,-0.56470,0.00000*
%
%ADD35ROUNDEDRECTD35*%
G04:AMPARAMS|DCode=36|XSize=1.65524mm|YSize=0.52583mm|CornerRadius=0.26292mm|HoleSize=0mm|Usage=FLASHONLY|Rotation=90.000|XOffset=0mm|YOffset=0mm|HoleType=Round|Shape=RoundedRectangle|*
%AMROUNDEDRECTD36*
21,1,1.65524,0.00000,0,0,90.0*
21,1,1.12941,0.52583,0,0,90.0*
1,1,0.52583,0.00000,0.56470*
1,1,0.52583,0.00000,-0.56470*
1,1,0.52583,0.00000,-0.56470*
1,1,0.52583,0.00000,0.56470*
%
%ADD36ROUNDEDRECTD36*%
%ADD37R,0.52583X1.65524*%
%ADD60R,1.09000X0.91000*%
%ADD61R,0.91000X1.09000*%
%TA.AperFunction,ComponentPad*%
%ADD62C,1.40000*%
%ADD63C,0.85000*%
%TA.AperFunction,WasherPad*%
%ADD64C,3.10000*%
%TA.AperFunction,SMDPad,CuDef*%
%ADD65C,3.10000*%
%TA.AperFunction,ComponentPad*%
%ADD66O,1.00000X1.90000*%
%TA.AperFunction,ConnectorPad*%
%ADD73R,2.89000X0.84000*%
%TA.AperFunction,SMDPad,CuDef*%
%ADD74R,1.10000X0.98900*%
%ADD75R,1.37000X1.49700*%
%ADD76R,1.25000X0.80000*%
%ADD77R,1.10000X0.80000*%
%ADD78R,1.60000X4.80000*%
%ADD79R,3.20000X4.30000*%
%ADD80R,3.10000X3.10000*%
%ADD81R,1.62500X0.75000*%
%ADD82R,1.11600X0.70000*%
%ADD83R,0.70000X1.11600*%
%ADD84R,3.10000X3.10000*%
%ADD85R,0.98900X1.10000*%
%ADD86R,2.00000X2.00000*%
%TA.AperFunction,ConnectorPad*%
%ADD87R,1.70000X1.50000*%
%ADD88R,0.50000X1.45000*%
%TA.AperFunction,ViaPad*%
%ADD89C,0.65320*%
G36*
X3437500Y3990000D02*
Y3905000D01*
X3485000D01*
Y3897500D01*
X3515000D01*
X3520000Y3892500D01*
Y3877500D01*
X3515000Y3872500D01*
X3485000D01*
Y3865000D01*
X3215000D01*
Y3872500D01*
X3185000Y3872500D01*
X3180000Y3877500D01*
Y3892500D01*
X3185000Y3897500D01*
X3215000D01*
Y3905000D01*
X3262500D01*
Y3990000D01*
X3267500Y3995000D01*
X3282500D01*
X3287500Y3990000D01*
Y3905000D01*
X3312500D01*
Y3990000D01*
X3317500Y3995000D01*
X3332500D01*
X3337500Y3990000D01*
Y3905000D01*
X3362500D01*
Y3990000D01*
X3367500Y3995000D01*
X3382500D01*
X3387500Y3990000D01*
Y3905000D01*
X3412500D01*
Y3990000D01*
X3417500Y3995000D01*
X3432500D01*
X3437500Y3990000D01*
D02*
G37*
G36*
X3484998Y3827502D02*
X3514998D01*
X3519998Y3822502D01*
Y3807502D01*
X3514998Y3802502D01*
X3484998Y3802502D01*
Y3795002D01*
X3367498D01*
X3362497Y3800002D01*
X3362498Y3830002D01*
X3367497Y3835002D01*
X3484998D01*
Y3827502D01*
D02*
G37*
G36*
X3337500Y3829998D02*
X3337500Y3799998D01*
X3332500Y3794999D01*
X3215000D01*
Y3802499D01*
X3185000D01*
X3180000Y3807499D01*
Y3822499D01*
X3185000Y3827498D01*
X3215000Y3827499D01*
Y3834998D01*
X3332500D01*
X3337500Y3829998D01*
D02*
G37*
G36*
X3485000Y3757500D02*
X3515000Y3757500D01*
X3520000Y3752500D01*
Y3737500D01*
X3515000Y3732500D01*
X3485000Y3732500D01*
Y3725000D01*
X3367500D01*
X3362500Y3730000D01*
X3362500Y3760000D01*
X3367500Y3765000D01*
X3485000D01*
Y3757500D01*
D02*
G37*
G36*
X3332500Y3764997D02*
X3337500Y3759997D01*
X3337500Y3729997D01*
X3332500Y3724997D01*
X3215000D01*
Y3732497D01*
X3185000D01*
X3180000Y3737497D01*
Y3752497D01*
X3185000Y3757497D01*
X3215000D01*
Y3764997D01*
X3332500Y3764997D01*
D02*
G37*
G36*
X3525000Y3695000D02*
Y3680000D01*
X3515000Y3670000D01*
X3465000D01*
X3455000Y3680000D01*
Y3695000D01*
X3465000Y3705000D01*
X3515000D01*
X3525000Y3695000D01*
D02*
G37*
G36*
X3245000D02*
Y3680000D01*
X3235000Y3670000D01*
X3185000D01*
X3175000Y3680000D01*
Y3695000D01*
X3185000Y3705000D01*
X3235000D01*
X3245000Y3695000D01*
D02*
G37*
G36*
X3525000Y3645000D02*
Y3630000D01*
X3515000Y3620000D01*
X3465000D01*
X3455000Y3630000D01*
Y3645000D01*
X3465000Y3655000D01*
X3515000D01*
X3525000Y3645000D01*
D02*
G37*
G36*
X3245000D02*
Y3630000D01*
X3235000Y3620000D01*
X3185000D01*
X3175000Y3630000D01*
Y3645000D01*
X3185000Y3655000D01*
X3235000D01*
X3245000Y3645000D01*
D02*
G37*
G36*
X3525000Y3595000D02*
Y3580000D01*
X3515000Y3570000D01*
X3465000D01*
X3455000Y3580000D01*
Y3595000D01*
X3465000Y3605000D01*
X3515000D01*
X3525000Y3595000D01*
D02*
G37*
G36*
X3245000D02*
Y3580000D01*
X3235000Y3570000D01*
X3185000D01*
X3175000Y3580000D01*
Y3595000D01*
X3185000Y3605000D01*
X3235000D01*
X3245000Y3595000D01*
D02*
G37*
G36*
X3442500Y3560000D02*
Y3510000D01*
X3432500Y3500000D01*
X3417500D01*
X3407500Y3510000D01*
Y3560000D01*
X3417500Y3570000D01*
X3432500D01*
X3442500Y3560000D01*
D02*
G37*
G36*
X3392500D02*
Y3510000D01*
X3382500Y3500000D01*
X3367500D01*
X3357500Y3510000D01*
Y3560000D01*
X3367500Y3570000D01*
X3382500D01*
X3392500Y3560000D01*
D02*
G37*
G36*
X3342500D02*
Y3510000D01*
X3332500Y3500000D01*
X3317500D01*
X3307500Y3510000D01*
Y3560000D01*
X3317500Y3570000D01*
X3332500D01*
X3342500Y3560000D01*
D02*
G37*
G36*
X3292500D02*
Y3510000D01*
X3282500Y3500000D01*
X3267500D01*
X3257500Y3510000D01*
Y3560000D01*
X3267500Y3570000D01*
X3282500D01*
X3292500Y3560000D01*
D02*
G37*
G36*
X3675000Y2879840D02*
Y2829840D01*
X3665000Y2819840D01*
X3650000D01*
X3640000Y2829840D01*
Y2879840D01*
X3650000Y2889840D01*
X3665000D01*
X3675000Y2879840D01*
D02*
G37*
G36*
X3625000D02*
Y2829840D01*
X3615000Y2819840D01*
X3600000D01*
X3590000Y2829840D01*
Y2879840D01*
X3600000Y2889840D01*
X3615000D01*
X3625000Y2879840D01*
D02*
G37*
G36*
X3575000D02*
Y2829840D01*
X3565000Y2819840D01*
X3550000D01*
X3540000Y2829840D01*
Y2879840D01*
X3550000Y2889840D01*
X3565000D01*
X3575000Y2879840D01*
D02*
G37*
G36*
X3540000Y2797340D02*
Y2782340D01*
X3530000Y2772340D01*
X3480000D01*
X3470000Y2782340D01*
Y2797340D01*
X3480000Y2807340D01*
X3530000D01*
X3540000Y2797340D01*
D02*
G37*
G36*
X3797498Y2879840D02*
X3797498Y2849840D01*
X3804998D01*
Y2732340D01*
X3799998Y2727339D01*
X3769998Y2727340D01*
X3764998Y2732339D01*
Y2849840D01*
X3772498D01*
Y2879840D01*
X3777498Y2884840D01*
X3792498D01*
X3797498Y2879840D01*
D02*
G37*
G36*
X3727497D02*
Y2849840D01*
X3734997D01*
X3734997Y2732340D01*
X3729997Y2727339D01*
X3699997Y2727340D01*
X3694997Y2732339D01*
Y2849840D01*
X3702497D01*
Y2879840D01*
X3707497Y2884840D01*
X3722497D01*
X3727497Y2879840D01*
D02*
G37*
G36*
X3540000Y2747340D02*
Y2732340D01*
X3530000Y2722340D01*
X3480000D01*
X3470000Y2732340D01*
Y2747340D01*
X3480000Y2757340D01*
X3530000D01*
X3540000Y2747340D01*
D02*
G37*
G36*
Y2697340D02*
Y2682340D01*
X3530000Y2672340D01*
X3480000D01*
X3470000Y2682340D01*
Y2697340D01*
X3480000Y2707340D01*
X3530000D01*
X3540000Y2697340D01*
D02*
G37*
G36*
Y2647340D02*
Y2632340D01*
X3530000Y2622340D01*
X3480000D01*
X3470000Y2632340D01*
Y2647340D01*
X3480000Y2657340D01*
X3530000D01*
X3540000Y2647340D01*
D02*
G37*
G36*
X3800002Y2702342D02*
X3805002Y2697342D01*
Y2579842D01*
X3797501D01*
Y2549842D01*
X3792501Y2544842D01*
X3777501D01*
X3772502Y2549842D01*
X3772501Y2579842D01*
X3765002D01*
Y2697342D01*
X3770002Y2702342D01*
X3800002Y2702342D01*
D02*
G37*
G36*
X3867500Y2879840D02*
Y2849840D01*
X3875000D01*
Y2802340D01*
X3960000D01*
X3965000Y2797340D01*
Y2782340D01*
X3960000Y2777340D01*
X3875000D01*
Y2752340D01*
X3960000D01*
X3965000Y2747340D01*
Y2732340D01*
X3960000Y2727340D01*
X3875000D01*
Y2702340D01*
X3960000D01*
X3965000Y2697340D01*
Y2682340D01*
X3960000Y2677340D01*
X3875000D01*
Y2652340D01*
X3960000D01*
X3965000Y2647340D01*
Y2632340D01*
X3960000Y2627340D01*
X3875000D01*
Y2579840D01*
X3867500D01*
Y2549840D01*
X3862500Y2544840D01*
X3847500D01*
X3842500Y2549840D01*
Y2579840D01*
X3835000D01*
Y2849840D01*
X3842500D01*
X3842500Y2879840D01*
X3847500Y2884840D01*
X3862500D01*
X3867500Y2879840D01*
D02*
G37*
G36*
X3730000Y2702340D02*
X3735000Y2697340D01*
Y2579840D01*
X3727500D01*
X3727500Y2549840D01*
X3722500Y2544840D01*
X3707500D01*
X3702500Y2549840D01*
X3702500Y2579840D01*
X3695000D01*
Y2697340D01*
X3700000Y2702340D01*
X3730000Y2702340D01*
D02*
G37*
G36*
X3675000Y2599840D02*
Y2549840D01*
X3665000Y2539840D01*
X3650000D01*
X3640000Y2549840D01*
Y2599840D01*
X3650000Y2609840D01*
X3665000D01*
X3675000Y2599840D01*
D02*
G37*
G36*
X3625000D02*
Y2549840D01*
X3615000Y2539840D01*
X3600000D01*
X3590000Y2549840D01*
Y2599840D01*
X3600000Y2609840D01*
X3615000D01*
X3625000Y2599840D01*
D02*
G37*
G36*
X3575000D02*
Y2549840D01*
X3565000Y2539840D01*
X3550000D01*
X3540000Y2549840D01*
Y2599840D01*
X3550000Y2609840D01*
X3565000D01*
X3575000Y2599840D01*
D02*
G37*
G36*
X3675000Y1529839D02*
Y1479840D01*
X3665000Y1469840D01*
X3650000D01*
X3640000Y1479840D01*
Y1529839D01*
X3650000Y1539839D01*
X3665000D01*
X3675000Y1529839D01*
D02*
G37*
G36*
X3625000D02*
Y1479840D01*
X3615000Y1469840D01*
X3600000D01*
X3590000Y1479840D01*
Y1529839D01*
X3600000Y1539839D01*
X3615000D01*
X3625000Y1529839D01*
D02*
G37*
G36*
X3575000D02*
Y1479840D01*
X3565000Y1469840D01*
X3550000D01*
X3540000Y1479840D01*
Y1529839D01*
X3550000Y1539839D01*
X3565000D01*
X3575000Y1529839D01*
D02*
G37*
G36*
X3540000Y1447339D02*
Y1432340D01*
X3530000Y1422340D01*
X3480000D01*
X3470000Y1432340D01*
Y1447339D01*
X3480000Y1457339D01*
X3530000D01*
X3540000Y1447339D01*
D02*
G37*
G36*
X3797498Y1529839D02*
X3797499Y1499840D01*
X3804998D01*
Y1382340D01*
X3799998Y1377339D01*
X3769999Y1377340D01*
X3764999Y1382339D01*
Y1499840D01*
X3772499D01*
Y1529839D01*
X3777499Y1534839D01*
X3792499D01*
X3797498Y1529839D01*
D02*
G37*
G36*
X3727497D02*
Y1499840D01*
X3734997D01*
X3734997Y1382340D01*
X3729997Y1377339D01*
X3699997Y1377340D01*
X3694997Y1382339D01*
Y1499840D01*
X3702497D01*
Y1529839D01*
X3707497Y1534839D01*
X3722497D01*
X3727497Y1529839D01*
D02*
G37*
G36*
X3540000Y1397340D02*
Y1382340D01*
X3530000Y1372340D01*
X3480000D01*
X3470000Y1382340D01*
Y1397340D01*
X3480000Y1407340D01*
X3530000D01*
X3540000Y1397340D01*
D02*
G37*
G36*
Y1347339D02*
Y1332339D01*
X3530000Y1322339D01*
X3480000D01*
X3470000Y1332339D01*
Y1347339D01*
X3480000Y1357339D01*
X3530000D01*
X3540000Y1347339D01*
D02*
G37*
G36*
Y1297340D02*
Y1282340D01*
X3530000Y1272340D01*
X3480000D01*
X3470000Y1282340D01*
Y1297340D01*
X3480000Y1307340D01*
X3530000D01*
X3540000Y1297340D01*
D02*
G37*
G36*
X3800002Y1352342D02*
X3805002Y1347342D01*
Y1229842D01*
X3797502D01*
Y1199842D01*
X3792502Y1194842D01*
X3777502D01*
X3772502Y1199842D01*
X3772502Y1229842D01*
X3765002D01*
Y1347342D01*
X3770002Y1352342D01*
X3800002Y1352342D01*
D02*
G37*
G36*
X3867500Y1529839D02*
Y1499840D01*
X3875000D01*
Y1452339D01*
X3960000D01*
X3965000Y1447339D01*
Y1432340D01*
X3960000Y1427340D01*
X3875000D01*
Y1402340D01*
X3960000D01*
X3965000Y1397340D01*
Y1382340D01*
X3960000Y1377340D01*
X3875000D01*
Y1352339D01*
X3960000D01*
X3965000Y1347339D01*
Y1332339D01*
X3960000Y1327339D01*
X3875000D01*
Y1302340D01*
X3960000D01*
X3965000Y1297340D01*
Y1282340D01*
X3960000Y1277340D01*
X3875000D01*
Y1229840D01*
X3867500D01*
Y1199840D01*
X3862500Y1194840D01*
X3847500D01*
X3842500Y1199840D01*
Y1229840D01*
X3835000D01*
Y1499840D01*
X3842500D01*
X3842500Y1529839D01*
X3847500Y1534839D01*
X3862500D01*
X3867500Y1529839D01*
D02*
G37*
G36*
X3730000Y1352339D02*
X3735000Y1347340D01*
Y1229840D01*
X3727500D01*
X3727500Y1199840D01*
X3722500Y1194840D01*
X3707500D01*
X3702500Y1199840D01*
X3702500Y1229840D01*
X3695000D01*
Y1347339D01*
X3700000Y1352340D01*
X3730000Y1352339D01*
D02*
G37*
G36*
X3675000Y1249840D02*
Y1199840D01*
X3665000Y1189840D01*
X3650000D01*
X3640000Y1199840D01*
Y1249840D01*
X3650000Y1259839D01*
X3665000D01*
X3675000Y1249840D01*
D02*
G37*
G36*
X3625000D02*
Y1199840D01*
X3615000Y1189840D01*
X3600000D01*
X3590000Y1199840D01*
Y1249840D01*
X3600000Y1259839D01*
X3615000D01*
X3625000Y1249840D01*
D02*
G37*
G36*
X3575000D02*
Y1199840D01*
X3565000Y1189840D01*
X3550000D01*
X3540000Y1199840D01*
Y1249840D01*
X3550000Y1259839D01*
X3565000D01*
X3575000Y1249840D01*
D02*
G37*
G36*
X2893479Y354928D02*
X2894421Y354642D01*
X2895290Y354177D01*
X2896052Y353553D01*
X2896676Y352791D01*
X2897141Y351923D01*
X2897427Y350980D01*
X2897523Y350000D01*
Y50000D01*
X2897427Y49020D01*
X2897141Y48078D01*
X2896676Y47209D01*
X2896052Y46447D01*
X2895290Y45823D01*
X2894421Y45359D01*
X2893479Y45073D01*
X2892499Y44976D01*
X2592499D01*
X2591519Y45073D01*
X2590576Y45359D01*
X2589708Y45823D01*
X2588946Y46447D01*
X2588322Y47209D01*
X2587857Y48078D01*
X2587571Y49020D01*
X2587475Y50000D01*
Y350000D01*
X2587571Y350980D01*
X2587857Y351923D01*
X2588322Y352791D01*
X2588946Y353553D01*
X2589708Y354177D01*
X2590576Y354642D01*
X2591519Y354928D01*
X2592499Y355024D01*
X2892499D01*
X2893479Y354928D01*
D02*
G37*
D35*
X897449Y2124954D02*
D03*
Y2204954D02*
D03*
Y2284954D02*
D03*
Y2364953D02*
D03*
Y2444953D02*
D03*
Y2524953D02*
D03*
Y2604953D02*
D03*
Y2684953D02*
D03*
X1722547D02*
D03*
Y2604953D02*
D03*
Y2524953D02*
D03*
Y2444953D02*
D03*
Y2364953D02*
D03*
Y2284954D02*
D03*
Y2204954D02*
D03*
Y2124954D02*
D03*
D36*
X1029996Y2817500D02*
D03*
X1109996D02*
D03*
X1189996D02*
D03*
X1270001D02*
D03*
X1350001D02*
D03*
X1430000D02*
D03*
X1510000D02*
D03*
X1590000D02*
D03*
Y1992406D02*
D03*
X1510000D02*
D03*
X1430000D02*
D03*
X1350001D02*
D03*
X1270001D02*
D03*
X1189996D02*
D03*
X1109996D02*
D03*
D37*
X1029996D02*
D03*
D60*
X2750000Y3810000D02*
D03*
Y3671997D02*
D03*
X1985000Y1102500D02*
D03*
Y964497D02*
D03*
X1896949Y3577104D02*
D03*
Y3715108D02*
D03*
X3090000Y2017998D02*
D03*
Y1880000D02*
D03*
X1925000Y2663002D02*
D03*
Y2524999D02*
D03*
X2520000Y1868003D02*
D03*
Y1730000D02*
D03*
X1039998Y1038001D02*
D03*
Y899998D02*
D03*
D61*
X1212998Y1157500D02*
D03*
X1075000D02*
D03*
X1210000Y1690000D02*
D03*
X1072002D02*
D03*
X1110000Y1840000D02*
D03*
X1248003D02*
D03*
X977742Y1849996D02*
D03*
X839743D02*
D03*
X1590000Y3030000D02*
D03*
X1727998D02*
D03*
D62*
X2297498Y616500D02*
D03*
Y362500D02*
D03*
X2043498Y743500D02*
D03*
Y489500D02*
D03*
X491999Y2600000D02*
D03*
X237999Y2727000D02*
D03*
Y2473000D02*
D03*
X491999Y2346000D02*
D03*
X587500Y982500D02*
D03*
X333500D02*
D03*
X206500Y728500D02*
D03*
X460500D02*
D03*
X237999Y1817000D02*
D03*
X491999Y1690000D02*
D03*
X237999Y1563000D02*
D03*
X491999Y1436000D02*
D03*
D63*
X2117498Y222500D02*
D03*
X417999Y2867000D02*
D03*
X727500Y802500D02*
D03*
X417999Y1957000D02*
D03*
D64*
X299999Y299999D02*
D03*
X3699998D02*
D03*
D65*
X299999D02*
D03*
D66*
X894999Y3842502D02*
D03*
X1554998D02*
D03*
D73*
X651500Y3526998D02*
D03*
Y3780998D02*
D03*
Y3907998D02*
D03*
Y3653998D02*
D03*
Y3399998D02*
D03*
X244500Y3526998D02*
D03*
Y3780998D02*
D03*
Y3907998D02*
D03*
Y3653998D02*
D03*
Y3399998D02*
D03*
D74*
X1500000Y3150000D02*
D03*
Y3304940D02*
D03*
X3592500Y3382500D02*
D03*
Y3537440D02*
D03*
X3465000Y3195060D02*
D03*
Y3350000D02*
D03*
X3330000Y3192500D02*
D03*
Y3347440D02*
D03*
X3310001Y2777439D02*
D03*
Y2622499D02*
D03*
D75*
X1795000Y3416100D02*
D03*
Y3187500D02*
D03*
D76*
X3102498Y464500D02*
D03*
Y591500D02*
D03*
Y845500D02*
D03*
D77*
Y718500D02*
D03*
D78*
X2555001Y655000D02*
D03*
D79*
X2784998D02*
D03*
D80*
X3850000Y2349998D02*
D03*
X3847501Y1722501D02*
D03*
X3850000Y999998D02*
D03*
Y3075000D02*
D03*
D81*
X2588981Y3692098D02*
D03*
Y3565098D02*
D03*
Y3819098D02*
D03*
Y3311098D02*
D03*
Y3438098D02*
D03*
Y3184098D02*
D03*
Y2930098D02*
D03*
Y3057098D02*
D03*
X2046580Y3311098D02*
D03*
Y3438098D02*
D03*
Y3819098D02*
D03*
Y3565098D02*
D03*
Y3692098D02*
D03*
Y2930098D02*
D03*
Y3057098D02*
D03*
Y3184098D02*
D03*
X1250000Y391998D02*
D03*
Y264998D02*
D03*
Y137998D02*
D03*
Y899998D02*
D03*
Y772998D02*
D03*
Y1026998D02*
D03*
Y645998D02*
D03*
Y518998D02*
D03*
X1792402Y264998D02*
D03*
Y137998D02*
D03*
Y391998D02*
D03*
Y645998D02*
D03*
Y518998D02*
D03*
Y1026998D02*
D03*
Y772998D02*
D03*
Y899998D02*
D03*
D82*
X2710000Y1870000D02*
D03*
Y2060000D02*
D03*
X2960000D02*
D03*
Y1965000D02*
D03*
Y1870000D02*
D03*
X1125002Y3399998D02*
D03*
Y3305002D02*
D03*
Y3210001D02*
D03*
X1374999D02*
D03*
Y3399998D02*
D03*
D83*
X1050000Y1550000D02*
D03*
X1240000D02*
D03*
Y1300000D02*
D03*
X1145000D02*
D03*
X1050000D02*
D03*
D84*
X2999999Y3850000D02*
D03*
X3725000D02*
D03*
X3215000Y200000D02*
D03*
D85*
X3420000Y1190000D02*
D03*
X3265060D02*
D03*
X3432439Y1062502D02*
D03*
X3277499D02*
D03*
X3477499Y1654998D02*
D03*
X3322559D02*
D03*
X3292560Y2345000D02*
D03*
X3447500D02*
D03*
X3452500Y2469998D02*
D03*
X3297560D02*
D03*
D86*
X1105002Y3842502D02*
D03*
X1345001D02*
D03*
D87*
X905002Y3597499D02*
D03*
X1545001D02*
D03*
D88*
X1094999Y3574999D02*
D03*
X1159998D02*
D03*
X1225001D02*
D03*
X1290000D02*
D03*
X1354999D02*
D03*
D89*
X3215000Y300000D02*
D03*
X3115000D02*
D03*
X3315000Y200000D02*
D03*
X3315000Y300465D02*
D03*
X3315000Y100000D02*
D03*
X3115000D02*
D03*
X3215000Y200000D02*
D03*
X3115000D02*
D03*
X3215000Y100000D02*
D03*
X3457499Y3932499D02*
D03*
X3350001D02*
D03*
X3239999D02*
D03*
%TF.MD5,8c05173113e292120b4ab615b31c5f57*%
M02*
