%TF.GenerationSoftware,Altium Limited,Altium Designer,20.2.4 (192)*%
G04 Layer_Color=32896*
%FSLAX45Y45*%
%MOMM*%
%TF.SameCoordinates,538F140D-ADF5-4649-B7F1-A5983F3DD12E*%
%TF.FilePolarity,Positive*%
%TF.FileFunction,Legend,Bot*%
%TF.Part,Single*%
G01*
G75*
%TA.AperFunction,NonConductor*%
%ADD49C,0.20320*%
%ADD50C,0.25400*%
D49*
X4281277Y3647460D02*
Y3667780D01*
X4189837Y3647460D02*
Y3667780D01*
X3918722Y1182218D02*
Y1202538D01*
X4010162Y1182218D02*
Y1202538D01*
X1181278Y1397462D02*
Y1417782D01*
X1089838Y1397462D02*
Y1417782D01*
X2301733Y2231019D02*
X2398253D01*
X2531283Y3347461D02*
Y3367781D01*
X2439843Y3347461D02*
Y3367781D01*
X2104278Y3709843D02*
Y3730163D01*
X2195718Y3709843D02*
Y3730163D01*
X1501734Y3369020D02*
X1598254D01*
X1451747Y3868984D02*
X1548267D01*
X3601740Y4069024D02*
X3698260D01*
X3481278Y2197461D02*
Y2217781D01*
X3389838Y2197461D02*
Y2217781D01*
X3960160Y2182221D02*
Y2202541D01*
X3868720Y2182221D02*
Y2202541D01*
X4318721Y2182221D02*
Y2202541D01*
X4410161Y2182221D02*
Y2202541D01*
X4451751Y4618721D02*
X4548271D01*
X954278Y2659842D02*
Y2680162D01*
X1045718Y2659842D02*
Y2680162D01*
X3319023Y3751748D02*
Y3848268D01*
X2981025Y3901745D02*
Y3998265D01*
X4260159Y4082217D02*
Y4102537D01*
X4168719Y4082217D02*
Y4102537D01*
X1754281Y2859842D02*
Y2880162D01*
X1845721Y2859842D02*
Y2880162D01*
X1201735Y4481017D02*
X1298255D01*
X954278Y1919844D02*
Y1940164D01*
X1045718Y1919844D02*
Y1940164D01*
X1789836Y997463D02*
Y1017783D01*
X1881276Y997463D02*
Y1017783D01*
X1654282Y2309840D02*
Y2330160D01*
X1745722Y2309840D02*
Y2330160D01*
X2201733Y2731018D02*
X2298253D01*
X3601745Y1580977D02*
X3698265D01*
X4501733Y981024D02*
X4598253D01*
X2554280Y1609842D02*
Y1630162D01*
X2645720Y1609842D02*
Y1630162D01*
X2039844Y1647459D02*
Y1667779D01*
X2131284Y1647459D02*
Y1667779D01*
D50*
X3004282Y2171258D02*
X3095722D01*
X3776198Y3085597D02*
Y3138099D01*
X3646658Y3087299D02*
Y3139801D01*
X2933959Y3074599D02*
Y3127101D01*
X3063499Y3072897D02*
Y3125399D01*
X3453338Y3060197D02*
Y3112699D01*
X3323798Y3061899D02*
Y3114401D01*
X4653341Y3060197D02*
Y3112699D01*
X4523801Y3061899D02*
Y3114401D01*
X4046662Y3087299D02*
Y3139801D01*
X4176202Y3085597D02*
Y3138099D01*
X4386580Y3347720D02*
Y3500071D01*
X4310405D01*
X4285013Y3474679D01*
Y3423895D01*
X4310405Y3398503D01*
X4386580D01*
X4335797D02*
X4285013Y3347720D01*
X4234229D02*
X4183446D01*
X4208837D01*
Y3500071D01*
X4234229Y3474679D01*
X4107270Y3347720D02*
X4056487D01*
X4081879D01*
Y3500071D01*
X4107270Y3474679D01*
X3226959Y2323825D02*
Y2476175D01*
X3150783D01*
X3125392Y2450784D01*
Y2400000D01*
X3150783Y2374608D01*
X3226959D01*
X3176175D02*
X3125392Y2323825D01*
X3074608Y2450784D02*
X3049216Y2476175D01*
X2998433D01*
X2973041Y2450784D01*
Y2425392D01*
X2998433Y2400000D01*
X2973041Y2374608D01*
Y2349217D01*
X2998433Y2323825D01*
X3049216D01*
X3074608Y2349217D01*
Y2374608D01*
X3049216Y2400000D01*
X3074608Y2425392D01*
Y2450784D01*
X3049216Y2400000D02*
X2998433D01*
X4782820Y3322320D02*
Y3474671D01*
X4706645D01*
X4681253Y3449279D01*
Y3398495D01*
X4706645Y3373103D01*
X4782820D01*
X4732037D02*
X4681253Y3322320D01*
X4630469Y3474671D02*
X4528902D01*
Y3449279D01*
X4630469Y3347712D01*
Y3322320D01*
X3197860Y3335020D02*
Y3487371D01*
X3121685D01*
X3096293Y3461979D01*
Y3411195D01*
X3121685Y3385803D01*
X3197860D01*
X3147077D02*
X3096293Y3335020D01*
X3045509Y3461979D02*
X3020117Y3487371D01*
X2969334D01*
X2943942Y3461979D01*
Y3436587D01*
X2969334Y3411195D01*
X2994726D01*
X2969334D01*
X2943942Y3385803D01*
Y3360412D01*
X2969334Y3335020D01*
X3020117D01*
X3045509Y3360412D01*
X3909060Y3347720D02*
Y3500071D01*
X3832885D01*
X3807493Y3474679D01*
Y3423895D01*
X3832885Y3398503D01*
X3909060D01*
X3858277D02*
X3807493Y3347720D01*
X3655142D02*
X3756709D01*
X3655142Y3449287D01*
Y3474679D01*
X3680534Y3500071D01*
X3731317D01*
X3756709Y3474679D01*
X3533140Y3322320D02*
Y3474671D01*
X3456965D01*
X3431573Y3449279D01*
Y3398495D01*
X3456965Y3373103D01*
X3533140D01*
X3482357D02*
X3431573Y3322320D01*
X3380789D02*
X3330006D01*
X3355397D01*
Y3474671D01*
X3380789Y3449279D01*
X2548433Y2449216D02*
X2523041Y2423824D01*
X2472258D01*
X2446866Y2449216D01*
Y2550783D01*
X2472258Y2576175D01*
X2523041D01*
X2548433Y2550783D01*
X2599217Y2449216D02*
X2624608Y2423824D01*
X2675392D01*
X2700784Y2449216D01*
Y2474608D01*
X2675392Y2500000D01*
X2650000D01*
X2675392D01*
X2700784Y2525391D01*
Y2550783D01*
X2675392Y2576175D01*
X2624608D01*
X2599217Y2550783D01*
X2853135Y2423824D02*
X2802351Y2449216D01*
X2751567Y2500000D01*
Y2550783D01*
X2776959Y2576175D01*
X2827743D01*
X2853135Y2550783D01*
Y2525391D01*
X2827743Y2500000D01*
X2751567D01*
X3919253Y1904959D02*
X3944645Y1930351D01*
X3995428D01*
X4020820Y1904959D01*
Y1803392D01*
X3995428Y1778000D01*
X3944645D01*
X3919253Y1803392D01*
X3868469Y1904959D02*
X3843077Y1930351D01*
X3792294D01*
X3766902Y1904959D01*
Y1879567D01*
X3792294Y1854175D01*
X3817686D01*
X3792294D01*
X3766902Y1828783D01*
Y1803392D01*
X3792294Y1778000D01*
X3843077D01*
X3868469Y1803392D01*
X3614551Y1930351D02*
X3716119D01*
Y1854175D01*
X3665335Y1879567D01*
X3639943D01*
X3614551Y1854175D01*
Y1803392D01*
X3639943Y1778000D01*
X3690727D01*
X3716119Y1803392D01*
X1521493Y4803099D02*
X1546885Y4828491D01*
X1597668D01*
X1623060Y4803099D01*
Y4701532D01*
X1597668Y4676140D01*
X1546885D01*
X1521493Y4701532D01*
X1470709Y4803099D02*
X1445317Y4828491D01*
X1394534D01*
X1369142Y4803099D01*
Y4777707D01*
X1394534Y4752315D01*
X1419926D01*
X1394534D01*
X1369142Y4726923D01*
Y4701532D01*
X1394534Y4676140D01*
X1445317D01*
X1470709Y4701532D01*
X1242183Y4676140D02*
Y4828491D01*
X1318359Y4752315D01*
X1216791D01*
X2751567Y3700784D02*
X2776959Y3726175D01*
X2827742D01*
X2853134Y3700784D01*
Y3599217D01*
X2827742Y3573825D01*
X2776959D01*
X2751567Y3599217D01*
X2700784Y3700784D02*
X2675392Y3726175D01*
X2624608D01*
X2599216Y3700784D01*
Y3675392D01*
X2624608Y3650000D01*
X2650000D01*
X2624608D01*
X2599216Y3624608D01*
Y3599217D01*
X2624608Y3573825D01*
X2675392D01*
X2700784Y3599217D01*
X2446866Y3573825D02*
X2548433D01*
X2446866Y3675392D01*
Y3700784D01*
X2472257Y3726175D01*
X2523041D01*
X2548433Y3700784D01*
X1221773Y2268179D02*
X1247165Y2293571D01*
X1297948D01*
X1323340Y2268179D01*
Y2166612D01*
X1297948Y2141220D01*
X1247165D01*
X1221773Y2166612D01*
X1170989Y2268179D02*
X1145597Y2293571D01*
X1094814D01*
X1069422Y2268179D01*
Y2242787D01*
X1094814Y2217395D01*
X1120206D01*
X1094814D01*
X1069422Y2192003D01*
Y2166612D01*
X1094814Y2141220D01*
X1145597D01*
X1170989Y2166612D01*
X1018639Y2141220D02*
X967855D01*
X993247D01*
Y2293571D01*
X1018639Y2268179D01*
X1451567Y1850783D02*
X1476959Y1876175D01*
X1527742D01*
X1553134Y1850783D01*
Y1749216D01*
X1527742Y1723825D01*
X1476959D01*
X1451567Y1749216D01*
X1400784Y1850783D02*
X1375392Y1876175D01*
X1324608D01*
X1299216Y1850783D01*
Y1825392D01*
X1324608Y1800000D01*
X1350000D01*
X1324608D01*
X1299216Y1774608D01*
Y1749216D01*
X1324608Y1723825D01*
X1375392D01*
X1400784Y1749216D01*
X1248433Y1850783D02*
X1223041Y1876175D01*
X1172257D01*
X1146866Y1850783D01*
Y1749216D01*
X1172257Y1723825D01*
X1223041D01*
X1248433Y1749216D01*
Y1850783D01*
X2108233Y1346159D02*
X2133625Y1371551D01*
X2184408D01*
X2209800Y1346159D01*
Y1244592D01*
X2184408Y1219200D01*
X2133625D01*
X2108233Y1244592D01*
X1955882Y1219200D02*
X2057449D01*
X1955882Y1320767D01*
Y1346159D01*
X1981274Y1371551D01*
X2032057D01*
X2057449Y1346159D01*
X1905099Y1244592D02*
X1879707Y1219200D01*
X1828923D01*
X1803531Y1244592D01*
Y1346159D01*
X1828923Y1371551D01*
X1879707D01*
X1905099Y1346159D01*
Y1320767D01*
X1879707Y1295375D01*
X1803531D01*
X1973613Y2659339D02*
X1999005Y2684731D01*
X2049788D01*
X2075180Y2659339D01*
Y2557772D01*
X2049788Y2532380D01*
X1999005D01*
X1973613Y2557772D01*
X1821262Y2532380D02*
X1922829D01*
X1821262Y2633947D01*
Y2659339D01*
X1846654Y2684731D01*
X1897437D01*
X1922829Y2659339D01*
X1770479D02*
X1745087Y2684731D01*
X1694303D01*
X1668911Y2659339D01*
Y2633947D01*
X1694303Y2608555D01*
X1668911Y2583163D01*
Y2557772D01*
X1694303Y2532380D01*
X1745087D01*
X1770479Y2557772D01*
Y2583163D01*
X1745087Y2608555D01*
X1770479Y2633947D01*
Y2659339D01*
X1745087Y2608555D02*
X1694303D01*
X4099217Y2251567D02*
X4073825Y2276959D01*
Y2327742D01*
X4099217Y2353134D01*
X4200784D01*
X4226175Y2327742D01*
Y2276959D01*
X4200784Y2251567D01*
X4226175Y2099216D02*
Y2200784D01*
X4124608Y2099216D01*
X4099217D01*
X4073825Y2124608D01*
Y2175392D01*
X4099217Y2200784D01*
X4073825Y2048433D02*
Y1946866D01*
X4099217D01*
X4200784Y2048433D01*
X4226175D01*
X2072673Y3207979D02*
X2098065Y3233371D01*
X2148848D01*
X2174240Y3207979D01*
Y3106412D01*
X2148848Y3081020D01*
X2098065D01*
X2072673Y3106412D01*
X1920322Y3081020D02*
X2021889D01*
X1920322Y3182587D01*
Y3207979D01*
X1945714Y3233371D01*
X1996497D01*
X2021889Y3207979D01*
X1767971Y3233371D02*
X1869539D01*
Y3157195D01*
X1818755Y3182587D01*
X1793363D01*
X1767971Y3157195D01*
Y3106412D01*
X1793363Y3081020D01*
X1844147D01*
X1869539Y3106412D01*
X1272573Y3007319D02*
X1297965Y3032711D01*
X1348748D01*
X1374140Y3007319D01*
Y2905752D01*
X1348748Y2880360D01*
X1297965D01*
X1272573Y2905752D01*
X1120222Y2880360D02*
X1221789D01*
X1120222Y2981927D01*
Y3007319D01*
X1145614Y3032711D01*
X1196397D01*
X1221789Y3007319D01*
X993263Y2880360D02*
Y3032711D01*
X1069439Y2956535D01*
X967871D01*
X4201567Y1550784D02*
X4226959Y1576175D01*
X4277742D01*
X4303134Y1550784D01*
Y1449217D01*
X4277742Y1423825D01*
X4226959D01*
X4201567Y1449217D01*
X4049216Y1423825D02*
X4150783D01*
X4049216Y1525392D01*
Y1550784D01*
X4074608Y1576175D01*
X4125392D01*
X4150783Y1550784D01*
X3896865Y1423825D02*
X3998433D01*
X3896865Y1525392D01*
Y1550784D01*
X3922257Y1576175D01*
X3973041D01*
X3998433Y1550784D01*
X4176175Y2550784D02*
X4201567Y2576175D01*
X4252350D01*
X4277742Y2550784D01*
Y2449217D01*
X4252350Y2423825D01*
X4201567D01*
X4176175Y2449217D01*
X4023824Y2423825D02*
X4125392D01*
X4023824Y2525392D01*
Y2550784D01*
X4049216Y2576175D01*
X4100000D01*
X4125392Y2550784D01*
X3973041Y2423825D02*
X3922257D01*
X3947649D01*
Y2576175D01*
X3973041Y2550784D01*
X4651567D02*
X4676959Y2576175D01*
X4727742D01*
X4753134Y2550784D01*
Y2449217D01*
X4727742Y2423825D01*
X4676959D01*
X4651567Y2449217D01*
X4499216Y2423825D02*
X4600784D01*
X4499216Y2525392D01*
Y2550784D01*
X4524608Y2576175D01*
X4575392D01*
X4600784Y2550784D01*
X4448433D02*
X4423041Y2576175D01*
X4372257D01*
X4346866Y2550784D01*
Y2449217D01*
X4372257Y2423825D01*
X4423041D01*
X4448433Y2449217D01*
Y2550784D01*
X2688871Y4000783D02*
X2714263Y4026175D01*
X2765046D01*
X2790438Y4000783D01*
Y3899216D01*
X2765046Y3873825D01*
X2714263D01*
X2688871Y3899216D01*
X2638087Y3873825D02*
X2587304D01*
X2612696D01*
Y4026175D01*
X2638087Y4000783D01*
X2511129Y3899216D02*
X2485737Y3873825D01*
X2434953D01*
X2409561Y3899216D01*
Y4000783D01*
X2434953Y4026175D01*
X2485737D01*
X2511129Y4000783D01*
Y3975392D01*
X2485737Y3950000D01*
X2409561D01*
X2331753Y1996399D02*
X2357145Y2021791D01*
X2407928D01*
X2433320Y1996399D01*
Y1894832D01*
X2407928Y1869440D01*
X2357145D01*
X2331753Y1894832D01*
X2280969Y1869440D02*
X2230186D01*
X2255577D01*
Y2021791D01*
X2280969Y1996399D01*
X2154010D02*
X2128619Y2021791D01*
X2077835D01*
X2052443Y1996399D01*
Y1971007D01*
X2077835Y1945615D01*
X2052443Y1920223D01*
Y1894832D01*
X2077835Y1869440D01*
X2128619D01*
X2154010Y1894832D01*
Y1920223D01*
X2128619Y1945615D01*
X2154010Y1971007D01*
Y1996399D01*
X2128619Y1945615D02*
X2077835D01*
X2847373Y1958299D02*
X2872765Y1983691D01*
X2923548D01*
X2948940Y1958299D01*
Y1856732D01*
X2923548Y1831340D01*
X2872765D01*
X2847373Y1856732D01*
X2796589Y1831340D02*
X2745806D01*
X2771197D01*
Y1983691D01*
X2796589Y1958299D01*
X2669630Y1983691D02*
X2568063D01*
Y1958299D01*
X2669630Y1856732D01*
Y1831340D01*
X2494313Y3053039D02*
X2519705Y3078431D01*
X2570488D01*
X2595880Y3053039D01*
Y2951472D01*
X2570488Y2926080D01*
X2519705D01*
X2494313Y2951472D01*
X2443529Y2926080D02*
X2392746D01*
X2418137D01*
Y3078431D01*
X2443529Y3053039D01*
X2240395Y2926080D02*
Y3078431D01*
X2316570Y3002255D01*
X2215003D01*
X3988871Y4350784D02*
X4014263Y4376175D01*
X4065046D01*
X4090438Y4350784D01*
Y4249217D01*
X4065046Y4223825D01*
X4014263D01*
X3988871Y4249217D01*
X3938088Y4223825D02*
X3887304D01*
X3912696D01*
Y4376175D01*
X3938088Y4350784D01*
X3811129D02*
X3785737Y4376175D01*
X3734953D01*
X3709562Y4350784D01*
Y4325392D01*
X3734953Y4300000D01*
X3760345D01*
X3734953D01*
X3709562Y4274608D01*
Y4249217D01*
X3734953Y4223825D01*
X3785737D01*
X3811129Y4249217D01*
X1888871Y3650783D02*
X1914263Y3676175D01*
X1965046D01*
X1990438Y3650783D01*
Y3549216D01*
X1965046Y3523825D01*
X1914263D01*
X1888871Y3549216D01*
X1838088Y3523825D02*
X1787304D01*
X1812696D01*
Y3676175D01*
X1838088Y3650783D01*
X1609561Y3523825D02*
X1711129D01*
X1609561Y3625392D01*
Y3650783D01*
X1634953Y3676175D01*
X1685737D01*
X1711129Y3650783D01*
X4744753Y1302979D02*
X4770145Y1328371D01*
X4820928D01*
X4846320Y1302979D01*
Y1201412D01*
X4820928Y1176020D01*
X4770145D01*
X4744753Y1201412D01*
X4693969Y1176020D02*
X4643186D01*
X4668577D01*
Y1328371D01*
X4693969Y1302979D01*
X4567010Y1176020D02*
X4516227D01*
X4541619D01*
Y1328371D01*
X4567010Y1302979D01*
X1888871Y3900783D02*
X1914263Y3926175D01*
X1965046D01*
X1990438Y3900783D01*
Y3799216D01*
X1965046Y3773825D01*
X1914263D01*
X1888871Y3799216D01*
X1838088Y3773825D02*
X1787304D01*
X1812696D01*
Y3926175D01*
X1838088Y3900783D01*
X1711129D02*
X1685737Y3926175D01*
X1634953D01*
X1609561Y3900783D01*
Y3799216D01*
X1634953Y3773825D01*
X1685737D01*
X1711129Y3799216D01*
Y3900783D01*
X3037873Y4213819D02*
X3063265Y4239211D01*
X3114048D01*
X3139440Y4213819D01*
Y4112252D01*
X3114048Y4086860D01*
X3063265D01*
X3037873Y4112252D01*
X2987089Y4213819D02*
X2961697Y4239211D01*
X2910914D01*
X2885522Y4213819D01*
Y4188427D01*
X2910914Y4163035D01*
X2885522Y4137643D01*
Y4112252D01*
X2910914Y4086860D01*
X2961697D01*
X2987089Y4112252D01*
Y4137643D01*
X2961697Y4163035D01*
X2987089Y4188427D01*
Y4213819D01*
X2961697Y4163035D02*
X2910914D01*
X4333273Y4429719D02*
X4358665Y4455111D01*
X4409448D01*
X4434840Y4429719D01*
Y4328152D01*
X4409448Y4302760D01*
X4358665D01*
X4333273Y4328152D01*
X4180922Y4455111D02*
X4282489D01*
Y4378935D01*
X4231706Y4404327D01*
X4206314D01*
X4180922Y4378935D01*
Y4328152D01*
X4206314Y4302760D01*
X4257097D01*
X4282489Y4328152D01*
X4375392Y4900783D02*
X4400783Y4926175D01*
X4451567D01*
X4476959Y4900783D01*
Y4799216D01*
X4451567Y4773825D01*
X4400783D01*
X4375392Y4799216D01*
X4248433Y4773825D02*
Y4926175D01*
X4324608Y4850000D01*
X4223041D01*
X3378233Y4063959D02*
X3403625Y4089351D01*
X3454408D01*
X3479800Y4063959D01*
Y3962392D01*
X3454408Y3937000D01*
X3403625D01*
X3378233Y3962392D01*
X3225882Y3937000D02*
X3327449D01*
X3225882Y4038567D01*
Y4063959D01*
X3251274Y4089351D01*
X3302057D01*
X3327449Y4063959D01*
X4350000Y3950784D02*
X4375392Y3976175D01*
X4426175D01*
X4451567Y3950784D01*
Y3849217D01*
X4426175Y3823825D01*
X4375392D01*
X4350000Y3849217D01*
X4299216Y3823825D02*
X4248433D01*
X4273824D01*
Y3976175D01*
X4299216Y3950784D01*
%TF.MD5,5f42fe13806b65df8b6289a0bd629c20*%
M02*
