%TF.GenerationSoftware,Altium Limited,Altium Designer,20.2.4 (192)*%
G04 Layer_Color=8388736*
%FSLAX45Y45*%
%MOMM*%
%TF.SameCoordinates,538F140D-ADF5-4649-B7F1-A5983F3DD12E*%
%TF.FilePolarity,Negative*%
%TF.FileFunction,Soldermask,Top*%
%TF.Part,Single*%
G01*
G75*
%TA.AperFunction,SMDPad,CuDef*%
%ADD16R,0.52583X1.65524*%
G04:AMPARAMS|DCode=17|XSize=1.65524mm|YSize=0.52583mm|CornerRadius=0.26292mm|HoleSize=0mm|Usage=FLASHONLY|Rotation=270.000|XOffset=0mm|YOffset=0mm|HoleType=Round|Shape=RoundedRectangle|*
%AMROUNDEDRECTD17*
21,1,1.65524,0.00000,0,0,270.0*
21,1,1.12941,0.52583,0,0,270.0*
1,1,0.52583,0.00000,-0.56470*
1,1,0.52583,0.00000,0.56470*
1,1,0.52583,0.00000,0.56470*
1,1,0.52583,0.00000,-0.56470*
%
%ADD17ROUNDEDRECTD17*%
G04:AMPARAMS|DCode=18|XSize=0.52583mm|YSize=1.65524mm|CornerRadius=0.26292mm|HoleSize=0mm|Usage=FLASHONLY|Rotation=270.000|XOffset=0mm|YOffset=0mm|HoleType=Round|Shape=RoundedRectangle|*
%AMROUNDEDRECTD18*
21,1,0.52583,1.12941,0,0,270.0*
21,1,0.00000,1.65524,0,0,270.0*
1,1,0.52583,-0.56470,0.00000*
1,1,0.52583,-0.56470,0.00000*
1,1,0.52583,0.56470,0.00000*
1,1,0.52583,0.56470,0.00000*
%
%ADD18ROUNDEDRECTD18*%
%ADD51R,1.05000X1.00000*%
%ADD53R,1.09000X0.91000*%
%ADD54R,1.55000X1.05000*%
%ADD55R,0.91000X1.09000*%
%TA.AperFunction,ComponentPad*%
%ADD56C,1.40000*%
%ADD57C,0.85000*%
%ADD58O,1.00000X1.90000*%
%TA.AperFunction,ViaPad*%
%ADD59C,1.65000*%
%ADD60C,0.55000*%
%TA.AperFunction,SMDPad,CuDef*%
%ADD68R,5.70000X1.75000*%
%ADD69R,2.89000X0.84000*%
%ADD70R,0.40000X0.70000*%
%ADD71R,1.00000X1.05000*%
%ADD72R,1.00000X0.95000*%
%ADD73R,1.37000X1.49700*%
%ADD74R,1.05000X1.55000*%
%ADD75R,5.10000X5.10000*%
%ADD76R,3.10000X3.10000*%
%ADD77R,2.08120X0.65880*%
%ADD78R,2.00000X2.00000*%
%TA.AperFunction,ConnectorPad*%
%ADD79R,1.70000X1.50000*%
%ADD80R,0.50000X1.45000*%
%TA.AperFunction,SMDPad,CuDef*%
%ADD81R,0.98900X1.10000*%
%ADD82R,3.20000X4.30000*%
%ADD83R,1.60000X4.80000*%
%ADD84R,1.25000X0.80000*%
%ADD85R,0.50000X1.20000*%
G36*
X3683752Y4155004D02*
Y4105004D01*
X3673752Y4095004D01*
X3658752D01*
X3648752Y4105004D01*
Y4155004D01*
X3658752Y4165004D01*
X3673752D01*
X3683752Y4155004D01*
D02*
G37*
G36*
X3633752D02*
Y4105004D01*
X3623752Y4095004D01*
X3608752D01*
X3598752Y4105004D01*
Y4155004D01*
X3608752Y4165004D01*
X3623752D01*
X3633752Y4155004D01*
D02*
G37*
G36*
X3583752D02*
Y4105004D01*
X3573752Y4095004D01*
X3558752D01*
X3548752Y4105004D01*
Y4155004D01*
X3558752Y4165004D01*
X3573752D01*
X3583752Y4155004D01*
D02*
G37*
G36*
X3533752D02*
Y4105004D01*
X3523752Y4095004D01*
X3508752D01*
X3498752Y4105004D01*
Y4155004D01*
X3508752Y4165004D01*
X3523752D01*
X3533752Y4155004D01*
D02*
G37*
G36*
X3766252Y4085004D02*
Y4070004D01*
X3756252Y4060004D01*
X3706252D01*
X3696252Y4070004D01*
Y4085004D01*
X3706252Y4095004D01*
X3756252D01*
X3766252Y4085004D01*
D02*
G37*
G36*
X3486252D02*
Y4070004D01*
X3476252Y4060004D01*
X3426252D01*
X3416252Y4070004D01*
Y4085004D01*
X3426252Y4095004D01*
X3476252D01*
X3486252Y4085004D01*
D02*
G37*
G36*
X3766252Y4035004D02*
Y4020004D01*
X3756252Y4010004D01*
X3706252D01*
X3696252Y4020004D01*
Y4035004D01*
X3706252Y4045004D01*
X3756252D01*
X3766252Y4035004D01*
D02*
G37*
G36*
X3486252D02*
Y4020004D01*
X3476252Y4010004D01*
X3426252D01*
X3416252Y4020004D01*
Y4035004D01*
X3426252Y4045004D01*
X3476252D01*
X3486252Y4035004D01*
D02*
G37*
G36*
X3766252Y3985004D02*
Y3970004D01*
X3756252Y3960004D01*
X3706252D01*
X3696252Y3970004D01*
Y3985004D01*
X3706252Y3995004D01*
X3756252D01*
X3766252Y3985004D01*
D02*
G37*
G36*
X3486252D02*
Y3970004D01*
X3476252Y3960004D01*
X3426252D01*
X3416252Y3970004D01*
Y3985004D01*
X3426252Y3995004D01*
X3476252D01*
X3486252Y3985004D01*
D02*
G37*
G36*
X3726252Y3932507D02*
X3756252D01*
X3761252Y3927507D01*
Y3912507D01*
X3756252Y3907507D01*
X3726252D01*
Y3900007D01*
X3608752Y3900007D01*
X3603752Y3905007D01*
X3603752Y3935007D01*
X3608752Y3940007D01*
X3726252D01*
Y3932507D01*
D02*
G37*
G36*
X3578752Y3935004D02*
X3578752Y3905004D01*
X3573752Y3900004D01*
X3456252D01*
Y3907504D01*
X3426252Y3907504D01*
X3421252Y3912504D01*
Y3927504D01*
X3426252Y3932504D01*
X3456252Y3932504D01*
Y3940004D01*
X3573752D01*
X3578752Y3935004D01*
D02*
G37*
G36*
X3726252Y3862505D02*
X3756252D01*
X3761252Y3857505D01*
Y3842505D01*
X3756252Y3837506D01*
X3726252Y3837505D01*
Y3830006D01*
X3608752D01*
X3603752Y3835006D01*
X3603752Y3865005D01*
X3608752Y3870005D01*
X3726252D01*
Y3862505D01*
D02*
G37*
G36*
X3578755Y3865002D02*
X3578754Y3835002D01*
X3573755Y3830002D01*
X3456254D01*
Y3837502D01*
X3426255D01*
X3421255Y3842502D01*
Y3857502D01*
X3426255Y3862502D01*
X3456254Y3862502D01*
Y3870002D01*
X3573754D01*
X3578755Y3865002D01*
D02*
G37*
G36*
X3726252Y3792504D02*
X3756252Y3792504D01*
X3761252Y3787504D01*
Y3772504D01*
X3756252Y3767504D01*
X3726252D01*
Y3760004D01*
X3678752D01*
Y3675004D01*
X3673752Y3670004D01*
X3658752D01*
X3653752Y3675004D01*
Y3760004D01*
X3628752D01*
Y3675004D01*
X3623752Y3670004D01*
X3608752D01*
X3603752Y3675004D01*
Y3760004D01*
X3578752D01*
Y3675004D01*
X3573752Y3670004D01*
X3558752D01*
X3553752Y3675004D01*
Y3760004D01*
X3528752D01*
Y3675004D01*
X3523752Y3670004D01*
X3508752D01*
X3503752Y3675004D01*
Y3760004D01*
X3456252D01*
Y3767504D01*
X3426252D01*
X3421252Y3772504D01*
Y3787504D01*
X3426252Y3792504D01*
X3456252D01*
Y3800004D01*
X3726252D01*
Y3792504D01*
D02*
G37*
G36*
X3737498Y3059998D02*
Y2974998D01*
X3784998D01*
Y2967498D01*
X3814998D01*
X3819998Y2962498D01*
Y2947498D01*
X3814998Y2942498D01*
X3784998D01*
Y2934998D01*
X3514998D01*
Y2942498D01*
X3484998Y2942498D01*
X3479998Y2947498D01*
Y2962498D01*
X3484998Y2967498D01*
X3514998D01*
Y2974998D01*
X3562498D01*
Y3059998D01*
X3567498Y3064998D01*
X3582498D01*
X3587498Y3059998D01*
Y2974998D01*
X3612498D01*
Y3059998D01*
X3617498Y3064998D01*
X3632498D01*
X3637498Y3059998D01*
Y2974998D01*
X3662498D01*
Y3059998D01*
X3667498Y3064998D01*
X3682498D01*
X3687498Y3059998D01*
Y2974998D01*
X3712498D01*
Y3059998D01*
X3717498Y3064998D01*
X3732498D01*
X3737498Y3059998D01*
D02*
G37*
G36*
X3784995Y2897500D02*
X3814995D01*
X3819995Y2892500D01*
Y2877500D01*
X3814995Y2872500D01*
X3784995Y2872500D01*
Y2865000D01*
X3667496D01*
X3662495Y2870000D01*
X3662496Y2900000D01*
X3667495Y2905000D01*
X3784995D01*
Y2897500D01*
D02*
G37*
G36*
X3637498Y2899996D02*
X3637498Y2869997D01*
X3632498Y2864997D01*
X3514998D01*
Y2872497D01*
X3484998D01*
X3479998Y2877497D01*
Y2892497D01*
X3484998Y2897496D01*
X3514998Y2897497D01*
Y2904996D01*
X3632498D01*
X3637498Y2899996D01*
D02*
G37*
G36*
X3784998Y2827498D02*
X3814998Y2827498D01*
X3819998Y2822498D01*
Y2807498D01*
X3814998Y2802498D01*
X3784998Y2802498D01*
Y2794998D01*
X3667498D01*
X3662498Y2799998D01*
X3662498Y2829998D01*
X3667498Y2834998D01*
X3784998D01*
Y2827498D01*
D02*
G37*
G36*
X3632498Y2834995D02*
X3637498Y2829995D01*
X3637498Y2799995D01*
X3632498Y2794995D01*
X3514998D01*
Y2802495D01*
X3484998D01*
X3479998Y2807495D01*
Y2822495D01*
X3484998Y2827495D01*
X3514998D01*
Y2834995D01*
X3632498Y2834995D01*
D02*
G37*
G36*
X3824998Y2764998D02*
Y2749998D01*
X3814998Y2739998D01*
X3764998D01*
X3754998Y2749998D01*
Y2764998D01*
X3764998Y2774998D01*
X3814998D01*
X3824998Y2764998D01*
D02*
G37*
G36*
X3544998D02*
Y2749998D01*
X3534998Y2739998D01*
X3484998D01*
X3474998Y2749998D01*
Y2764998D01*
X3484998Y2774998D01*
X3534998D01*
X3544998Y2764998D01*
D02*
G37*
G36*
X3824998Y2714998D02*
Y2699998D01*
X3814998Y2689998D01*
X3764998D01*
X3754998Y2699998D01*
Y2714998D01*
X3764998Y2724998D01*
X3814998D01*
X3824998Y2714998D01*
D02*
G37*
G36*
X3544998D02*
Y2699998D01*
X3534998Y2689998D01*
X3484998D01*
X3474998Y2699998D01*
Y2714998D01*
X3484998Y2724998D01*
X3534998D01*
X3544998Y2714998D01*
D02*
G37*
G36*
X3824998Y2664998D02*
Y2649998D01*
X3814998Y2639998D01*
X3764998D01*
X3754998Y2649998D01*
Y2664998D01*
X3764998Y2674998D01*
X3814998D01*
X3824998Y2664998D01*
D02*
G37*
G36*
X3544998D02*
Y2649998D01*
X3534998Y2639998D01*
X3484998D01*
X3474998Y2649998D01*
Y2664998D01*
X3484998Y2674998D01*
X3534998D01*
X3544998Y2664998D01*
D02*
G37*
G36*
X3742498Y2629998D02*
Y2579998D01*
X3732498Y2569998D01*
X3717498D01*
X3707498Y2579998D01*
Y2629998D01*
X3717498Y2639998D01*
X3732498D01*
X3742498Y2629998D01*
D02*
G37*
G36*
X3692498D02*
Y2579998D01*
X3682498Y2569998D01*
X3667498D01*
X3657498Y2579998D01*
Y2629998D01*
X3667498Y2639998D01*
X3682498D01*
X3692498Y2629998D01*
D02*
G37*
G36*
X3642498D02*
Y2579998D01*
X3632498Y2569998D01*
X3617498D01*
X3607498Y2579998D01*
Y2629998D01*
X3617498Y2639998D01*
X3632498D01*
X3642498Y2629998D01*
D02*
G37*
G36*
X3592498D02*
Y2579998D01*
X3582498Y2569998D01*
X3567498D01*
X3557498Y2579998D01*
Y2629998D01*
X3567498Y2639998D01*
X3582498D01*
X3592498Y2629998D01*
D02*
G37*
G36*
X3737500Y1545000D02*
Y1460000D01*
X3785000D01*
Y1452500D01*
X3814999D01*
X3819999Y1447500D01*
Y1432500D01*
X3814999Y1427500D01*
X3785000D01*
Y1420000D01*
X3515000D01*
Y1427500D01*
X3485000Y1427500D01*
X3480000Y1432500D01*
Y1447500D01*
X3485000Y1452500D01*
X3515000D01*
Y1460000D01*
X3562500D01*
Y1545000D01*
X3567500Y1550000D01*
X3582500D01*
X3587500Y1545000D01*
Y1460000D01*
X3612500D01*
Y1545000D01*
X3617499Y1550000D01*
X3632499D01*
X3637499Y1545000D01*
Y1460000D01*
X3662500D01*
Y1545000D01*
X3667500Y1550000D01*
X3682500D01*
X3687500Y1545000D01*
Y1460000D01*
X3712500D01*
Y1545000D01*
X3717500Y1550000D01*
X3732500D01*
X3737500Y1545000D01*
D02*
G37*
G36*
X3784997Y1382502D02*
X3814997D01*
X3819997Y1377502D01*
Y1362502D01*
X3814997Y1357502D01*
X3784997Y1357502D01*
Y1350002D01*
X3667497D01*
X3662497Y1355002D01*
X3662497Y1385002D01*
X3667497Y1390002D01*
X3784997D01*
Y1382502D01*
D02*
G37*
G36*
X3637500Y1384999D02*
X3637499Y1354999D01*
X3632500Y1349999D01*
X3515000D01*
Y1357499D01*
X3485000D01*
X3480000Y1362499D01*
Y1377499D01*
X3485000Y1382498D01*
X3515000Y1382499D01*
Y1389998D01*
X3632499D01*
X3637500Y1384999D01*
D02*
G37*
G36*
X3785000Y1312500D02*
X3814999Y1312500D01*
X3819999Y1307500D01*
Y1292500D01*
X3814999Y1287500D01*
X3785000Y1287500D01*
Y1280000D01*
X3667500D01*
X3662499Y1285000D01*
X3662500Y1315000D01*
X3667499Y1320000D01*
X3785000D01*
Y1312500D01*
D02*
G37*
G36*
X3632499Y1319997D02*
X3637500Y1314997D01*
X3637499Y1284997D01*
X3632500Y1279997D01*
X3515000D01*
Y1287497D01*
X3485000D01*
X3480000Y1292497D01*
Y1307497D01*
X3485000Y1312497D01*
X3515000D01*
Y1319997D01*
X3632499Y1319997D01*
D02*
G37*
G36*
X3824999Y1250000D02*
Y1235000D01*
X3814999Y1225000D01*
X3765000D01*
X3755000Y1235000D01*
Y1250000D01*
X3765000Y1260000D01*
X3814999D01*
X3824999Y1250000D01*
D02*
G37*
G36*
X3545000D02*
Y1235000D01*
X3535000Y1225000D01*
X3485000D01*
X3475000Y1235000D01*
Y1250000D01*
X3485000Y1260000D01*
X3535000D01*
X3545000Y1250000D01*
D02*
G37*
G36*
X3824999Y1200000D02*
Y1185000D01*
X3814999Y1175000D01*
X3765000D01*
X3755000Y1185000D01*
Y1200000D01*
X3765000Y1210000D01*
X3814999D01*
X3824999Y1200000D01*
D02*
G37*
G36*
X3545000D02*
Y1185000D01*
X3535000Y1175000D01*
X3485000D01*
X3475000Y1185000D01*
Y1200000D01*
X3485000Y1210000D01*
X3535000D01*
X3545000Y1200000D01*
D02*
G37*
G36*
X3824999Y1150000D02*
Y1135000D01*
X3814999Y1125000D01*
X3765000D01*
X3755000Y1135000D01*
Y1150000D01*
X3765000Y1160000D01*
X3814999D01*
X3824999Y1150000D01*
D02*
G37*
G36*
X3545000D02*
Y1135000D01*
X3535000Y1125000D01*
X3485000D01*
X3475000Y1135000D01*
Y1150000D01*
X3485000Y1160000D01*
X3535000D01*
X3545000Y1150000D01*
D02*
G37*
G36*
X3742500Y1115000D02*
Y1065000D01*
X3732500Y1055000D01*
X3717500D01*
X3707500Y1065000D01*
Y1115000D01*
X3717500Y1125000D01*
X3732500D01*
X3742500Y1115000D01*
D02*
G37*
G36*
X3692500D02*
Y1065000D01*
X3682500Y1055000D01*
X3667500D01*
X3657500Y1065000D01*
Y1115000D01*
X3667500Y1125000D01*
X3682500D01*
X3692500Y1115000D01*
D02*
G37*
G36*
X3642499D02*
Y1065000D01*
X3632499Y1055000D01*
X3617499D01*
X3607500Y1065000D01*
Y1115000D01*
X3617499Y1125000D01*
X3632499D01*
X3642499Y1115000D01*
D02*
G37*
G36*
X3592500D02*
Y1065000D01*
X3582500Y1055000D01*
X3567500D01*
X3557500Y1065000D01*
Y1115000D01*
X3567500Y1125000D01*
X3582500D01*
X3592500Y1115000D01*
D02*
G37*
D16*
X3030002Y5012548D02*
D03*
D17*
X2950002D02*
D03*
X2870002D02*
D03*
X2790002D02*
D03*
X2710002D02*
D03*
X2630002D02*
D03*
X2550003D02*
D03*
X2470003D02*
D03*
Y4187449D02*
D03*
X2550003D02*
D03*
X2630002D02*
D03*
X2710002D02*
D03*
X2790002D02*
D03*
X2870002D02*
D03*
X2950002D02*
D03*
X3030002D02*
D03*
D18*
X2337455Y4880000D02*
D03*
Y4800001D02*
D03*
Y4720001D02*
D03*
Y4640001D02*
D03*
Y4560001D02*
D03*
Y4480001D02*
D03*
Y4399996D02*
D03*
Y4319996D02*
D03*
X3162549D02*
D03*
Y4399996D02*
D03*
Y4480001D02*
D03*
Y4560001D02*
D03*
Y4640001D02*
D03*
Y4720001D02*
D03*
Y4800001D02*
D03*
Y4880000D02*
D03*
D51*
X5000000Y3550001D02*
D03*
Y3390001D02*
D03*
D53*
X1050000Y2212000D02*
D03*
Y2349998D02*
D03*
D54*
X5000000Y2999999D02*
D03*
Y3199999D02*
D03*
Y1900001D02*
D03*
Y2100001D02*
D03*
D55*
X1800001Y4000002D02*
D03*
X1938000D02*
D03*
X2761996Y5350002D02*
D03*
X2899999D02*
D03*
X1237996Y4000002D02*
D03*
X1099998D02*
D03*
X1150000Y899998D02*
D03*
X1288004D02*
D03*
D56*
X604002Y5300000D02*
D03*
X477002Y5046000D02*
D03*
X350002Y5300000D02*
D03*
X223002Y5046000D02*
D03*
X256022Y4017604D02*
D03*
X383022Y4271604D02*
D03*
X510022Y4017604D02*
D03*
X637022Y4271604D02*
D03*
X256022Y932404D02*
D03*
X383022Y1186404D02*
D03*
X510022Y932404D02*
D03*
X637022Y1186404D02*
D03*
X256022Y1960799D02*
D03*
X383022Y2214799D02*
D03*
X510022Y1960799D02*
D03*
X637022Y2214799D02*
D03*
Y3243199D02*
D03*
X510022Y2989199D02*
D03*
X383022Y3243199D02*
D03*
X256022Y2989199D02*
D03*
D57*
X744002Y5120000D02*
D03*
X777022Y4091600D02*
D03*
Y1006404D02*
D03*
Y2034799D02*
D03*
Y3063199D02*
D03*
D58*
X4530004Y302499D02*
D03*
X3870005D02*
D03*
D59*
X499999Y499999D02*
D03*
X5000000D02*
D03*
D60*
X3030220Y4688840D02*
D03*
X3446780Y4714240D02*
D03*
X2608580Y690880D02*
D03*
X3535680Y645160D02*
D03*
X1170940Y4251960D02*
D03*
X2789601Y4598081D02*
D03*
X3037840Y4612640D02*
D03*
X3159420Y5072720D02*
D03*
X3228630Y5163368D02*
D03*
X472440Y3906520D02*
D03*
X739389Y3639571D02*
D03*
X1986280Y3733800D02*
D03*
X2844800Y4889500D02*
D03*
X1506220Y4173220D02*
D03*
X2720340Y4348480D02*
D03*
X1152962Y4739640D02*
D03*
X3421380Y4386580D02*
D03*
X1971040Y4714240D02*
D03*
X2506980Y2242820D02*
D03*
X4287622Y866140D02*
D03*
X2899999Y5251455D02*
D03*
X4702155Y3683965D02*
D03*
X4307840Y4538980D02*
D03*
X2222500Y4737100D02*
D03*
X2606360Y3982720D02*
D03*
X2794000Y789940D02*
D03*
X2796540Y3215640D02*
D03*
X3078480Y3497580D02*
D03*
X3279780Y4122420D02*
D03*
X3314700Y4602521D02*
D03*
X386080Y2705100D02*
D03*
X3426460Y477520D02*
D03*
X2090420Y4418752D02*
D03*
X2470003Y4888860D02*
D03*
X1376680Y4165600D02*
D03*
X2630002Y4747260D02*
D03*
X4864100Y1325880D02*
D03*
X4572000Y4145280D02*
D03*
X3027680Y2588260D02*
D03*
X3903980Y2446238D02*
D03*
X1512540Y5325725D02*
D03*
X2529840Y5349011D02*
D03*
X4053840Y2565400D02*
D03*
X4927600Y2230120D02*
D03*
X5045014Y3101340D02*
D03*
X3746500Y2278380D02*
D03*
X4564380Y1252220D02*
D03*
X1805940Y383540D02*
D03*
X2542540Y497840D02*
D03*
X2594800Y2240280D02*
D03*
X2994660Y3121660D02*
D03*
X2567940Y2839720D02*
D03*
X2677160Y4048724D02*
D03*
X3446780Y4135120D02*
D03*
X3977640Y1930400D02*
D03*
X5013960Y972820D02*
D03*
X3761740Y1597660D02*
D03*
X4401820Y1363980D02*
D03*
X3843020Y3858260D02*
D03*
X4924806Y4775200D02*
D03*
X2006600Y716280D02*
D03*
X713450Y3520440D02*
D03*
X2265680Y4251960D02*
D03*
X2463800Y4450080D02*
D03*
X3362960Y2786380D02*
D03*
X3578860Y2745740D02*
D03*
X5024120Y2255520D02*
D03*
X3810000Y3939540D02*
D03*
X1577340Y4480560D02*
D03*
X2065020Y4880000D02*
D03*
X2024380Y4500880D02*
D03*
X2550160Y4747260D02*
D03*
X3926840Y3586480D02*
D03*
X4556760Y2021840D02*
D03*
X1069340Y1696720D02*
D03*
X3093720Y2374900D02*
D03*
X3574999Y2390140D02*
D03*
X3883660Y1097280D02*
D03*
X3840480Y2043877D02*
D03*
X4556760Y1920240D02*
D03*
X3650000Y4251960D02*
D03*
X3710940Y3362960D02*
D03*
X3947419Y2999999D02*
D03*
X4480560Y5008880D02*
D03*
X1348740Y1277620D02*
D03*
X1222380Y3042920D02*
D03*
X1149726Y4411995D02*
D03*
X3649980Y2730500D02*
D03*
X3876040Y1308100D02*
D03*
X3568700Y3977640D02*
D03*
X4593742Y4959502D02*
D03*
X1424940Y1023620D02*
D03*
X863874Y3812540D02*
D03*
X939800Y3614420D02*
D03*
X965200Y4617720D02*
D03*
X1516380Y4858106D02*
D03*
X3086100Y2875280D02*
D03*
X1696720Y3548380D02*
D03*
X1905000Y3756660D02*
D03*
X1684020Y4112260D02*
D03*
X2438400Y1608582D02*
D03*
X2811780Y5199380D02*
D03*
X5000000Y3296920D02*
D03*
D68*
X1400002Y607502D02*
D03*
Y192502D02*
D03*
D69*
X1800001Y4246006D02*
D03*
X1393002D02*
D03*
X1800001Y4373006D02*
D03*
X1393002D02*
D03*
X1800001Y4500006D02*
D03*
X1393002D02*
D03*
X1800001Y4627006D02*
D03*
X1393002D02*
D03*
X1800001Y4754006D02*
D03*
X1393002D02*
D03*
D70*
X1300002Y1200003D02*
D03*
X1350000D02*
D03*
X1400002D02*
D03*
X1450000D02*
D03*
X1300002Y1350000D02*
D03*
X1350000D02*
D03*
X1400002D02*
D03*
X1450000D02*
D03*
D71*
X1062380Y3314441D02*
D03*
X1222380D02*
D03*
X4127617Y735559D02*
D03*
X4287622D02*
D03*
X1062380Y3564443D02*
D03*
X1222380D02*
D03*
D72*
X1205001Y5204998D02*
D03*
X1110005D02*
D03*
X1300002Y4949998D02*
D03*
X1110005D02*
D03*
X1300002Y5204998D02*
D03*
X1944995Y5227503D02*
D03*
X1754998Y4972502D02*
D03*
X1944995D02*
D03*
X1754998Y5227503D02*
D03*
X1849999D02*
D03*
D73*
X4949998Y3771402D02*
D03*
Y4000002D02*
D03*
X5000000Y2471400D02*
D03*
Y2700000D02*
D03*
D74*
X3762700Y2162698D02*
D03*
X3562701D02*
D03*
X5212700Y1212708D02*
D03*
X5412699D02*
D03*
D75*
X3650000Y5200000D02*
D03*
X4200002Y5199995D02*
D03*
D76*
X5300000Y2200001D02*
D03*
Y850001D02*
D03*
X5300005Y4400001D02*
D03*
Y2999999D02*
D03*
X5300000Y1650004D02*
D03*
X5300005Y3600003D02*
D03*
D77*
X3219902Y2444501D02*
D03*
Y2317501D02*
D03*
Y2190501D02*
D03*
Y2063501D02*
D03*
Y1936501D02*
D03*
Y1809501D02*
D03*
Y1682501D02*
D03*
Y1555501D02*
D03*
X2280102D02*
D03*
Y1682501D02*
D03*
Y1809501D02*
D03*
Y1936501D02*
D03*
Y2063501D02*
D03*
Y2190501D02*
D03*
Y2317501D02*
D03*
Y2444501D02*
D03*
X3219902Y3694501D02*
D03*
Y3567501D02*
D03*
Y3440501D02*
D03*
Y3313501D02*
D03*
Y3186501D02*
D03*
Y3059501D02*
D03*
Y2932501D02*
D03*
Y2805501D02*
D03*
X2280102D02*
D03*
Y2932501D02*
D03*
Y3059501D02*
D03*
Y3186501D02*
D03*
Y3313501D02*
D03*
Y3440501D02*
D03*
Y3567501D02*
D03*
Y3694501D02*
D03*
X3219902Y1144499D02*
D03*
Y1017499D02*
D03*
Y890499D02*
D03*
Y763499D02*
D03*
Y636499D02*
D03*
Y509499D02*
D03*
Y382499D02*
D03*
Y255499D02*
D03*
X2280102D02*
D03*
Y382499D02*
D03*
Y509499D02*
D03*
Y636499D02*
D03*
Y763499D02*
D03*
Y890499D02*
D03*
Y1017499D02*
D03*
Y1144499D02*
D03*
D78*
X4320007Y302499D02*
D03*
X4080002D02*
D03*
D79*
X4520006Y547502D02*
D03*
X3880002D02*
D03*
D80*
X4330004Y570001D02*
D03*
X4265005D02*
D03*
X4200007D02*
D03*
X4135003D02*
D03*
X4070005D02*
D03*
D81*
X1500002Y899998D02*
D03*
X1654942D02*
D03*
D82*
X5000000Y5150002D02*
D03*
D83*
X5229997D02*
D03*
D84*
X4682500Y4959502D02*
D03*
Y5086502D02*
D03*
Y5213502D02*
D03*
Y5340502D02*
D03*
D85*
X3615004Y4599996D02*
D03*
X3550001D02*
D03*
X3485002D02*
D03*
Y4399996D02*
D03*
X3615004D02*
D03*
%TF.MD5,4573f660319a7626c534f78bc8a960fb*%
M02*
