%TF.GenerationSoftware,Altium Limited,Altium Designer,22.10.1 (41)*%
G04 Layer_Color=32896*
%FSLAX45Y45*%
%MOMM*%
%TF.SameCoordinates,DE935885-D1E6-4056-9A9D-6EDDC4C2173E*%
%TF.FilePolarity,Positive*%
%TF.FileFunction,Legend,Bot*%
%TF.Part,Single*%
G01*
G75*
%TA.AperFunction,NonConductor*%
%ADD56C,0.20320*%
%ADD57C,0.25400*%
%ADD58C,0.15300*%
D56*
X3301740Y3831024D02*
X3398260D01*
X3821024Y1321745D02*
Y1418265D01*
X3809022Y2551745D02*
Y2648265D01*
D57*
X2327100Y1522900D02*
X2250925D01*
X2225533Y1548292D01*
X2250925Y1573683D01*
X2301708D01*
X2327100Y1599075D01*
X2301708Y1624467D01*
X2225533D01*
X2174749Y1522900D02*
Y1624467D01*
X2098574D01*
X2073182Y1599075D01*
Y1522900D01*
X1920831D02*
X2022399D01*
X1920831Y1624467D01*
Y1649859D01*
X1946223Y1675251D01*
X1997007D01*
X2022399Y1649859D01*
X1870048Y1624467D02*
X1768481Y1522900D01*
X1819264Y1573683D01*
X1768481Y1624467D01*
X1870048Y1522900D01*
D58*
X3586645Y848322D02*
X3603306Y864984D01*
X3636629D01*
X3653290Y848322D01*
Y781677D01*
X3636629Y765016D01*
X3603306D01*
X3586645Y781677D01*
X3486678Y765016D02*
X3553323D01*
X3486678Y831661D01*
Y848322D01*
X3503339Y864984D01*
X3536661D01*
X3553323Y848322D01*
X3453355D02*
X3436693Y864984D01*
X3403371D01*
X3386710Y848322D01*
Y831661D01*
X3403371Y815000D01*
X3386710Y798339D01*
Y781677D01*
X3403371Y765016D01*
X3436693D01*
X3453355Y781677D01*
Y798339D01*
X3436693Y815000D01*
X3453355Y831661D01*
Y848322D01*
X3436693Y815000D02*
X3403371D01*
X3846645Y3955822D02*
X3863306Y3972484D01*
X3896629D01*
X3913290Y3955822D01*
Y3889177D01*
X3896629Y3872516D01*
X3863306D01*
X3846645Y3889177D01*
X3813323Y3955822D02*
X3796661Y3972484D01*
X3763339D01*
X3746678Y3955822D01*
Y3939161D01*
X3763339Y3922500D01*
X3780000D01*
X3763339D01*
X3746678Y3905839D01*
Y3889177D01*
X3763339Y3872516D01*
X3796661D01*
X3813323Y3889177D01*
X3646710Y3872516D02*
X3713355D01*
X3646710Y3939161D01*
Y3955822D01*
X3663371Y3972484D01*
X3696693D01*
X3713355Y3955822D01*
X3529984Y3603322D02*
X3546645Y3619984D01*
X3579967D01*
X3596629Y3603322D01*
Y3536677D01*
X3579967Y3520016D01*
X3546645D01*
X3529984Y3536677D01*
X3496661Y3603322D02*
X3480000Y3619984D01*
X3446677D01*
X3430016Y3603322D01*
Y3586661D01*
X3446677Y3570000D01*
X3463339D01*
X3446677D01*
X3430016Y3553339D01*
Y3536677D01*
X3446677Y3520016D01*
X3480000D01*
X3496661Y3536677D01*
X3396693Y3520016D02*
X3363371D01*
X3380032D01*
Y3619984D01*
X3396693Y3603322D01*
X3561813Y3413491D02*
X3578474Y3430152D01*
X3611797D01*
X3628458Y3413491D01*
Y3346845D01*
X3611797Y3330184D01*
X3578474D01*
X3561813Y3346845D01*
X3528491Y3413491D02*
X3511829Y3430152D01*
X3478507D01*
X3461846Y3413491D01*
Y3396829D01*
X3478507Y3380168D01*
X3495168D01*
X3478507D01*
X3461846Y3363507D01*
Y3346845D01*
X3478507Y3330184D01*
X3511829D01*
X3528491Y3346845D01*
X3428523Y3413491D02*
X3411861Y3430152D01*
X3378539D01*
X3361878Y3413491D01*
Y3346845D01*
X3378539Y3330184D01*
X3411861D01*
X3428523Y3346845D01*
Y3413491D01*
X3564145Y3230823D02*
X3580806Y3247484D01*
X3614129D01*
X3630790Y3230823D01*
Y3164178D01*
X3614129Y3147516D01*
X3580806D01*
X3564145Y3164178D01*
X3464177Y3147516D02*
X3530823D01*
X3464177Y3214161D01*
Y3230823D01*
X3480839Y3247484D01*
X3514161D01*
X3530823Y3230823D01*
X3430855Y3164178D02*
X3414193Y3147516D01*
X3380871D01*
X3364210Y3164178D01*
Y3230823D01*
X3380871Y3247484D01*
X3414193D01*
X3430855Y3230823D01*
Y3214161D01*
X3414193Y3197500D01*
X3364210D01*
X3561645Y2795822D02*
X3578307Y2812484D01*
X3611629D01*
X3628290Y2795822D01*
Y2729177D01*
X3611629Y2712516D01*
X3578307D01*
X3561645Y2729177D01*
X3461678Y2712516D02*
X3528323D01*
X3461678Y2779161D01*
Y2795822D01*
X3478339Y2812484D01*
X3511661D01*
X3528323Y2795822D01*
X3428355Y2812484D02*
X3361710D01*
Y2795822D01*
X3428355Y2729177D01*
Y2712516D01*
X3594645Y2475822D02*
X3611306Y2492483D01*
X3644629D01*
X3661290Y2475822D01*
Y2409177D01*
X3644629Y2392516D01*
X3611306D01*
X3594645Y2409177D01*
X3494678Y2392516D02*
X3561323D01*
X3494678Y2459161D01*
Y2475822D01*
X3511339Y2492483D01*
X3544661D01*
X3561323Y2475822D01*
X3394710Y2492483D02*
X3428032Y2475822D01*
X3461355Y2442500D01*
Y2409177D01*
X3444693Y2392516D01*
X3411371D01*
X3394710Y2409177D01*
Y2425838D01*
X3411371Y2442500D01*
X3461355D01*
X3576645Y2303323D02*
X3593307Y2319984D01*
X3626629D01*
X3643290Y2303323D01*
Y2236678D01*
X3626629Y2220016D01*
X3593307D01*
X3576645Y2236678D01*
X3476678Y2220016D02*
X3543323D01*
X3476678Y2286661D01*
Y2303323D01*
X3493339Y2319984D01*
X3526661D01*
X3543323Y2303323D01*
X3376710Y2319984D02*
X3443355D01*
Y2270000D01*
X3410032Y2286661D01*
X3393371D01*
X3376710Y2270000D01*
Y2236678D01*
X3393371Y2220016D01*
X3426693D01*
X3443355Y2236678D01*
X3584145Y1743322D02*
X3600806Y1759984D01*
X3634129D01*
X3650790Y1743322D01*
Y1676677D01*
X3634129Y1660016D01*
X3600806D01*
X3584145Y1676677D01*
X3484177Y1660016D02*
X3550822D01*
X3484177Y1726661D01*
Y1743322D01*
X3500839Y1759984D01*
X3534161D01*
X3550822Y1743322D01*
X3400871Y1660016D02*
Y1759984D01*
X3450855Y1710000D01*
X3384210D01*
X3579145Y1568322D02*
X3595806Y1584984D01*
X3629129D01*
X3645790Y1568322D01*
Y1501677D01*
X3629129Y1485016D01*
X3595806D01*
X3579145Y1501677D01*
X3479177Y1485016D02*
X3545822D01*
X3479177Y1551661D01*
Y1568322D01*
X3495839Y1584984D01*
X3529161D01*
X3545822Y1568322D01*
X3445855D02*
X3429193Y1584984D01*
X3395871D01*
X3379210Y1568322D01*
Y1551661D01*
X3395871Y1535000D01*
X3412532D01*
X3395871D01*
X3379210Y1518339D01*
Y1501677D01*
X3395871Y1485016D01*
X3429193D01*
X3445855Y1501677D01*
X3576645Y1283323D02*
X3593307Y1299984D01*
X3626629D01*
X3643290Y1283323D01*
Y1216678D01*
X3626629Y1200016D01*
X3593307D01*
X3576645Y1216678D01*
X3476678Y1200016D02*
X3543323D01*
X3476678Y1266661D01*
Y1283323D01*
X3493339Y1299984D01*
X3526661D01*
X3543323Y1283323D01*
X3376710Y1200016D02*
X3443355D01*
X3376710Y1266661D01*
Y1283323D01*
X3393371Y1299984D01*
X3426693D01*
X3443355Y1283323D01*
X3575484Y1135822D02*
X3592145Y1152483D01*
X3625467D01*
X3642129Y1135822D01*
Y1069177D01*
X3625467Y1052516D01*
X3592145D01*
X3575484Y1069177D01*
X3475516Y1052516D02*
X3542161D01*
X3475516Y1119161D01*
Y1135822D01*
X3492177Y1152483D01*
X3525500D01*
X3542161Y1135822D01*
X3442193Y1052516D02*
X3408871D01*
X3425532D01*
Y1152483D01*
X3442193Y1135822D01*
X3586645Y993323D02*
X3603306Y1009984D01*
X3636629D01*
X3653290Y993323D01*
Y926678D01*
X3636629Y910016D01*
X3603306D01*
X3586645Y926678D01*
X3486678Y910016D02*
X3553323D01*
X3486678Y976661D01*
Y993323D01*
X3503339Y1009984D01*
X3536661D01*
X3553323Y993323D01*
X3453355D02*
X3436693Y1009984D01*
X3403371D01*
X3386710Y993323D01*
Y926678D01*
X3403371Y910016D01*
X3436693D01*
X3453355Y926678D01*
Y993323D01*
X3578315Y2133323D02*
X3594976Y2149984D01*
X3628298D01*
X3644960Y2133323D01*
Y2066678D01*
X3628298Y2050016D01*
X3594976D01*
X3578315Y2066678D01*
X3544992Y2050016D02*
X3511669D01*
X3528331D01*
Y2149984D01*
X3544992Y2133323D01*
X3461685Y2066678D02*
X3445024Y2050016D01*
X3411702D01*
X3395040Y2066678D01*
Y2133323D01*
X3411702Y2149984D01*
X3445024D01*
X3461685Y2133323D01*
Y2116661D01*
X3445024Y2100000D01*
X3395040D01*
X3584645Y1977249D02*
X3601306Y1993910D01*
X3634629D01*
X3651290Y1977249D01*
Y1910604D01*
X3634629Y1893943D01*
X3601306D01*
X3584645Y1910604D01*
X3551323Y1893943D02*
X3518000D01*
X3534661D01*
Y1993910D01*
X3551323Y1977249D01*
X3468016D02*
X3451355Y1993910D01*
X3418032D01*
X3401371Y1977249D01*
Y1960588D01*
X3418032Y1943927D01*
X3401371Y1927265D01*
Y1910604D01*
X3418032Y1893943D01*
X3451355D01*
X3468016Y1910604D01*
Y1927265D01*
X3451355Y1943927D01*
X3468016Y1960588D01*
Y1977249D01*
X3451355Y1943927D02*
X3418032D01*
X3298315Y1418323D02*
X3314976Y1434984D01*
X3348298D01*
X3364960Y1418323D01*
Y1351678D01*
X3348298Y1335016D01*
X3314976D01*
X3298315Y1351678D01*
X3264992Y1335016D02*
X3231669D01*
X3248331D01*
Y1434984D01*
X3264992Y1418323D01*
X3181686D02*
X3165024Y1434984D01*
X3131702D01*
X3115041Y1418323D01*
Y1401661D01*
X3131702Y1385000D01*
X3148363D01*
X3131702D01*
X3115041Y1368339D01*
Y1351678D01*
X3131702Y1335016D01*
X3165024D01*
X3181686Y1351678D01*
X3571661Y2628322D02*
X3588323Y2644984D01*
X3621645D01*
X3638306Y2628322D01*
Y2561677D01*
X3621645Y2545016D01*
X3588323D01*
X3571661Y2561677D01*
X3538339Y2644984D02*
X3471694D01*
Y2628322D01*
X3538339Y2561677D01*
Y2545016D01*
X3171677Y3844161D02*
X3155016Y3860822D01*
Y3894145D01*
X3171677Y3910806D01*
X3238322D01*
X3254984Y3894145D01*
Y3860822D01*
X3238322Y3844161D01*
X3254984Y3744193D02*
Y3810838D01*
X3188339Y3744193D01*
X3171677D01*
X3155016Y3760855D01*
Y3794177D01*
X3171677Y3810838D01*
%TF.MD5,22d23c46f2e3061b010cb4be401d7de2*%
M02*
