%TF.GenerationSoftware,Altium Limited,Altium Designer,22.10.1 (41)*%
G04 Layer_Physical_Order=4*
G04 Layer_Color=16711680*
%FSLAX45Y45*%
%MOMM*%
%TF.SameCoordinates,8809E69D-4E27-4A4C-B9B4-EFB0CAEE90D1*%
%TF.FilePolarity,Positive*%
%TF.FileFunction,Copper,L4,Bot,Signal*%
%TF.Part,Single*%
G01*
G75*
%TA.AperFunction,Conductor*%
%ADD10C,0.25400*%
%TA.AperFunction,SMDPad,CuDef*%
%ADD18R,0.81000X0.99000*%
%ADD33R,0.99000X0.81000*%
%TA.AperFunction,Conductor*%
%ADD43C,0.50000*%
%ADD45C,0.20000*%
%TA.AperFunction,ComponentPad*%
%ADD46C,1.30000*%
%ADD47C,0.75000*%
%TA.AperFunction,WasherPad*%
%ADD48C,3.00000*%
%TA.AperFunction,SMDPad,CuDef*%
%ADD49C,3.00000*%
%TA.AperFunction,ComponentPad*%
%ADD50O,0.90000X1.80000*%
%TA.AperFunction,ViaPad*%
%ADD51C,0.45000*%
%ADD52C,0.60000*%
%ADD53C,0.50000*%
%TA.AperFunction,ConnectorPad*%
%ADD54R,1.15000X1.47000*%
%TA.AperFunction,Conductor*%
%ADD55C,1.00000*%
G36*
X3838184Y3846305D02*
X3842502Y3843500D01*
Y3702500D01*
Y3656501D01*
X3842502D01*
Y3653497D01*
X3842502D01*
Y3466499D01*
X3842502D01*
Y3463500D01*
X3842502D01*
Y3276501D01*
Y3096501D01*
X3855000D01*
Y2843500D01*
X3840502D01*
Y2669500D01*
X3817498D01*
Y2530500D01*
X3855000D01*
Y2203501D01*
X3850502D01*
Y2016501D01*
Y1856499D01*
X3855000D01*
Y1763499D01*
X3850502D01*
Y1593499D01*
X3840502D01*
Y1439500D01*
X3829500D01*
Y1300500D01*
X3850502D01*
Y1136502D01*
Y976500D01*
Y843500D01*
X3850500D01*
Y656500D01*
X3855000D01*
Y431658D01*
X3842300Y426397D01*
X3821116Y447582D01*
X3789996Y468375D01*
X3755418Y482698D01*
X3718711Y489999D01*
X3681284D01*
X3644577Y482698D01*
X3609999Y468375D01*
X3578880Y447582D01*
X3553798Y422500D01*
X3052500D01*
Y806827D01*
X3065200Y812087D01*
X3074175Y803112D01*
X3092553Y795500D01*
X3112444D01*
X3130821Y803112D01*
X3144886Y817177D01*
X3152498Y835554D01*
Y855446D01*
X3144886Y873823D01*
X3130821Y887888D01*
X3112444Y895500D01*
X3092553D01*
X3074175Y887888D01*
X3065200Y878913D01*
X3052500Y884173D01*
Y1117425D01*
X3052646Y1117644D01*
X3056139Y1135202D01*
X3052646Y1152760D01*
X3052500Y1152979D01*
Y1968194D01*
X3065200Y1974151D01*
X3080054Y1967998D01*
X3099946D01*
X3118323Y1975610D01*
X3132388Y1989675D01*
X3140000Y2008053D01*
Y2027944D01*
X3132388Y2046321D01*
X3118323Y2060386D01*
X3099946Y2067998D01*
X3080054D01*
X3065200Y2061846D01*
X3052500Y2067803D01*
Y2811659D01*
X3080737D01*
X3083426Y2808970D01*
X3099046Y2802500D01*
X3115954D01*
X3131574Y2808970D01*
X3143530Y2820926D01*
X3150000Y2836546D01*
Y2853454D01*
X3143530Y2869074D01*
X3131574Y2881030D01*
X3115954Y2887500D01*
X3099046D01*
X3083426Y2881030D01*
X3080737Y2878340D01*
X3052500D01*
Y2946659D01*
X3085000D01*
Y2944046D01*
X3091470Y2928426D01*
X3103426Y2916470D01*
X3119046Y2910000D01*
X3135954D01*
X3151574Y2916470D01*
X3163530Y2928426D01*
X3170000Y2944046D01*
Y2960954D01*
X3163530Y2976574D01*
X3151574Y2988530D01*
X3135954Y2995000D01*
X3132151D01*
X3123575Y3003575D01*
X3112759Y3010802D01*
X3100000Y3013340D01*
X3052500D01*
Y3056754D01*
X3057443Y3060057D01*
X3067389Y3074942D01*
X3070882Y3092500D01*
Y3535000D01*
X3067389Y3552558D01*
X3057443Y3567443D01*
X3052500Y3572386D01*
Y3851246D01*
X3271519Y3851247D01*
X3272767Y3850000D01*
X3280500D01*
Y3839500D01*
X3419500D01*
Y3850000D01*
Y3851248D01*
X3833012Y3851250D01*
X3838184Y3846305D01*
D02*
G37*
G36*
X4000000Y3850000D02*
Y400000D01*
X3873125D01*
X3865697Y412700D01*
X3866672Y415403D01*
X3869419Y417239D01*
X3873840Y423854D01*
X3875392Y431658D01*
Y656500D01*
X3873840Y664304D01*
X3870892Y668715D01*
Y843489D01*
X3870894Y843500D01*
Y976500D01*
Y1136502D01*
Y1300500D01*
X3869342Y1308304D01*
X3864922Y1314919D01*
X3858306Y1319340D01*
X3855000Y1319997D01*
Y1425198D01*
X3859342Y1431696D01*
X3860894Y1439500D01*
Y1576389D01*
X3864922Y1579080D01*
X3869342Y1585695D01*
X3870894Y1593499D01*
Y1751287D01*
X3873840Y1755695D01*
X3875392Y1763499D01*
Y1856499D01*
X3873840Y1864303D01*
X3870894Y1868711D01*
Y2016501D01*
Y2191289D01*
X3873840Y2195697D01*
X3875392Y2203501D01*
Y2530500D01*
X3873840Y2538304D01*
X3869419Y2544919D01*
X3862804Y2549340D01*
X3855000Y2550892D01*
Y2655198D01*
X3859342Y2661696D01*
X3860894Y2669500D01*
Y2824280D01*
X3862804Y2824660D01*
X3869419Y2829080D01*
X3873840Y2835696D01*
X3875392Y2843500D01*
Y3096501D01*
X3873840Y3104305D01*
X3869419Y3110921D01*
X3862894Y3115280D01*
Y3276501D01*
Y3463500D01*
X3862894Y3463503D01*
Y3466496D01*
X3862894Y3466499D01*
Y3653497D01*
X3862894Y3653500D01*
Y3656498D01*
X3862894Y3656501D01*
Y3843500D01*
X3862477Y3845598D01*
X3862449Y3847738D01*
X3861708Y3849463D01*
X3861601Y3850000D01*
X3861342Y3851303D01*
X3860153Y3853083D01*
X3859309Y3855049D01*
X3857965Y3856358D01*
X3856922Y3857919D01*
D01*
X3855142Y3859109D01*
X3855000Y3859247D01*
D01*
X3853610Y3860601D01*
X3850896Y3862364D01*
X3847106Y3865988D01*
X3843937Y3868004D01*
X3840816Y3870090D01*
X3840589Y3870135D01*
X3840393Y3870259D01*
X3836691Y3870910D01*
X3833012Y3871642D01*
X3419500Y3871640D01*
X3411696Y3870088D01*
X3405081Y3865667D01*
X3401222Y3859892D01*
X3297944D01*
X3294919Y3864419D01*
X3288304Y3868840D01*
X3280500Y3870392D01*
X3277788D01*
X3271519Y3871639D01*
X3158980Y3871638D01*
X3150000Y3880619D01*
Y4000000D01*
X4000000D01*
Y3850000D01*
D02*
G37*
%LPC*%
G36*
X3425954Y3667500D02*
X3409047D01*
X3393427Y3661030D01*
X3381471Y3649074D01*
X3375001Y3633454D01*
Y3616546D01*
X3381471Y3600926D01*
X3393427Y3588970D01*
X3409047Y3582500D01*
X3425954D01*
X3441575Y3588970D01*
X3453530Y3600926D01*
X3460000Y3616546D01*
Y3633454D01*
X3453530Y3649074D01*
X3441575Y3661030D01*
X3425954Y3667500D01*
D02*
G37*
G36*
X3232710Y3531756D02*
X3215803D01*
X3200182Y3525286D01*
X3188227Y3513330D01*
X3181756Y3497710D01*
Y3480803D01*
X3188227Y3465182D01*
X3200182Y3453227D01*
X3215803Y3446756D01*
X3232710D01*
X3248330Y3453227D01*
X3260286Y3465182D01*
X3266756Y3480803D01*
Y3497710D01*
X3260286Y3513330D01*
X3248330Y3525286D01*
X3232710Y3531756D01*
D02*
G37*
G36*
X3438653Y3492500D02*
X3421746D01*
X3406126Y3486030D01*
X3394170Y3474074D01*
X3387700Y3458454D01*
Y3441546D01*
X3394170Y3425926D01*
X3406126Y3413970D01*
X3421746Y3407500D01*
X3438653D01*
X3454274Y3413970D01*
X3466229Y3425926D01*
X3472699Y3441546D01*
Y3458454D01*
X3466229Y3474074D01*
X3454274Y3486030D01*
X3438653Y3492500D01*
D02*
G37*
G36*
X3598454Y3422500D02*
X3581546D01*
X3565926Y3416030D01*
X3553970Y3404074D01*
X3547500Y3388454D01*
Y3371546D01*
X3553970Y3355926D01*
X3565926Y3343970D01*
X3581546Y3337500D01*
X3598454D01*
X3614074Y3343970D01*
X3626030Y3355926D01*
X3632500Y3371546D01*
Y3388454D01*
X3626030Y3404074D01*
X3614074Y3416030D01*
X3598454Y3422500D01*
D02*
G37*
G36*
X3338454Y3235000D02*
X3321546D01*
X3305926Y3228530D01*
X3293970Y3216574D01*
X3287500Y3200954D01*
Y3184046D01*
X3293970Y3168426D01*
X3305926Y3156470D01*
X3321546Y3150000D01*
X3338454D01*
X3354074Y3156470D01*
X3366030Y3168426D01*
X3372500Y3184046D01*
Y3200954D01*
X3366030Y3216574D01*
X3354074Y3228530D01*
X3338454Y3235000D01*
D02*
G37*
G36*
X3438454Y2832500D02*
X3421546D01*
X3405926Y2826030D01*
X3393970Y2814074D01*
X3387500Y2798454D01*
Y2781546D01*
X3393970Y2765926D01*
X3405926Y2753970D01*
X3421546Y2747500D01*
X3438454D01*
X3454074Y2753970D01*
X3466030Y2765926D01*
X3472500Y2781546D01*
Y2798454D01*
X3466030Y2814074D01*
X3454074Y2826030D01*
X3438454Y2832500D01*
D02*
G37*
G36*
X3318952Y2667499D02*
X3301050D01*
X3284511Y2660648D01*
X3271852Y2647990D01*
X3265001Y2631450D01*
Y2613548D01*
X3271852Y2597009D01*
X3284511Y2584350D01*
X3301050Y2577499D01*
X3318952D01*
X3335491Y2584350D01*
X3348150Y2597009D01*
X3355001Y2613548D01*
Y2631450D01*
X3348150Y2647990D01*
X3335491Y2660648D01*
X3318952Y2667499D01*
D02*
G37*
G36*
X3298951Y2385000D02*
X3281049D01*
X3264510Y2378149D01*
X3251851Y2365490D01*
X3245000Y2348951D01*
Y2331049D01*
X3251851Y2314509D01*
X3264510Y2301851D01*
X3281049Y2295000D01*
X3298951D01*
X3315490Y2301851D01*
X3328149Y2314509D01*
X3335000Y2331049D01*
Y2348951D01*
X3328149Y2365490D01*
X3315490Y2378149D01*
X3298951Y2385000D01*
D02*
G37*
G36*
X3486450Y1699998D02*
X3468548D01*
X3452008Y1693147D01*
X3439350Y1680488D01*
X3432499Y1663949D01*
Y1646047D01*
X3439350Y1629508D01*
X3452008Y1616849D01*
X3468548Y1609998D01*
X3486450D01*
X3502989Y1616849D01*
X3515648Y1629508D01*
X3522499Y1646047D01*
Y1663949D01*
X3515648Y1680488D01*
X3502989Y1693147D01*
X3486450Y1699998D01*
D02*
G37*
G36*
X3428452Y1605001D02*
X3411545D01*
X3395924Y1598531D01*
X3394464Y1597071D01*
X3349198D01*
X3336439Y1594533D01*
X3325623Y1587306D01*
X3293598Y1555281D01*
X3286264D01*
X3270643Y1548810D01*
X3258688Y1536855D01*
X3252218Y1521234D01*
Y1504327D01*
X3258688Y1488707D01*
X3269194Y1478201D01*
X3269336Y1470032D01*
X3268169Y1464030D01*
X3260928Y1461031D01*
X3248973Y1449075D01*
X3242503Y1433455D01*
Y1416547D01*
X3248973Y1400927D01*
X3260928Y1388971D01*
X3276549Y1382501D01*
X3293456D01*
X3309076Y1388971D01*
X3321032Y1400927D01*
X3327502Y1416547D01*
Y1420350D01*
X3368811Y1461660D01*
X3448237D01*
X3450926Y1458970D01*
X3466546Y1452500D01*
X3483454D01*
X3499074Y1458970D01*
X3511030Y1470926D01*
X3517500Y1486546D01*
Y1503454D01*
X3511030Y1519074D01*
X3499074Y1531030D01*
X3483454Y1537500D01*
X3469390D01*
X3462661Y1544386D01*
X3460259Y1548642D01*
X3462498Y1554048D01*
Y1570955D01*
X3456028Y1586575D01*
X3444072Y1598531D01*
X3428452Y1605001D01*
D02*
G37*
G36*
X3588953Y1432786D02*
X3571051D01*
X3554511Y1425935D01*
X3541853Y1413277D01*
X3535002Y1396737D01*
Y1378835D01*
X3541853Y1362296D01*
X3554511Y1349637D01*
X3571051Y1342786D01*
X3588953D01*
X3605492Y1349637D01*
X3618151Y1362296D01*
X3625002Y1378835D01*
Y1396737D01*
X3618151Y1413277D01*
X3605492Y1425935D01*
X3588953Y1432786D01*
D02*
G37*
G36*
X3287445Y1112502D02*
X3267554D01*
X3249176Y1104890D01*
X3235111Y1090825D01*
X3227499Y1072448D01*
Y1052557D01*
X3235111Y1034180D01*
X3249176Y1020114D01*
X3267554Y1012502D01*
X3287445D01*
X3305822Y1020114D01*
X3319887Y1034180D01*
X3327499Y1052557D01*
Y1072448D01*
X3319887Y1090825D01*
X3305822Y1104890D01*
X3287445Y1112502D01*
D02*
G37*
%LPD*%
D10*
X2607500Y1495152D02*
Y2027500D01*
Y1495152D02*
X2617500Y1485152D01*
Y947500D02*
Y1485152D01*
X2607500Y2027500D02*
X2802500Y2222500D01*
X542196Y3300000D02*
X547500D01*
X846946Y2045193D02*
Y2309518D01*
X799130Y1997376D02*
X846946Y2045193D01*
X951297Y2059913D02*
X992414D01*
X947546Y2056162D02*
X951297Y2059913D01*
X892346Y2001141D02*
X924530Y1968957D01*
X892346Y2001141D02*
Y2207842D01*
X992414Y2059913D02*
X1112502Y2180001D01*
X846946Y2309518D02*
X912545Y2375116D01*
X892346Y2207842D02*
X912545Y2228040D01*
Y2295112D01*
X708330Y1616046D02*
Y2081455D01*
Y1616046D02*
X746248Y1578128D01*
Y1572824D02*
Y1578128D01*
X953075Y1757996D02*
X1047300Y1852221D01*
X899502Y1540000D02*
Y1618223D01*
X1510000Y2545893D02*
Y2780000D01*
X1494754Y2530648D02*
X1510000Y2545893D01*
X1427700Y2350670D02*
Y2829705D01*
X924530Y1824025D02*
Y1968957D01*
X712340Y2344889D02*
X805582Y2438131D01*
X815552D01*
X912545Y2535124D01*
X1420069Y2837335D02*
X1427700Y2829705D01*
X1420069Y2837335D02*
Y2842639D01*
X1737585Y2135104D02*
Y2295085D01*
X2102500Y2660000D01*
X233332Y728500D02*
X534530Y427302D01*
X206500Y728500D02*
X233332D01*
X897875Y1797370D02*
X924530Y1824025D01*
X897875Y1707055D02*
Y1797370D01*
Y1707055D02*
X910599Y1694331D01*
Y1671331D02*
Y1694331D01*
Y1671331D02*
X954702Y1627228D01*
Y1399127D02*
Y1627228D01*
Y1399127D02*
X1102698Y1251131D01*
Y532026D02*
Y1251131D01*
X997973Y427302D02*
X1102698Y532026D01*
X534530Y427302D02*
X997973D01*
X2780000Y3215001D02*
Y3559998D01*
X3015000Y2980000D02*
X3100000D01*
X2780000Y3215001D02*
X3015000Y2980000D01*
X3100000D02*
X3127500Y2952500D01*
X3025000Y2845000D02*
X3107500D01*
X2724799Y3145200D02*
Y3434999D01*
Y3145200D02*
X3025000Y2845000D01*
X1454800Y862700D02*
Y2200001D01*
X1490200Y734635D02*
Y827300D01*
X1454800Y862700D02*
X1490200Y827300D01*
X1384257Y628692D02*
X1490200Y734635D01*
X1535600Y677598D02*
Y2183062D01*
X1250000Y391998D02*
X1535600Y677598D01*
X1264376Y2111877D02*
X1494754Y2342255D01*
X1264376Y1825703D02*
Y2111877D01*
X1494754Y2342255D02*
Y2530648D01*
X1515374Y2203287D02*
X1535600Y2183062D01*
X1515374Y2203287D02*
Y2271212D01*
X1047300Y1852221D02*
Y1970270D01*
X1427700Y2350670D01*
X1112502Y2180001D02*
X1178966D01*
X3355001Y1495000D02*
X3475000D01*
X3418774Y1563731D02*
X3419998Y1562501D01*
X865199Y1652526D02*
X899502Y1618223D01*
X712340Y2085465D02*
Y2344889D01*
X350000Y3292500D02*
X534696D01*
X542196Y3300000D01*
X492969Y3142967D02*
X503365D01*
X549998Y3189600D01*
X482503Y3132500D02*
X492969Y3142967D01*
X753730Y2016181D02*
X767540Y2029991D01*
X753730Y1722790D02*
Y2016181D01*
Y1722790D02*
X819799Y1656720D01*
Y1547500D02*
Y1656720D01*
X1054348Y1771140D02*
X1209813D01*
X973205Y1689997D02*
X1054348Y1771140D01*
X969998Y1689997D02*
X973205D01*
X799130Y1741595D02*
Y1997376D01*
Y1741595D02*
X865199Y1675525D01*
Y1652526D02*
Y1675525D01*
X708330Y2081455D02*
X712340Y2085465D01*
X767540Y2029991D02*
Y2190107D01*
X1209813Y1771140D02*
X1264376Y1825703D01*
X1429696Y757500D02*
X1435000D01*
X1250000Y518998D02*
X1359694Y628692D01*
X1250000Y772998D02*
X1414198D01*
X1359694Y628692D02*
X1384257D01*
X1414198Y772998D02*
X1429696Y757500D01*
X3298248Y1512781D02*
X3349198Y1563731D01*
X3285002Y1425001D02*
X3355001Y1495000D01*
X3294718Y1512781D02*
X3298248D01*
X407500Y3132500D02*
X482503D01*
X3349198Y1563731D02*
X3418774D01*
D18*
X3890000Y1370000D02*
D03*
X3752002D02*
D03*
X3877998Y2600000D02*
D03*
X3740000D02*
D03*
D33*
X3350000Y3762002D02*
D03*
Y3900000D02*
D03*
D43*
X641010Y3389513D02*
X651500Y3399998D01*
X1607500Y1819245D02*
Y1839290D01*
X1609791Y1841581D01*
X2742500Y1207500D02*
X2750000Y1215000D01*
X2930459D01*
X3010257Y1135202D01*
X3025000Y3092500D02*
Y3535000D01*
X2750000Y3810000D02*
X3025000Y3535000D01*
X480000Y2600000D02*
X491999D01*
X480000Y2578352D02*
Y2600000D01*
Y2578352D02*
X516010Y2542342D01*
Y2535261D02*
Y2542342D01*
Y2535261D02*
X628269Y2423003D01*
X1240000Y1300000D02*
X1277795D01*
X1394923Y1182872D01*
X1394927D01*
X1349954Y3264952D02*
X1370000Y3285002D01*
X1594185Y2189505D02*
X1609791Y2173905D01*
X1349954Y2590048D02*
Y3264952D01*
Y2590048D02*
X1370000Y2570002D01*
X1609791Y1841581D02*
Y2173905D01*
X628269Y2423003D02*
X641010D01*
D45*
X2975000Y2536044D02*
X2985000Y2526044D01*
X2975000Y2536044D02*
Y2662500D01*
X2985000Y2405000D02*
Y2526044D01*
X2802500Y2222500D02*
X2985000Y2405000D01*
D46*
X2297498Y616500D02*
D03*
Y362500D02*
D03*
X2043498Y743500D02*
D03*
Y489500D02*
D03*
X491999Y2600000D02*
D03*
X237999Y2727000D02*
D03*
Y2473000D02*
D03*
X491999Y2346000D02*
D03*
X587500Y982500D02*
D03*
X333500D02*
D03*
X206500Y728500D02*
D03*
X460500D02*
D03*
X237999Y1817000D02*
D03*
X491999Y1690000D02*
D03*
X237999Y1563000D02*
D03*
X491999Y1436000D02*
D03*
D47*
X2117498Y222500D02*
D03*
X417999Y2867000D02*
D03*
X727500Y802500D02*
D03*
X417999Y1957000D02*
D03*
D48*
X299999Y299999D02*
D03*
X3699998D02*
D03*
D49*
X299999D02*
D03*
D50*
X894999Y3842502D02*
D03*
X1554998D02*
D03*
D51*
X2617500Y947500D02*
D03*
X2750000Y3810000D02*
D03*
X2975000Y2662500D02*
D03*
X3025000Y3092500D02*
D03*
X2802500Y2222500D02*
D03*
X651500Y3399998D02*
D03*
X547500Y3300000D02*
D03*
X947546Y2056162D02*
D03*
X960000Y2127500D02*
D03*
X746248Y1572824D02*
D03*
X953075Y1757996D02*
D03*
X899502Y1540000D02*
D03*
X1607500Y1819245D02*
D03*
X1510000Y2780000D02*
D03*
X1589289Y2842639D02*
D03*
X1500000Y3150000D02*
D03*
X1420069Y2842639D02*
D03*
X912545Y2375116D02*
D03*
Y2295112D02*
D03*
Y2535124D02*
D03*
X1737585Y2135104D02*
D03*
X2742500Y1207500D02*
D03*
X1515374Y2271212D02*
D03*
X1178966Y2180001D02*
D03*
X3590000Y3380000D02*
D03*
X3010257Y1135202D02*
D03*
X3215000Y300000D02*
D03*
X3115000D02*
D03*
X3315000Y200000D02*
D03*
X3315000Y300465D02*
D03*
X3315000Y100000D02*
D03*
X3115000D02*
D03*
X3215000Y200000D02*
D03*
X3115000D02*
D03*
X3215000Y100000D02*
D03*
X3105713Y536000D02*
D03*
Y613500D02*
D03*
Y697500D02*
D03*
Y463500D02*
D03*
X3206785Y602500D02*
D03*
Y697500D02*
D03*
Y527500D02*
D03*
Y452500D02*
D03*
X3307857Y455000D02*
D03*
Y605000D02*
D03*
Y527500D02*
D03*
Y697500D02*
D03*
X3408928D02*
D03*
Y467500D02*
D03*
Y542500D02*
D03*
X3510000Y467500D02*
D03*
Y540000D02*
D03*
Y697500D02*
D03*
X3611072Y547500D02*
D03*
Y697500D02*
D03*
X3712143Y622500D02*
D03*
Y697500D02*
D03*
X3813215Y622500D02*
D03*
Y697500D02*
D03*
X3611072Y617500D02*
D03*
X3510000D02*
D03*
X3408928D02*
D03*
X3287502Y3745001D02*
D03*
X3205002D02*
D03*
X3479998Y3747501D02*
D03*
X3372500Y3745001D02*
D03*
X3712499Y1323333D02*
D03*
Y1230000D02*
D03*
Y1510000D02*
D03*
Y1416667D02*
D03*
X3475000Y1495000D02*
D03*
X3419998Y1562501D02*
D03*
X3430200Y3450000D02*
D03*
X549998Y3189600D02*
D03*
X1780000Y3790000D02*
D03*
X969998Y1689997D02*
D03*
X1727998Y3030000D02*
D03*
X1454800Y2200001D02*
D03*
X1240000Y1300000D02*
D03*
X3902500Y1406666D02*
D03*
Y1313333D02*
D03*
Y1220000D02*
D03*
X3920000Y2570000D02*
D03*
Y2763333D02*
D03*
Y2860000D02*
D03*
Y2666666D02*
D03*
X3712999Y2610000D02*
D03*
Y2689168D02*
D03*
X3920000Y2110000D02*
D03*
X3090000Y1880000D02*
D03*
X1394927Y1182872D02*
D03*
X2520000Y1730000D02*
D03*
X3430000Y2790000D02*
D03*
X3950000Y3950000D02*
D03*
Y3850000D02*
D03*
Y3750000D02*
D03*
X3955000Y730000D02*
D03*
X3330000Y3192500D02*
D03*
X3107500Y2845000D02*
D03*
X3127500Y2952500D02*
D03*
X2724799Y3434999D02*
D03*
X3417501Y3625000D02*
D03*
X3224256Y3489256D02*
D03*
X1435000Y757500D02*
D03*
X2102500Y2660000D02*
D03*
X767540Y2190107D02*
D03*
X3902500Y1499999D02*
D03*
X3294718Y1512781D02*
D03*
X1370000Y3285002D02*
D03*
X407500Y3132500D02*
D03*
X350000Y3292500D02*
D03*
X1594185Y2189505D02*
D03*
X819799Y1547500D02*
D03*
X3712999Y2768335D02*
D03*
X3457499Y3932499D02*
D03*
X3350001D02*
D03*
X3239999D02*
D03*
X2588981Y3692098D02*
D03*
Y2930098D02*
D03*
X1792402Y899998D02*
D03*
Y137998D02*
D03*
X3285002Y1425001D02*
D03*
X3712999Y2847503D02*
D03*
X2780000Y3559998D02*
D03*
X1370000Y2570002D02*
D03*
X1250000Y772998D02*
D03*
Y518998D02*
D03*
Y391998D02*
D03*
D52*
X567502Y3657498D02*
D03*
X722498D02*
D03*
X1737585Y2527623D02*
D03*
X1815536Y3199460D02*
D03*
X1210000Y1162500D02*
D03*
X1147500Y1295000D02*
D03*
X972002Y490002D02*
D03*
X1896949Y3577104D02*
D03*
X1210000Y1690000D02*
D03*
X1130000Y1540000D02*
D03*
X861830Y1849996D02*
D03*
X1110000Y1840000D02*
D03*
X3090000Y2017998D02*
D03*
X1985000Y964497D02*
D03*
X1250000Y899998D02*
D03*
X1039998D02*
D03*
X2046580Y3692098D02*
D03*
X722498Y3907500D02*
D03*
X572501D02*
D03*
X715000Y3530001D02*
D03*
X572501Y3527501D02*
D03*
X997499Y3302498D02*
D03*
X1737584Y2707630D02*
D03*
X3277499Y1062502D02*
D03*
X3102498Y845500D02*
D03*
X2750000Y3671997D02*
D03*
X1250000Y137998D02*
D03*
D53*
X3947500Y3499998D02*
D03*
Y3619998D02*
D03*
X3290000Y2340000D02*
D03*
X2960000Y1965000D02*
D03*
X3580002Y1387786D02*
D03*
X3947500Y3359998D02*
D03*
X3477499Y1654998D02*
D03*
X3310001Y2622499D02*
D03*
D54*
X3920002Y3559998D02*
D03*
X3744001D02*
D03*
X3928002Y1949999D02*
D03*
X3752001D02*
D03*
X3928000Y750000D02*
D03*
X3752000D02*
D03*
X3752001Y910002D02*
D03*
X3928002D02*
D03*
X3752001Y1070000D02*
D03*
X3928002D02*
D03*
X3752001Y1230002D02*
D03*
X3928002D02*
D03*
X3742001Y1499999D02*
D03*
X3918002D02*
D03*
X3752001Y1669999D02*
D03*
X3928002D02*
D03*
X3752001Y2110001D02*
D03*
X3928002D02*
D03*
X3762001Y2279998D02*
D03*
X3938002D02*
D03*
X3762001Y2440000D02*
D03*
X3938002D02*
D03*
X3742001Y2750000D02*
D03*
X3918002D02*
D03*
X3744001Y3750000D02*
D03*
X3920002D02*
D03*
X3744001Y3190001D02*
D03*
X3920002D02*
D03*
X3744001Y3370001D02*
D03*
X3920002D02*
D03*
D55*
X497739Y1695740D02*
X536250D01*
X491999Y1690000D02*
X497739Y1695740D01*
X536250D02*
X604088Y1763579D01*
Y2094169D01*
X1589289Y2842639D02*
X1712639D01*
X1930000Y3060000D01*
Y3640000D01*
X628269Y2118350D02*
Y2423003D01*
X604088Y2094169D02*
X628269Y2118350D01*
X1710131Y3790000D02*
X1780000D01*
X1602633Y3682502D02*
X1710131Y3790000D01*
X1780000D02*
X1930000Y3640000D01*
X642498Y2906258D02*
X806258D01*
X1582502Y3682502D01*
X1602633D01*
X641010Y3389513D02*
X642498Y3388025D01*
X641010Y2423003D02*
Y2904769D01*
X642498Y2906258D01*
Y3388025D01*
%TF.MD5,810472bbe107542eb59e6bd6c68e5fde*%
M02*
