%TF.GenerationSoftware,Altium Limited,Altium Designer,22.10.1 (41)*%
G04 Layer_Physical_Order=2*
G04 Layer_Color=36540*
%FSLAX45Y45*%
%MOMM*%
%TF.SameCoordinates,4984C9B7-3A7D-463B-8CDD-18E092C92588*%
%TF.FilePolarity,Positive*%
%TF.FileFunction,Copper,L2,Inr,Signal*%
%TF.Part,Single*%
G01*
G75*
%TA.AperFunction,ComponentPad*%
%ADD46C,1.30000*%
%ADD47C,0.75000*%
%TA.AperFunction,WasherPad*%
%ADD48C,3.00000*%
%TA.AperFunction,SMDPad,CuDef*%
%ADD49C,3.00000*%
%TA.AperFunction,ComponentPad*%
%ADD50O,0.90000X1.80000*%
%TA.AperFunction,ViaPad*%
%ADD51C,0.45000*%
%ADD52C,0.60000*%
%ADD53C,0.50000*%
G36*
X4000000Y20391D02*
X1657773D01*
Y1097500D01*
X2052500Y1495000D01*
X2350000D01*
X2355000Y2082500D01*
X2487500Y2215000D01*
X2492500Y4000000D01*
X4000000D01*
Y20391D01*
D02*
G37*
G36*
X2335000Y2475000D02*
X1875000Y2015000D01*
Y1815000D01*
X1560000Y1500000D01*
Y20391D01*
X20391D01*
Y4000000D01*
X2335000D01*
Y2475000D01*
D02*
G37*
%LPC*%
G36*
X3380954Y3787501D02*
X3364047D01*
X3348426Y3781031D01*
X3336471Y3769076D01*
X3336351Y3768787D01*
X3323651D01*
X3323531Y3769076D01*
X3311576Y3781031D01*
X3295955Y3787501D01*
X3279048D01*
X3263428Y3781031D01*
X3253810Y3771414D01*
X3246252Y3770031D01*
X3238694Y3771414D01*
X3229077Y3781031D01*
X3213456Y3787501D01*
X3196549D01*
X3180928Y3781031D01*
X3168973Y3769076D01*
X3162503Y3753455D01*
Y3736548D01*
X3168973Y3720927D01*
X3180928Y3708972D01*
X3196549Y3702502D01*
X3213456D01*
X3229077Y3708972D01*
X3238694Y3718589D01*
X3246252Y3719972D01*
X3253810Y3718589D01*
X3263428Y3708972D01*
X3279048Y3702502D01*
X3295955D01*
X3311576Y3708972D01*
X3323531Y3720927D01*
X3323651Y3721216D01*
X3336351D01*
X3336471Y3720927D01*
X3348426Y3708972D01*
X3364047Y3702502D01*
X3380954D01*
X3396574Y3708972D01*
X3408530Y3720927D01*
X3415000Y3736548D01*
Y3753455D01*
X3408530Y3769076D01*
X3396574Y3781031D01*
X3380954Y3787501D01*
D02*
G37*
G36*
X2758454Y3852500D02*
X2741546D01*
X2725926Y3846030D01*
X2713970Y3834074D01*
X2707500Y3818454D01*
Y3801546D01*
X2713970Y3785926D01*
X2725926Y3773970D01*
X2741546Y3767500D01*
X2758454D01*
X2774074Y3773970D01*
X2786030Y3785926D01*
X2792500Y3801546D01*
Y3818454D01*
X2786030Y3834074D01*
X2774074Y3846030D01*
X2758454Y3852500D01*
D02*
G37*
G36*
X3488452Y3790001D02*
X3471544D01*
X3455924Y3783530D01*
X3443968Y3771575D01*
X3437498Y3755954D01*
Y3739047D01*
X3443968Y3723427D01*
X3455924Y3711471D01*
X3471544Y3705001D01*
X3488452D01*
X3504072Y3711471D01*
X3516028Y3723427D01*
X3522498Y3739047D01*
Y3755954D01*
X3516028Y3771575D01*
X3504072Y3783530D01*
X3488452Y3790001D01*
D02*
G37*
G36*
X2788453Y3602498D02*
X2771546D01*
X2755925Y3596028D01*
X2743970Y3584072D01*
X2737500Y3568452D01*
Y3551544D01*
X2743970Y3535924D01*
X2755925Y3523968D01*
X2771546Y3517498D01*
X2788453D01*
X2804074Y3523968D01*
X2816029Y3535924D01*
X2822499Y3551544D01*
Y3568452D01*
X2816029Y3584072D01*
X2804074Y3596028D01*
X2788453Y3602498D01*
D02*
G37*
G36*
X2733253Y3477499D02*
X2716346D01*
X2700725Y3471029D01*
X2688770Y3459074D01*
X2682300Y3443453D01*
Y3426546D01*
X2688770Y3410925D01*
X2700725Y3398970D01*
X2716346Y3392500D01*
X2733253D01*
X2748874Y3398970D01*
X2760829Y3410925D01*
X2767299Y3426546D01*
Y3443453D01*
X2760829Y3459074D01*
X2748874Y3471029D01*
X2733253Y3477499D01*
D02*
G37*
G36*
X3033454Y3135000D02*
X3016546D01*
X3000926Y3128530D01*
X2988970Y3116574D01*
X2982500Y3100954D01*
Y3084046D01*
X2988970Y3068426D01*
X3000926Y3056470D01*
X3016546Y3050000D01*
X3033454D01*
X3049074Y3056470D01*
X3061030Y3068426D01*
X3067500Y3084046D01*
Y3100954D01*
X3061030Y3116574D01*
X3049074Y3128530D01*
X3033454Y3135000D01*
D02*
G37*
G36*
X3135954Y2995000D02*
X3119046D01*
X3103426Y2988530D01*
X3091470Y2976574D01*
X3085000Y2960954D01*
Y2944046D01*
X3091470Y2928426D01*
X3103426Y2916470D01*
X3119046Y2910000D01*
X3135954D01*
X3151574Y2916470D01*
X3163530Y2928426D01*
X3170000Y2944046D01*
Y2960954D01*
X3163530Y2976574D01*
X3151574Y2988530D01*
X3135954Y2995000D01*
D02*
G37*
G36*
X3115954Y2887500D02*
X3099046D01*
X3083426Y2881030D01*
X3071470Y2869074D01*
X3065000Y2853454D01*
Y2836546D01*
X3071470Y2820926D01*
X3083426Y2808970D01*
X3099046Y2802500D01*
X3115954D01*
X3131574Y2808970D01*
X3143530Y2820926D01*
X3150000Y2836546D01*
Y2853454D01*
X3143530Y2869074D01*
X3131574Y2881030D01*
X3115954Y2887500D01*
D02*
G37*
G36*
X2983454Y2705000D02*
X2966546D01*
X2950926Y2698530D01*
X2938970Y2686574D01*
X2932500Y2670954D01*
Y2654046D01*
X2938970Y2638426D01*
X2950926Y2626470D01*
X2966546Y2620000D01*
X2983454D01*
X2999074Y2626470D01*
X3011030Y2638426D01*
X3017500Y2654046D01*
Y2670954D01*
X3011030Y2686574D01*
X2999074Y2698530D01*
X2983454Y2705000D01*
D02*
G37*
G36*
X3721453Y2890002D02*
X3704545D01*
X3688925Y2883532D01*
X3676969Y2871577D01*
X3670499Y2855956D01*
Y2839049D01*
X3676969Y2823428D01*
X3684231Y2816167D01*
X3687511Y2807919D01*
X3684231Y2799671D01*
X3676969Y2792409D01*
X3670499Y2776789D01*
Y2759881D01*
X3676969Y2744261D01*
X3684231Y2736999D01*
X3687511Y2728751D01*
X3684231Y2720503D01*
X3676969Y2713242D01*
X3670499Y2697621D01*
Y2680714D01*
X3676969Y2665093D01*
X3684231Y2657832D01*
X3687511Y2649584D01*
X3684231Y2641336D01*
X3676969Y2634074D01*
X3670499Y2618454D01*
Y2601546D01*
X3676969Y2585926D01*
X3688925Y2573970D01*
X3704545Y2567500D01*
X3721453D01*
X3737073Y2573970D01*
X3749029Y2585926D01*
X3755499Y2601546D01*
Y2618454D01*
X3749029Y2634074D01*
X3741767Y2641336D01*
X3738487Y2649584D01*
X3741767Y2657832D01*
X3749029Y2665093D01*
X3755499Y2680714D01*
Y2697621D01*
X3749029Y2713242D01*
X3741767Y2720503D01*
X3738487Y2728751D01*
X3741767Y2736999D01*
X3749029Y2744261D01*
X3755499Y2759881D01*
Y2776789D01*
X3749029Y2792409D01*
X3741767Y2799671D01*
X3738487Y2807919D01*
X3741767Y2816167D01*
X3749029Y2823428D01*
X3755499Y2839049D01*
Y2855956D01*
X3749029Y2871577D01*
X3737073Y2883532D01*
X3721453Y2890002D01*
D02*
G37*
G36*
X2810954Y2265000D02*
X2794046D01*
X2778426Y2258530D01*
X2766470Y2246574D01*
X2760000Y2230954D01*
Y2214046D01*
X2766470Y2198426D01*
X2778426Y2186470D01*
X2794046Y2180000D01*
X2810954D01*
X2826574Y2186470D01*
X2838530Y2198426D01*
X2845000Y2214046D01*
Y2230954D01*
X2838530Y2246574D01*
X2826574Y2258530D01*
X2810954Y2265000D01*
D02*
G37*
G36*
X3098454Y1922500D02*
X3081546D01*
X3065926Y1916030D01*
X3053970Y1904074D01*
X3047500Y1888454D01*
Y1871546D01*
X3053970Y1855926D01*
X3065926Y1843970D01*
X3081546Y1837500D01*
X3098454D01*
X3114074Y1843970D01*
X3126030Y1855926D01*
X3132500Y1871546D01*
Y1888454D01*
X3126030Y1904074D01*
X3114074Y1916030D01*
X3098454Y1922500D01*
D02*
G37*
G36*
X3428452Y1605001D02*
X3411545D01*
X3395924Y1598531D01*
X3383969Y1586575D01*
X3377498Y1570955D01*
Y1554048D01*
X3383969Y1538427D01*
X3395924Y1526472D01*
X3411545Y1520002D01*
X3425608D01*
X3432338Y1513115D01*
X3434739Y1508859D01*
X3432500Y1503454D01*
Y1486546D01*
X3438970Y1470926D01*
X3450926Y1458970D01*
X3466546Y1452500D01*
X3483454D01*
X3499074Y1458970D01*
X3511030Y1470926D01*
X3517500Y1486546D01*
Y1503454D01*
X3511030Y1519074D01*
X3499074Y1531030D01*
X3483454Y1537500D01*
X3469390D01*
X3462661Y1544386D01*
X3460259Y1548642D01*
X3462498Y1554048D01*
Y1570955D01*
X3456028Y1586575D01*
X3444072Y1598531D01*
X3428452Y1605001D01*
D02*
G37*
G36*
X3303171Y1555281D02*
X3286264D01*
X3270643Y1548810D01*
X3258688Y1536855D01*
X3252218Y1521234D01*
Y1504327D01*
X3258688Y1488707D01*
X3269194Y1478201D01*
X3269336Y1470032D01*
X3268169Y1464030D01*
X3260928Y1461031D01*
X3248973Y1449075D01*
X3242503Y1433455D01*
Y1416547D01*
X3248973Y1400927D01*
X3260928Y1388971D01*
X3276549Y1382501D01*
X3293456D01*
X3309076Y1388971D01*
X3321032Y1400927D01*
X3327502Y1416547D01*
Y1433455D01*
X3321032Y1449075D01*
X3310526Y1459581D01*
X3310384Y1467750D01*
X3311551Y1473752D01*
X3318792Y1476751D01*
X3330747Y1488707D01*
X3337217Y1504327D01*
Y1521234D01*
X3330747Y1536855D01*
X3318792Y1548810D01*
X3303171Y1555281D01*
D02*
G37*
G36*
X3720952Y1552500D02*
X3704045D01*
X3688424Y1546030D01*
X3676469Y1534074D01*
X3669999Y1518454D01*
Y1501546D01*
X3676469Y1485926D01*
X3688424Y1473970D01*
X3697511Y1470207D01*
Y1456460D01*
X3688424Y1452696D01*
X3676469Y1440741D01*
X3669999Y1425120D01*
Y1408213D01*
X3676469Y1392593D01*
X3688424Y1380637D01*
X3697511Y1376873D01*
Y1363127D01*
X3688424Y1359363D01*
X3676469Y1347408D01*
X3669999Y1331787D01*
Y1314880D01*
X3676469Y1299259D01*
X3688424Y1287304D01*
X3697511Y1283540D01*
Y1269793D01*
X3688424Y1266030D01*
X3676469Y1254074D01*
X3669999Y1238454D01*
Y1221546D01*
X3676469Y1205926D01*
X3688424Y1193970D01*
X3704045Y1187500D01*
X3720952D01*
X3736573Y1193970D01*
X3748528Y1205926D01*
X3754998Y1221546D01*
Y1238454D01*
X3748528Y1254074D01*
X3736573Y1266030D01*
X3727486Y1269793D01*
Y1283540D01*
X3736573Y1287304D01*
X3748528Y1299259D01*
X3754998Y1314880D01*
Y1331787D01*
X3748528Y1347408D01*
X3736573Y1359363D01*
X3727486Y1363127D01*
Y1376873D01*
X3736573Y1380637D01*
X3748528Y1392593D01*
X3754998Y1408213D01*
Y1425120D01*
X3748528Y1440741D01*
X3736573Y1452696D01*
X3727486Y1456460D01*
Y1470207D01*
X3736573Y1473970D01*
X3748528Y1485926D01*
X3754998Y1501546D01*
Y1518454D01*
X3748528Y1534074D01*
X3736573Y1546030D01*
X3720952Y1552500D01*
D02*
G37*
G36*
X2750954Y1250000D02*
X2734046D01*
X2718426Y1243530D01*
X2706470Y1231574D01*
X2700000Y1215954D01*
Y1199046D01*
X2706470Y1183426D01*
X2718426Y1171470D01*
X2734046Y1165000D01*
X2750954D01*
X2766574Y1171470D01*
X2778530Y1183426D01*
X2785000Y1199046D01*
Y1215954D01*
X2778530Y1231574D01*
X2766574Y1243530D01*
X2750954Y1250000D01*
D02*
G37*
G36*
X3018711Y1177702D02*
X3001804D01*
X2986183Y1171232D01*
X2974228Y1159276D01*
X2967758Y1143656D01*
Y1126748D01*
X2974228Y1111128D01*
X2986183Y1099172D01*
X3001804Y1092702D01*
X3018711D01*
X3034331Y1099172D01*
X3046287Y1111128D01*
X3052757Y1126748D01*
Y1143656D01*
X3046287Y1159276D01*
X3034331Y1171232D01*
X3018711Y1177702D01*
D02*
G37*
G36*
X2625954Y990000D02*
X2609046D01*
X2593426Y983530D01*
X2581470Y971574D01*
X2575000Y955954D01*
Y939046D01*
X2581470Y923426D01*
X2593426Y911470D01*
X2609046Y905000D01*
X2625954D01*
X2641574Y911470D01*
X2653530Y923426D01*
X2660000Y939046D01*
Y955954D01*
X2653530Y971574D01*
X2641574Y983530D01*
X2625954Y990000D01*
D02*
G37*
G36*
X2054689Y828499D02*
X2032308D01*
X2010689Y822707D01*
X1991307Y811517D01*
X1975481Y795691D01*
X1964291Y776308D01*
X1958498Y754690D01*
Y732309D01*
X1964291Y710691D01*
X1975481Y691308D01*
X1991307Y675483D01*
X2010689Y664292D01*
X2032308Y658500D01*
X2054689D01*
X2076307Y664292D01*
X2095689Y675483D01*
X2111515Y691308D01*
X2122705Y710691D01*
X2128498Y732309D01*
Y754690D01*
X2122705Y776308D01*
X2111515Y795691D01*
X2095689Y811517D01*
X2076307Y822707D01*
X2054689Y828499D01*
D02*
G37*
G36*
X3821669Y740000D02*
X3804762D01*
X3789141Y733530D01*
X3777185Y721574D01*
X3770715Y705954D01*
Y689046D01*
X3777185Y673426D01*
X3782315Y668297D01*
X3788113Y660000D01*
X3782315Y651703D01*
X3777185Y646574D01*
X3770715Y630954D01*
Y614046D01*
X3777185Y598426D01*
X3789141Y586470D01*
X3804762Y580000D01*
X3821669D01*
X3837289Y586470D01*
X3849245Y598426D01*
X3855715Y614046D01*
Y630954D01*
X3849245Y646574D01*
X3844116Y651703D01*
X3838317Y660000D01*
X3844116Y668297D01*
X3849245Y673426D01*
X3855715Y689046D01*
Y705954D01*
X3849245Y721574D01*
X3837289Y733530D01*
X3821669Y740000D01*
D02*
G37*
G36*
X3720597D02*
X3703690D01*
X3688069Y733530D01*
X3676114Y721574D01*
X3669644Y705954D01*
Y689046D01*
X3676114Y673426D01*
X3681243Y668297D01*
X3687041Y660000D01*
X3681243Y651703D01*
X3676114Y646574D01*
X3669644Y630954D01*
Y614046D01*
X3676114Y598426D01*
X3688069Y586470D01*
X3703690Y580000D01*
X3720597D01*
X3736218Y586470D01*
X3748173Y598426D01*
X3754643Y614046D01*
Y630954D01*
X3748173Y646574D01*
X3743044Y651703D01*
X3737246Y660000D01*
X3743044Y668297D01*
X3748173Y673426D01*
X3754643Y689046D01*
Y705954D01*
X3748173Y721574D01*
X3736218Y733530D01*
X3720597Y740000D01*
D02*
G37*
G36*
X2308689Y701499D02*
X2286308D01*
X2264689Y695707D01*
X2245307Y684517D01*
X2229481Y668691D01*
X2218291Y649308D01*
X2212498Y627690D01*
Y605309D01*
X2218291Y583691D01*
X2229481Y564308D01*
X2245307Y548483D01*
X2264689Y537292D01*
X2286308Y531500D01*
X2308689D01*
X2330307Y537292D01*
X2349689Y548483D01*
X2365515Y564308D01*
X2376705Y583691D01*
X2382498Y605309D01*
Y627690D01*
X2376705Y649308D01*
X2365515Y668691D01*
X2349689Y684517D01*
X2330307Y695707D01*
X2308689Y701499D01*
D02*
G37*
G36*
X3619525Y740000D02*
X3602618D01*
X3586998Y733530D01*
X3575042Y721574D01*
X3568572Y705954D01*
Y689046D01*
X3575042Y673426D01*
X3582893Y665576D01*
X3585644Y657500D01*
X3582893Y649424D01*
X3575042Y641574D01*
X3568572Y625954D01*
Y609046D01*
X3575042Y593426D01*
X3585968Y582500D01*
X3575042Y571574D01*
X3568572Y555954D01*
Y539046D01*
X3575042Y523426D01*
X3586998Y511470D01*
X3602618Y505000D01*
X3619525D01*
X3635146Y511470D01*
X3647101Y523426D01*
X3653572Y539046D01*
Y555954D01*
X3647101Y571574D01*
X3636176Y582500D01*
X3647101Y593426D01*
X3653572Y609046D01*
Y625954D01*
X3647101Y641574D01*
X3639251Y649424D01*
X3636499Y657500D01*
X3639251Y665576D01*
X3647101Y673426D01*
X3653572Y689046D01*
Y705954D01*
X3647101Y721574D01*
X3635146Y733530D01*
X3619525Y740000D01*
D02*
G37*
G36*
X3518454D02*
X3501546D01*
X3485926Y733530D01*
X3473970Y721574D01*
X3467500Y705954D01*
Y689046D01*
X3473970Y673426D01*
X3481821Y665576D01*
X3484573Y657500D01*
X3481821Y649424D01*
X3473970Y641574D01*
X3467500Y625954D01*
Y609046D01*
X3473970Y593426D01*
X3480350Y587047D01*
X3484549Y578750D01*
X3480350Y570453D01*
X3473970Y564074D01*
X3467500Y548454D01*
Y531546D01*
X3473970Y515926D01*
X3477850Y512047D01*
X3485717Y503750D01*
X3477850Y495453D01*
X3473970Y491574D01*
X3467500Y475954D01*
Y459046D01*
X3473970Y443426D01*
X3485926Y431470D01*
X3501546Y425000D01*
X3518454D01*
X3534074Y431470D01*
X3546030Y443426D01*
X3552500Y459046D01*
Y475954D01*
X3546030Y491574D01*
X3542151Y495453D01*
X3534284Y503750D01*
X3542151Y512047D01*
X3546030Y515926D01*
X3552500Y531546D01*
Y548454D01*
X3546030Y564074D01*
X3539651Y570453D01*
X3535451Y578750D01*
X3539651Y587047D01*
X3546030Y593426D01*
X3552500Y609046D01*
Y625954D01*
X3546030Y641574D01*
X3538179Y649424D01*
X3535428Y657500D01*
X3538179Y665576D01*
X3546030Y673426D01*
X3552500Y689046D01*
Y705954D01*
X3546030Y721574D01*
X3534074Y733530D01*
X3518454Y740000D01*
D02*
G37*
G36*
X3417382D02*
X3400475D01*
X3384854Y733530D01*
X3372899Y721574D01*
X3366429Y705954D01*
Y689046D01*
X3372899Y673426D01*
X3380749Y665576D01*
X3383501Y657500D01*
X3380749Y649424D01*
X3372899Y641574D01*
X3366429Y625954D01*
Y609046D01*
X3372899Y593426D01*
X3378028Y588297D01*
X3383826Y580000D01*
X3378028Y571703D01*
X3372899Y566574D01*
X3366429Y550954D01*
Y534046D01*
X3372899Y518426D01*
X3378028Y513297D01*
X3383826Y505000D01*
X3378028Y496703D01*
X3372899Y491574D01*
X3366429Y475954D01*
Y459046D01*
X3372899Y443426D01*
X3384854Y431470D01*
X3400475Y425000D01*
X3417382D01*
X3433003Y431470D01*
X3444958Y443426D01*
X3451428Y459046D01*
Y475954D01*
X3444958Y491574D01*
X3439829Y496703D01*
X3434030Y505000D01*
X3439829Y513297D01*
X3444958Y518426D01*
X3451428Y534046D01*
Y550954D01*
X3444958Y566574D01*
X3439829Y571703D01*
X3434030Y580000D01*
X3439829Y588297D01*
X3444958Y593426D01*
X3451428Y609046D01*
Y625954D01*
X3444958Y641574D01*
X3437108Y649424D01*
X3434356Y657500D01*
X3437108Y665576D01*
X3444958Y673426D01*
X3451428Y689046D01*
Y705954D01*
X3444958Y721574D01*
X3433003Y733530D01*
X3417382Y740000D01*
D02*
G37*
G36*
X3114167D02*
X3097260D01*
X3081639Y733530D01*
X3069684Y721574D01*
X3063214Y705954D01*
Y689046D01*
X3069684Y673426D01*
X3080362Y662747D01*
X3081062Y655500D01*
X3080362Y648253D01*
X3069684Y637574D01*
X3063214Y621954D01*
Y605046D01*
X3069684Y589426D01*
X3076063Y583047D01*
X3080262Y574750D01*
X3076063Y566453D01*
X3069684Y560074D01*
X3063214Y544454D01*
Y527546D01*
X3069684Y511926D01*
X3073563Y508047D01*
X3081430Y499750D01*
X3073563Y491453D01*
X3069684Y487574D01*
X3063214Y471954D01*
Y455046D01*
X3069684Y439426D01*
X3081639Y427470D01*
X3097260Y421000D01*
X3114167D01*
X3129787Y427470D01*
X3141743Y439426D01*
X3148213Y455046D01*
Y471954D01*
X3141743Y487574D01*
X3137864Y491453D01*
X3129997Y499750D01*
X3137864Y508047D01*
X3141743Y511926D01*
X3148213Y527546D01*
Y544454D01*
X3141743Y560074D01*
X3135364Y566453D01*
X3131165Y574750D01*
X3135364Y583047D01*
X3141743Y589426D01*
X3148213Y605046D01*
Y621954D01*
X3141743Y637574D01*
X3131064Y648253D01*
X3130364Y655500D01*
X3131064Y662747D01*
X3141743Y673426D01*
X3148213Y689046D01*
Y705954D01*
X3141743Y721574D01*
X3129787Y733530D01*
X3114167Y740000D01*
D02*
G37*
G36*
X3316310D02*
X3299403D01*
X3283783Y733530D01*
X3271827Y721574D01*
X3265357Y705954D01*
Y689046D01*
X3271827Y673426D01*
X3283783Y661470D01*
X3291863Y658123D01*
Y644377D01*
X3283783Y641030D01*
X3271827Y629074D01*
X3265357Y613454D01*
Y596546D01*
X3271827Y580926D01*
X3278206Y574547D01*
X3282405Y566250D01*
X3278206Y557953D01*
X3271827Y551574D01*
X3265357Y535954D01*
Y519046D01*
X3271827Y503426D01*
X3275706Y499547D01*
X3283573Y491250D01*
X3275706Y482953D01*
X3271827Y479074D01*
X3265357Y463454D01*
Y446546D01*
X3271827Y430926D01*
X3283783Y418970D01*
X3299403Y412500D01*
X3316310D01*
X3331931Y418970D01*
X3343886Y430926D01*
X3350357Y446546D01*
Y463454D01*
X3343886Y479074D01*
X3340007Y482953D01*
X3332140Y491250D01*
X3340007Y499547D01*
X3343886Y503426D01*
X3350357Y519046D01*
Y535954D01*
X3343886Y551574D01*
X3337507Y557953D01*
X3333308Y566250D01*
X3337507Y574547D01*
X3343886Y580926D01*
X3350357Y596546D01*
Y613454D01*
X3343886Y629074D01*
X3331931Y641030D01*
X3323850Y644377D01*
Y658123D01*
X3331931Y661470D01*
X3343886Y673426D01*
X3350357Y689046D01*
Y705954D01*
X3343886Y721574D01*
X3331931Y733530D01*
X3316310Y740000D01*
D02*
G37*
G36*
X3215239D02*
X3198331D01*
X3182711Y733530D01*
X3170755Y721574D01*
X3164285Y705954D01*
Y689046D01*
X3170755Y673426D01*
X3182711Y661470D01*
X3194148Y656733D01*
Y643267D01*
X3182711Y638530D01*
X3170755Y626574D01*
X3164285Y610954D01*
Y594046D01*
X3170755Y578426D01*
X3175884Y573297D01*
X3181683Y565000D01*
X3175884Y556703D01*
X3170755Y551574D01*
X3164285Y535954D01*
Y519046D01*
X3170755Y503426D01*
X3175885Y498297D01*
X3181683Y490000D01*
X3175885Y481703D01*
X3170755Y476574D01*
X3164285Y460954D01*
Y444046D01*
X3170755Y428426D01*
X3182711Y416470D01*
X3198331Y410000D01*
X3215239D01*
X3230859Y416470D01*
X3242815Y428426D01*
X3249285Y444046D01*
Y460954D01*
X3242815Y476574D01*
X3237685Y481703D01*
X3231887Y490000D01*
X3237685Y498297D01*
X3242815Y503426D01*
X3249285Y519046D01*
Y535954D01*
X3242815Y551574D01*
X3237686Y556703D01*
X3231887Y565000D01*
X3237686Y573297D01*
X3242815Y578426D01*
X3249285Y594046D01*
Y610954D01*
X3242815Y626574D01*
X3230859Y638530D01*
X3219422Y643267D01*
Y656733D01*
X3230859Y661470D01*
X3242815Y673426D01*
X3249285Y689046D01*
Y705954D01*
X3242815Y721574D01*
X3230859Y733530D01*
X3215239Y740000D01*
D02*
G37*
G36*
X2054689Y574499D02*
X2032308D01*
X2010689Y568707D01*
X1991307Y557517D01*
X1975481Y541691D01*
X1964291Y522308D01*
X1958498Y500690D01*
Y478309D01*
X1964291Y456691D01*
X1975481Y437308D01*
X1991307Y421483D01*
X2010689Y410292D01*
X2032308Y404500D01*
X2054689D01*
X2076307Y410292D01*
X2095689Y421483D01*
X2111515Y437308D01*
X2122705Y456691D01*
X2128498Y478309D01*
Y500690D01*
X2122705Y522308D01*
X2111515Y541691D01*
X2095689Y557517D01*
X2076307Y568707D01*
X2054689Y574499D01*
D02*
G37*
G36*
X2130005Y317500D02*
X2104991D01*
X2080830Y311026D01*
X2059167Y298519D01*
X2041480Y280831D01*
X2028973Y259168D01*
X2022499Y235007D01*
Y209993D01*
X2028973Y185831D01*
X2041480Y164169D01*
X2059167Y146481D01*
X2080830Y133974D01*
X2104991Y127500D01*
X2130005D01*
X2154167Y133974D01*
X2175830Y146481D01*
X2193517Y164169D01*
X2206024Y185831D01*
X2212498Y209993D01*
Y235007D01*
X2206024Y259168D01*
X2193517Y280831D01*
X2175830Y298519D01*
X2154167Y311026D01*
X2130005Y317500D01*
D02*
G37*
G36*
X3718711Y489999D02*
X3681284D01*
X3644577Y482698D01*
X3609999Y468375D01*
X3578880Y447582D01*
X3552415Y421117D01*
X3531622Y389998D01*
X3517300Y355420D01*
X3509998Y318713D01*
Y281286D01*
X3517300Y244579D01*
X3531622Y210001D01*
X3552415Y178882D01*
X3578880Y152417D01*
X3609999Y131624D01*
X3644577Y117301D01*
X3681284Y110000D01*
X3718711D01*
X3755418Y117301D01*
X3789996Y131624D01*
X3821116Y152417D01*
X3847580Y178882D01*
X3868373Y210001D01*
X3882696Y244579D01*
X3889998Y281286D01*
Y318713D01*
X3882696Y355420D01*
X3868373Y389998D01*
X3847580Y421117D01*
X3821116Y447582D01*
X3789996Y468375D01*
X3755418Y482698D01*
X3718711Y489999D01*
D02*
G37*
G36*
X1788454Y3832500D02*
X1771546D01*
X1755926Y3826030D01*
X1743970Y3814074D01*
X1737500Y3798454D01*
Y3781546D01*
X1743970Y3765926D01*
X1755926Y3753970D01*
X1771546Y3747500D01*
X1788454D01*
X1804074Y3753970D01*
X1816030Y3765926D01*
X1822500Y3781546D01*
Y3798454D01*
X1816030Y3814074D01*
X1804074Y3826030D01*
X1788454Y3832500D01*
D02*
G37*
G36*
X1554998Y3953062D02*
X1538030Y3950829D01*
X1522218Y3944279D01*
X1508640Y3933860D01*
X1498221Y3920282D01*
X1491671Y3904470D01*
X1489437Y3887502D01*
Y3797502D01*
X1491671Y3780533D01*
X1498221Y3764721D01*
X1508640Y3751144D01*
X1522218Y3740725D01*
X1538030Y3734175D01*
X1554998Y3731941D01*
X1571967Y3734175D01*
X1587778Y3740725D01*
X1601356Y3751144D01*
X1611775Y3764721D01*
X1618325Y3780533D01*
X1620559Y3797502D01*
Y3887502D01*
X1618325Y3904470D01*
X1611775Y3920282D01*
X1601356Y3933860D01*
X1587778Y3944279D01*
X1571967Y3950829D01*
X1554998Y3953062D01*
D02*
G37*
G36*
X894999D02*
X878031Y3950829D01*
X862219Y3944279D01*
X848641Y3933860D01*
X838222Y3920282D01*
X831673Y3904470D01*
X829439Y3887502D01*
Y3797502D01*
X831673Y3780533D01*
X838222Y3764721D01*
X848641Y3751144D01*
X862219Y3740725D01*
X878031Y3734175D01*
X894999Y3731941D01*
X911968Y3734175D01*
X927780Y3740725D01*
X941358Y3751144D01*
X951777Y3764721D01*
X958326Y3780533D01*
X960560Y3797502D01*
Y3887502D01*
X958326Y3904470D01*
X951777Y3920282D01*
X941358Y3933860D01*
X927780Y3944279D01*
X911968Y3950829D01*
X894999Y3953062D01*
D02*
G37*
G36*
X1906895Y3627104D02*
X1887003D01*
X1868626Y3619492D01*
X1854561Y3605427D01*
X1846949Y3587050D01*
Y3567159D01*
X1854561Y3548782D01*
X1868626Y3534716D01*
X1887003Y3527104D01*
X1906895D01*
X1925272Y3534716D01*
X1939337Y3548782D01*
X1946949Y3567159D01*
Y3587050D01*
X1939337Y3605427D01*
X1925272Y3619492D01*
X1906895Y3627104D01*
D02*
G37*
G36*
X659953Y3442498D02*
X643046D01*
X627426Y3436028D01*
X615470Y3424072D01*
X609000Y3408452D01*
Y3391545D01*
X615470Y3375924D01*
X627426Y3363969D01*
X643046Y3357498D01*
X659953D01*
X675574Y3363969D01*
X687529Y3375924D01*
X694000Y3391545D01*
Y3408452D01*
X687529Y3424072D01*
X675574Y3436028D01*
X659953Y3442498D01*
D02*
G37*
G36*
X555954Y3342500D02*
X539046D01*
X523426Y3336030D01*
X511470Y3324074D01*
X505000Y3308454D01*
Y3291546D01*
X511470Y3275926D01*
X523426Y3263970D01*
X539046Y3257500D01*
X555954D01*
X571574Y3263970D01*
X583530Y3275926D01*
X590000Y3291546D01*
Y3308454D01*
X583530Y3324074D01*
X571574Y3336030D01*
X555954Y3342500D01*
D02*
G37*
G36*
X358454Y3335000D02*
X341546D01*
X325926Y3328530D01*
X313970Y3316574D01*
X307500Y3300954D01*
Y3284046D01*
X313970Y3268426D01*
X325926Y3256470D01*
X341546Y3250000D01*
X358454D01*
X374074Y3256470D01*
X386030Y3268426D01*
X392500Y3284046D01*
Y3300954D01*
X386030Y3316574D01*
X374074Y3328530D01*
X358454Y3335000D01*
D02*
G37*
G36*
X1378453Y3327502D02*
X1361546D01*
X1345926Y3321032D01*
X1333970Y3309076D01*
X1327500Y3293456D01*
Y3276549D01*
X1333970Y3260928D01*
X1345926Y3248973D01*
X1361546Y3242503D01*
X1378453D01*
X1394074Y3248973D01*
X1406029Y3260928D01*
X1412500Y3276549D01*
Y3293456D01*
X1406029Y3309076D01*
X1394074Y3321032D01*
X1378453Y3327502D01*
D02*
G37*
G36*
X1825482Y3249460D02*
X1805590D01*
X1787213Y3241848D01*
X1773148Y3227783D01*
X1765536Y3209406D01*
Y3189515D01*
X1773148Y3171138D01*
X1787213Y3157072D01*
X1805590Y3149461D01*
X1825482D01*
X1843859Y3157072D01*
X1857924Y3171138D01*
X1865536Y3189515D01*
Y3209406D01*
X1857924Y3227783D01*
X1843859Y3241848D01*
X1825482Y3249460D01*
D02*
G37*
G36*
X558452Y3232100D02*
X541545D01*
X525924Y3225630D01*
X513968Y3213674D01*
X507498Y3198054D01*
Y3181146D01*
X513968Y3165526D01*
X525924Y3153570D01*
X541545Y3147100D01*
X558452D01*
X574072Y3153570D01*
X586028Y3165526D01*
X592498Y3181146D01*
Y3198054D01*
X586028Y3213674D01*
X574072Y3225630D01*
X558452Y3232100D01*
D02*
G37*
G36*
X415954Y3175000D02*
X399046D01*
X383426Y3168530D01*
X371470Y3156574D01*
X365000Y3140954D01*
Y3124046D01*
X371470Y3108426D01*
X383426Y3096470D01*
X399046Y3090000D01*
X415954D01*
X431574Y3096470D01*
X443530Y3108426D01*
X450000Y3124046D01*
Y3140954D01*
X443530Y3156574D01*
X431574Y3168530D01*
X415954Y3175000D01*
D02*
G37*
G36*
X1597743Y2885139D02*
X1580836D01*
X1565215Y2878668D01*
X1553260Y2866713D01*
X1546789Y2851092D01*
Y2834185D01*
X1553260Y2818565D01*
X1565215Y2806609D01*
X1580836Y2800139D01*
X1597743D01*
X1613363Y2806609D01*
X1625319Y2818565D01*
X1631789Y2834185D01*
Y2851092D01*
X1625319Y2866713D01*
X1613363Y2878668D01*
X1597743Y2885139D01*
D02*
G37*
G36*
X1428523D02*
X1411616D01*
X1395995Y2878668D01*
X1384040Y2866713D01*
X1377570Y2851092D01*
Y2834185D01*
X1384040Y2818565D01*
X1395995Y2806609D01*
X1411616Y2800139D01*
X1428523D01*
X1444143Y2806609D01*
X1456099Y2818565D01*
X1462569Y2834185D01*
Y2851092D01*
X1456099Y2866713D01*
X1444143Y2878668D01*
X1428523Y2885139D01*
D02*
G37*
G36*
X430506Y2961999D02*
X405492D01*
X381330Y2955525D01*
X359668Y2943018D01*
X341980Y2925331D01*
X329473Y2903668D01*
X322999Y2879507D01*
Y2854493D01*
X329473Y2830331D01*
X341980Y2808668D01*
X359668Y2790981D01*
X381330Y2778474D01*
X405492Y2772000D01*
X430506D01*
X454667Y2778474D01*
X476330Y2790981D01*
X494018Y2808668D01*
X506525Y2830331D01*
X512999Y2854493D01*
Y2879507D01*
X506525Y2903668D01*
X494018Y2925331D01*
X476330Y2943018D01*
X454667Y2955525D01*
X430506Y2961999D01*
D02*
G37*
G36*
X1518454Y2822500D02*
X1501546D01*
X1485926Y2816030D01*
X1473970Y2804074D01*
X1467500Y2788454D01*
Y2771546D01*
X1473970Y2755926D01*
X1485926Y2743970D01*
X1501546Y2737500D01*
X1518454D01*
X1534074Y2743970D01*
X1546030Y2755926D01*
X1552500Y2771546D01*
Y2788454D01*
X1546030Y2804074D01*
X1534074Y2816030D01*
X1518454Y2822500D01*
D02*
G37*
G36*
X2110954Y2702500D02*
X2094046D01*
X2078426Y2696030D01*
X2066470Y2684074D01*
X2060000Y2668454D01*
Y2651546D01*
X2066470Y2635926D01*
X2078426Y2623970D01*
X2094046Y2617500D01*
X2110954D01*
X2126574Y2623970D01*
X2138530Y2635926D01*
X2145000Y2651546D01*
Y2668454D01*
X2138530Y2684074D01*
X2126574Y2696030D01*
X2110954Y2702500D01*
D02*
G37*
G36*
X1378453Y2612502D02*
X1361546D01*
X1345926Y2606032D01*
X1333970Y2594077D01*
X1327500Y2578456D01*
Y2561549D01*
X1333970Y2545928D01*
X1345926Y2533973D01*
X1361546Y2527503D01*
X1378453D01*
X1394074Y2533973D01*
X1406029Y2545928D01*
X1412500Y2561549D01*
Y2578456D01*
X1406029Y2594077D01*
X1394074Y2606032D01*
X1378453Y2612502D01*
D02*
G37*
G36*
X503190Y2685000D02*
X480809D01*
X459191Y2679207D01*
X439808Y2668017D01*
X423982Y2652191D01*
X412792Y2632809D01*
X406999Y2611190D01*
Y2588809D01*
X412792Y2567191D01*
X423982Y2547809D01*
X439808Y2531983D01*
X459191Y2520793D01*
X480809Y2515000D01*
X503190D01*
X524808Y2520793D01*
X544190Y2531983D01*
X560016Y2547809D01*
X571207Y2567191D01*
X576999Y2588809D01*
Y2611190D01*
X571207Y2632809D01*
X560016Y2652191D01*
X544190Y2668017D01*
X524808Y2679207D01*
X503190Y2685000D01*
D02*
G37*
G36*
X920998Y2577623D02*
X904091D01*
X888470Y2571153D01*
X876515Y2559198D01*
X870045Y2543577D01*
Y2526670D01*
X876515Y2511050D01*
X888470Y2499094D01*
X904091Y2492624D01*
X920998D01*
X936619Y2499094D01*
X948574Y2511050D01*
X955044Y2526670D01*
Y2543577D01*
X948574Y2559198D01*
X936619Y2571153D01*
X920998Y2577623D01*
D02*
G37*
G36*
X249190Y2558000D02*
X226809D01*
X205191Y2552207D01*
X185808Y2541017D01*
X169982Y2525191D01*
X158792Y2505809D01*
X152999Y2484190D01*
Y2461809D01*
X158792Y2440191D01*
X169982Y2420809D01*
X185808Y2404983D01*
X205191Y2393793D01*
X226809Y2388000D01*
X249190D01*
X270808Y2393793D01*
X290190Y2404983D01*
X306016Y2420809D01*
X317207Y2440191D01*
X322999Y2461809D01*
Y2484190D01*
X317207Y2505809D01*
X306016Y2525191D01*
X290190Y2541017D01*
X270808Y2552207D01*
X249190Y2558000D01*
D02*
G37*
G36*
X503190Y2431000D02*
X480809D01*
X459191Y2425207D01*
X439808Y2414017D01*
X423982Y2398191D01*
X412792Y2378809D01*
X406999Y2357190D01*
Y2334809D01*
X412792Y2313191D01*
X423982Y2293809D01*
X439808Y2277983D01*
X459191Y2266793D01*
X480809Y2261000D01*
X503190D01*
X524808Y2266793D01*
X544190Y2277983D01*
X560016Y2293809D01*
X571207Y2313191D01*
X576999Y2334809D01*
Y2357190D01*
X571207Y2378809D01*
X560016Y2398191D01*
X544190Y2414017D01*
X524808Y2425207D01*
X503190Y2431000D01*
D02*
G37*
G36*
X920998Y2417616D02*
X904091D01*
X888470Y2411146D01*
X876515Y2399190D01*
X870045Y2383570D01*
Y2366662D01*
X876515Y2351042D01*
X884368Y2343189D01*
X887118Y2335114D01*
X884368Y2327039D01*
X876515Y2319186D01*
X870045Y2303566D01*
Y2286658D01*
X876515Y2271038D01*
X888470Y2259082D01*
X904091Y2252612D01*
X920998D01*
X936619Y2259082D01*
X948574Y2271038D01*
X955044Y2286658D01*
Y2303566D01*
X948574Y2319186D01*
X940721Y2327039D01*
X937971Y2335114D01*
X940721Y2343189D01*
X948574Y2351042D01*
X955044Y2366662D01*
Y2383570D01*
X948574Y2399190D01*
X936619Y2411146D01*
X920998Y2417616D01*
D02*
G37*
G36*
X1523828Y2313712D02*
X1506921D01*
X1491300Y2307242D01*
X1479345Y2295286D01*
X1472874Y2279666D01*
Y2262758D01*
X1478123Y2250088D01*
X1471588Y2241293D01*
X1469665Y2239845D01*
X1463254Y2242500D01*
X1446347D01*
X1430726Y2236030D01*
X1418771Y2224075D01*
X1412300Y2208454D01*
Y2191547D01*
X1418771Y2175927D01*
X1430726Y2163971D01*
X1446347Y2157501D01*
X1463254D01*
X1478874Y2163971D01*
X1490830Y2175927D01*
X1497300Y2191547D01*
Y2208454D01*
X1492052Y2221125D01*
X1498587Y2229920D01*
X1500509Y2231368D01*
X1506921Y2228712D01*
X1523828D01*
X1539448Y2235182D01*
X1551404Y2247138D01*
X1557874Y2262758D01*
Y2279666D01*
X1551404Y2295286D01*
X1539448Y2307242D01*
X1523828Y2313712D01*
D02*
G37*
G36*
X775993Y2232607D02*
X759086D01*
X743466Y2226137D01*
X731510Y2214182D01*
X725040Y2198561D01*
Y2181654D01*
X731510Y2166033D01*
X743466Y2154078D01*
X759086Y2147608D01*
X775993D01*
X791614Y2154078D01*
X803569Y2166033D01*
X810040Y2181654D01*
Y2198561D01*
X803569Y2214182D01*
X791614Y2226137D01*
X775993Y2232607D01*
D02*
G37*
G36*
X1602639Y2232005D02*
X1585732D01*
X1570111Y2225535D01*
X1558156Y2213580D01*
X1551685Y2197959D01*
Y2181052D01*
X1558156Y2165431D01*
X1570111Y2153476D01*
X1585732Y2147006D01*
X1602639D01*
X1618259Y2153476D01*
X1630215Y2165431D01*
X1636685Y2181052D01*
Y2197959D01*
X1630215Y2213580D01*
X1618259Y2225535D01*
X1602639Y2232005D01*
D02*
G37*
G36*
X1187420Y2222501D02*
X1170513D01*
X1154892Y2216030D01*
X1142936Y2204075D01*
X1136466Y2188454D01*
Y2171547D01*
X1142936Y2155927D01*
X1154892Y2143971D01*
X1170513Y2137501D01*
X1187420D01*
X1203040Y2143971D01*
X1214996Y2155927D01*
X1221466Y2171547D01*
Y2188454D01*
X1214996Y2204075D01*
X1203040Y2216030D01*
X1187420Y2222501D01*
D02*
G37*
G36*
X1746038Y2177604D02*
X1729131D01*
X1713511Y2171134D01*
X1701555Y2159178D01*
X1695085Y2143558D01*
Y2126651D01*
X1701555Y2111030D01*
X1713511Y2099075D01*
X1729131Y2092604D01*
X1746038D01*
X1761659Y2099075D01*
X1773614Y2111030D01*
X1780085Y2126651D01*
Y2143558D01*
X1773614Y2159178D01*
X1761659Y2171134D01*
X1746038Y2177604D01*
D02*
G37*
G36*
X956000Y2098662D02*
X939093D01*
X923472Y2092192D01*
X911517Y2080236D01*
X905046Y2064616D01*
Y2047709D01*
X911517Y2032088D01*
X923472Y2020133D01*
X939093Y2013662D01*
X956000D01*
X971620Y2020133D01*
X983576Y2032088D01*
X990046Y2047709D01*
Y2064616D01*
X983576Y2080236D01*
X971620Y2092192D01*
X956000Y2098662D01*
D02*
G37*
G36*
X430506Y2051999D02*
X405492D01*
X381330Y2045525D01*
X359668Y2033018D01*
X341980Y2015331D01*
X329473Y1993668D01*
X322999Y1969507D01*
Y1944493D01*
X329473Y1920331D01*
X341980Y1898669D01*
X359668Y1880981D01*
X381330Y1868474D01*
X405492Y1862000D01*
X430506D01*
X454667Y1868474D01*
X476330Y1880981D01*
X494018Y1898669D01*
X506525Y1920331D01*
X512999Y1944493D01*
Y1969507D01*
X506525Y1993668D01*
X494018Y2015331D01*
X476330Y2033018D01*
X454667Y2045525D01*
X430506Y2051999D01*
D02*
G37*
G36*
X1615954Y1861745D02*
X1599046D01*
X1583426Y1855274D01*
X1571470Y1843319D01*
X1565000Y1827698D01*
Y1810791D01*
X1571470Y1795171D01*
X1583426Y1783215D01*
X1599046Y1776745D01*
X1615954D01*
X1631574Y1783215D01*
X1643530Y1795171D01*
X1650000Y1810791D01*
Y1827698D01*
X1643530Y1843319D01*
X1631574Y1855274D01*
X1615954Y1861745D01*
D02*
G37*
G36*
X961529Y1800496D02*
X944622D01*
X929001Y1794025D01*
X917046Y1782070D01*
X910576Y1766449D01*
Y1749542D01*
X917046Y1733922D01*
X929001Y1721966D01*
X931172Y1707320D01*
X927498Y1698450D01*
Y1681543D01*
X933968Y1665922D01*
X945924Y1653967D01*
X961544Y1647497D01*
X978452D01*
X994072Y1653967D01*
X1006028Y1665922D01*
X1012498Y1681543D01*
Y1698450D01*
X1006028Y1714071D01*
X994072Y1726026D01*
X991901Y1740672D01*
X995575Y1749542D01*
Y1766449D01*
X989105Y1782070D01*
X977149Y1794025D01*
X961529Y1800496D01*
D02*
G37*
G36*
X503190Y1775000D02*
X480809D01*
X459191Y1769207D01*
X439808Y1758017D01*
X423982Y1742191D01*
X412792Y1722809D01*
X406999Y1701190D01*
Y1678809D01*
X412792Y1657191D01*
X423982Y1637809D01*
X439808Y1621983D01*
X459191Y1610793D01*
X480809Y1605000D01*
X503190D01*
X524808Y1610793D01*
X544190Y1621983D01*
X560016Y1637809D01*
X571207Y1657191D01*
X576999Y1678809D01*
Y1701190D01*
X571207Y1722809D01*
X560016Y1742191D01*
X544190Y1758017D01*
X524808Y1769207D01*
X503190Y1775000D01*
D02*
G37*
G36*
X754702Y1615324D02*
X737795D01*
X722174Y1608854D01*
X710219Y1596898D01*
X703748Y1581278D01*
Y1564370D01*
X710219Y1548750D01*
X722174Y1536794D01*
X737795Y1530324D01*
X754702D01*
X766234Y1535101D01*
X770555Y1536642D01*
X781176Y1529688D01*
X783770Y1523426D01*
X795725Y1511470D01*
X811346Y1505000D01*
X828253D01*
X843874Y1511470D01*
X849317Y1516914D01*
X863459Y1515927D01*
X864198Y1515201D01*
X875428Y1503970D01*
X891049Y1497500D01*
X907956D01*
X923577Y1503970D01*
X935532Y1515926D01*
X942002Y1531546D01*
Y1548454D01*
X935532Y1564074D01*
X923577Y1576030D01*
X907956Y1582500D01*
X891049D01*
X875428Y1576030D01*
X869985Y1570586D01*
X855843Y1571573D01*
X855104Y1572299D01*
X843874Y1583530D01*
X828253Y1590000D01*
X811346D01*
X799814Y1585223D01*
X795492Y1583682D01*
X784871Y1590636D01*
X782278Y1596898D01*
X770322Y1608854D01*
X754702Y1615324D01*
D02*
G37*
G36*
X249190Y1648000D02*
X226809D01*
X205191Y1642207D01*
X185808Y1631017D01*
X169982Y1615191D01*
X158792Y1595809D01*
X152999Y1574190D01*
Y1551809D01*
X158792Y1530191D01*
X169982Y1510809D01*
X185808Y1494983D01*
X205191Y1483793D01*
X226809Y1478000D01*
X249190D01*
X270808Y1483793D01*
X290190Y1494983D01*
X306016Y1510809D01*
X317207Y1530191D01*
X322999Y1551809D01*
Y1574190D01*
X317207Y1595809D01*
X306016Y1615191D01*
X290190Y1631017D01*
X270808Y1642207D01*
X249190Y1648000D01*
D02*
G37*
G36*
X503190Y1521000D02*
X480809D01*
X459191Y1515207D01*
X439808Y1504017D01*
X423982Y1488191D01*
X412792Y1468809D01*
X406999Y1447190D01*
Y1424809D01*
X412792Y1403191D01*
X423982Y1383809D01*
X439808Y1367983D01*
X459191Y1356793D01*
X480809Y1351000D01*
X503190D01*
X524808Y1356793D01*
X544190Y1367983D01*
X560016Y1383809D01*
X571207Y1403191D01*
X576999Y1424809D01*
Y1447190D01*
X571207Y1468809D01*
X560016Y1488191D01*
X544190Y1504017D01*
X524808Y1515207D01*
X503190Y1521000D01*
D02*
G37*
G36*
X1248454Y1342500D02*
X1231546D01*
X1215926Y1336030D01*
X1203970Y1324074D01*
X1197500Y1308454D01*
Y1291546D01*
X1203970Y1275926D01*
X1215926Y1263970D01*
X1231546Y1257500D01*
X1248454D01*
X1264074Y1263970D01*
X1276030Y1275926D01*
X1282500Y1291546D01*
Y1308454D01*
X1276030Y1324074D01*
X1264074Y1336030D01*
X1248454Y1342500D01*
D02*
G37*
G36*
X1403380Y1225372D02*
X1386473D01*
X1370853Y1218902D01*
X1358897Y1206946D01*
X1352427Y1191326D01*
Y1174418D01*
X1358897Y1158798D01*
X1370853Y1146842D01*
X1386473Y1140372D01*
X1403380D01*
X1419001Y1146842D01*
X1430956Y1158798D01*
X1437427Y1174418D01*
Y1191326D01*
X1430956Y1206946D01*
X1419001Y1218902D01*
X1403380Y1225372D01*
D02*
G37*
G36*
X344691Y1067500D02*
X322310D01*
X300692Y1061707D01*
X281309Y1050517D01*
X265483Y1034691D01*
X254293Y1015308D01*
X248500Y993690D01*
Y971309D01*
X254293Y949691D01*
X265483Y930309D01*
X281309Y914483D01*
X300692Y903292D01*
X322310Y897500D01*
X344691D01*
X366309Y903292D01*
X385691Y914483D01*
X401517Y930309D01*
X412708Y949691D01*
X418500Y971309D01*
Y993690D01*
X412708Y1015308D01*
X401517Y1034691D01*
X385691Y1050517D01*
X366309Y1061707D01*
X344691Y1067500D01*
D02*
G37*
G36*
X1258454Y815498D02*
X1241546D01*
X1225926Y809028D01*
X1213970Y797072D01*
X1207500Y781452D01*
Y764545D01*
X1213970Y748924D01*
X1225926Y736969D01*
X1241546Y730498D01*
X1258454D01*
X1274074Y736969D01*
X1286030Y748924D01*
X1292500Y764545D01*
Y781452D01*
X1286030Y797072D01*
X1274074Y809028D01*
X1258454Y815498D01*
D02*
G37*
G36*
X1443454Y800000D02*
X1426546D01*
X1410926Y793530D01*
X1398970Y781574D01*
X1392500Y765954D01*
Y749046D01*
X1398970Y733426D01*
X1410926Y721470D01*
X1426546Y715000D01*
X1443454D01*
X1459074Y721470D01*
X1471030Y733426D01*
X1477500Y749046D01*
Y765954D01*
X1471030Y781574D01*
X1459074Y793530D01*
X1443454Y800000D01*
D02*
G37*
G36*
X740007Y897500D02*
X714993D01*
X690831Y891026D01*
X669169Y878519D01*
X651481Y860831D01*
X638974Y839169D01*
X632500Y815007D01*
Y789993D01*
X638974Y765832D01*
X651481Y744169D01*
X669169Y726481D01*
X690831Y713974D01*
X714993Y707500D01*
X740007D01*
X764168Y713974D01*
X785831Y726481D01*
X803519Y744169D01*
X816026Y765832D01*
X822500Y789993D01*
Y815007D01*
X816026Y839169D01*
X803519Y860831D01*
X785831Y878519D01*
X764168Y891026D01*
X740007Y897500D01*
D02*
G37*
G36*
X471691Y813500D02*
X449310D01*
X427692Y807707D01*
X408309Y796517D01*
X392483Y780691D01*
X381293Y761308D01*
X375500Y739690D01*
Y717309D01*
X381293Y695691D01*
X392483Y676309D01*
X408309Y660483D01*
X427692Y649292D01*
X449310Y643500D01*
X471691D01*
X493309Y649292D01*
X512691Y660483D01*
X528517Y676309D01*
X539708Y695691D01*
X545500Y717309D01*
Y739690D01*
X539708Y761308D01*
X528517Y780691D01*
X512691Y796517D01*
X493309Y807707D01*
X471691Y813500D01*
D02*
G37*
G36*
X217691D02*
X195310D01*
X173692Y807707D01*
X154309Y796517D01*
X138483Y780691D01*
X127293Y761308D01*
X121500Y739690D01*
Y717309D01*
X127293Y695691D01*
X138483Y676309D01*
X154309Y660483D01*
X173692Y649292D01*
X195310Y643500D01*
X217691D01*
X239309Y649292D01*
X258691Y660483D01*
X274517Y676309D01*
X285708Y695691D01*
X291500Y717309D01*
Y739690D01*
X285708Y761308D01*
X274517Y780691D01*
X258691Y796517D01*
X239309Y807707D01*
X217691Y813500D01*
D02*
G37*
G36*
X1258454Y561498D02*
X1241546D01*
X1225926Y555028D01*
X1213970Y543072D01*
X1207500Y527452D01*
Y510545D01*
X1213970Y494924D01*
X1225926Y482969D01*
X1241546Y476498D01*
X1258454D01*
X1274074Y482969D01*
X1286030Y494924D01*
X1292500Y510545D01*
Y527452D01*
X1286030Y543072D01*
X1274074Y555028D01*
X1258454Y561498D01*
D02*
G37*
G36*
Y434498D02*
X1241546D01*
X1225926Y428028D01*
X1213970Y416072D01*
X1207500Y400452D01*
Y383545D01*
X1213970Y367924D01*
X1225926Y355969D01*
X1241546Y349498D01*
X1258454D01*
X1274074Y355969D01*
X1286030Y367924D01*
X1292500Y383545D01*
Y400452D01*
X1286030Y416072D01*
X1274074Y428028D01*
X1258454Y434498D01*
D02*
G37*
G36*
X318713Y489999D02*
X281286D01*
X244579Y482698D01*
X210001Y468375D01*
X178882Y447582D01*
X152417Y421117D01*
X131624Y389998D01*
X117301Y355420D01*
X110000Y318713D01*
Y281286D01*
X117301Y244579D01*
X131624Y210001D01*
X152417Y178882D01*
X178882Y152417D01*
X210001Y131624D01*
X244579Y117301D01*
X281286Y110000D01*
X318713D01*
X355420Y117301D01*
X389998Y131624D01*
X421117Y152417D01*
X447582Y178882D01*
X468375Y210001D01*
X482698Y244579D01*
X489999Y281286D01*
Y318713D01*
X482698Y355420D01*
X468375Y389998D01*
X447582Y421117D01*
X421117Y447582D01*
X389998Y468375D01*
X355420Y482698D01*
X318713Y489999D01*
D02*
G37*
%LPD*%
D46*
X2297498Y616500D02*
D03*
Y362500D02*
D03*
X2043498Y743500D02*
D03*
Y489500D02*
D03*
X491999Y2600000D02*
D03*
X237999Y2727000D02*
D03*
Y2473000D02*
D03*
X491999Y2346000D02*
D03*
X587500Y982500D02*
D03*
X333500D02*
D03*
X206500Y728500D02*
D03*
X460500D02*
D03*
X237999Y1817000D02*
D03*
X491999Y1690000D02*
D03*
X237999Y1563000D02*
D03*
X491999Y1436000D02*
D03*
D47*
X2117498Y222500D02*
D03*
X417999Y2867000D02*
D03*
X727500Y802500D02*
D03*
X417999Y1957000D02*
D03*
D48*
X299999Y299999D02*
D03*
X3699998D02*
D03*
D49*
X299999D02*
D03*
D50*
X894999Y3842502D02*
D03*
X1554998D02*
D03*
D51*
X2617500Y947500D02*
D03*
X2750000Y3810000D02*
D03*
X2975000Y2662500D02*
D03*
X3025000Y3092500D02*
D03*
X2802500Y2222500D02*
D03*
X651500Y3399998D02*
D03*
X547500Y3300000D02*
D03*
X947546Y2056162D02*
D03*
X960000Y2127500D02*
D03*
X746248Y1572824D02*
D03*
X953075Y1757996D02*
D03*
X899502Y1540000D02*
D03*
X1607500Y1819245D02*
D03*
X1510000Y2780000D02*
D03*
X1589289Y2842639D02*
D03*
X1500000Y3150000D02*
D03*
X1420069Y2842639D02*
D03*
X912545Y2375116D02*
D03*
Y2295112D02*
D03*
Y2535124D02*
D03*
X1737585Y2135104D02*
D03*
X2742500Y1207500D02*
D03*
X1515374Y2271212D02*
D03*
X1178966Y2180001D02*
D03*
X3590000Y3380000D02*
D03*
X3010257Y1135202D02*
D03*
X3215000Y300000D02*
D03*
X3115000D02*
D03*
X3315000Y200000D02*
D03*
X3315000Y300465D02*
D03*
X3315000Y100000D02*
D03*
X3115000D02*
D03*
X3215000Y200000D02*
D03*
X3115000D02*
D03*
X3215000Y100000D02*
D03*
X3105713Y536000D02*
D03*
Y613500D02*
D03*
Y697500D02*
D03*
Y463500D02*
D03*
X3206785Y602500D02*
D03*
Y697500D02*
D03*
Y527500D02*
D03*
Y452500D02*
D03*
X3307857Y455000D02*
D03*
Y605000D02*
D03*
Y527500D02*
D03*
Y697500D02*
D03*
X3408928D02*
D03*
Y467500D02*
D03*
Y542500D02*
D03*
X3510000Y467500D02*
D03*
Y540000D02*
D03*
Y697500D02*
D03*
X3611072Y547500D02*
D03*
Y697500D02*
D03*
X3712143Y622500D02*
D03*
Y697500D02*
D03*
X3813215Y622500D02*
D03*
Y697500D02*
D03*
X3611072Y617500D02*
D03*
X3510000D02*
D03*
X3408928D02*
D03*
X3287502Y3745001D02*
D03*
X3205002D02*
D03*
X3479998Y3747501D02*
D03*
X3372500Y3745001D02*
D03*
X3712499Y1323333D02*
D03*
Y1230000D02*
D03*
Y1510000D02*
D03*
Y1416667D02*
D03*
X3475000Y1495000D02*
D03*
X3419998Y1562501D02*
D03*
X3430200Y3450000D02*
D03*
X549998Y3189600D02*
D03*
X1780000Y3790000D02*
D03*
X969998Y1689997D02*
D03*
X1727998Y3030000D02*
D03*
X1454800Y2200001D02*
D03*
X1240000Y1300000D02*
D03*
X3902500Y1406666D02*
D03*
Y1313333D02*
D03*
Y1220000D02*
D03*
X3920000Y2570000D02*
D03*
Y2763333D02*
D03*
Y2860000D02*
D03*
Y2666666D02*
D03*
X3712999Y2610000D02*
D03*
Y2689168D02*
D03*
X3920000Y2110000D02*
D03*
X3090000Y1880000D02*
D03*
X1394927Y1182872D02*
D03*
X2520000Y1730000D02*
D03*
X3430000Y2790000D02*
D03*
X3950000Y3950000D02*
D03*
Y3850000D02*
D03*
Y3750000D02*
D03*
X3955000Y730000D02*
D03*
X3330000Y3192500D02*
D03*
X3107500Y2845000D02*
D03*
X3127500Y2952500D02*
D03*
X2724799Y3434999D02*
D03*
X3417501Y3625000D02*
D03*
X3224256Y3489256D02*
D03*
X1435000Y757500D02*
D03*
X2102500Y2660000D02*
D03*
X767540Y2190107D02*
D03*
X3902500Y1499999D02*
D03*
X3294718Y1512781D02*
D03*
X1370000Y3285002D02*
D03*
X407500Y3132500D02*
D03*
X350000Y3292500D02*
D03*
X1594185Y2189505D02*
D03*
X819799Y1547500D02*
D03*
X3712999Y2768335D02*
D03*
X3457499Y3932499D02*
D03*
X3350001D02*
D03*
X3239999D02*
D03*
X2588981Y3692098D02*
D03*
Y2930098D02*
D03*
X1792402Y899998D02*
D03*
Y137998D02*
D03*
X3285002Y1425001D02*
D03*
X3712999Y2847503D02*
D03*
X2780000Y3559998D02*
D03*
X1370000Y2570002D02*
D03*
X1250000Y772998D02*
D03*
Y518998D02*
D03*
Y391998D02*
D03*
D52*
X567502Y3657498D02*
D03*
X722498D02*
D03*
X1737585Y2527623D02*
D03*
X1815536Y3199460D02*
D03*
X1210000Y1162500D02*
D03*
X1147500Y1295000D02*
D03*
X972002Y490002D02*
D03*
X1896949Y3577104D02*
D03*
X1210000Y1690000D02*
D03*
X1130000Y1540000D02*
D03*
X861830Y1849996D02*
D03*
X1110000Y1840000D02*
D03*
X3090000Y2017998D02*
D03*
X1985000Y964497D02*
D03*
X1250000Y899998D02*
D03*
X1039998D02*
D03*
X2046580Y3692098D02*
D03*
X722498Y3907500D02*
D03*
X572501D02*
D03*
X715000Y3530001D02*
D03*
X572501Y3527501D02*
D03*
X997499Y3302498D02*
D03*
X1737584Y2707630D02*
D03*
X3277499Y1062502D02*
D03*
X3102498Y845500D02*
D03*
X2750000Y3671997D02*
D03*
X1250000Y137998D02*
D03*
D53*
X3947500Y3499998D02*
D03*
Y3619998D02*
D03*
X3290000Y2340000D02*
D03*
X2960000Y1965000D02*
D03*
X3580002Y1387786D02*
D03*
X3947500Y3359998D02*
D03*
X3477499Y1654998D02*
D03*
X3310001Y2622499D02*
D03*
%TF.MD5,4317ed8169411606fb1b6e714a85e3e2*%
M02*
