%TF.GenerationSoftware,Altium Limited,Altium Designer,20.2.4 (192)*%
G04 Layer_Color=255*
%FSLAX45Y45*%
%MOMM*%
%TF.SameCoordinates,538F140D-ADF5-4649-B7F1-A5983F3DD12E*%
%TF.FilePolarity,Positive*%
%TF.FileFunction,Pads,Bot*%
%TF.Part,Single*%
G01*
G75*
%TA.AperFunction,SMDPad,CuDef*%
%ADD14R,0.81000X0.99000*%
%ADD20R,1.45000X0.95000*%
%ADD37R,0.95000X0.90000*%
%ADD39R,0.99000X0.81000*%
%TA.AperFunction,ComponentPad*%
%ADD42C,1.30000*%
%ADD43C,0.75000*%
%ADD44O,0.90000X1.80000*%
%TA.AperFunction,ViaPad*%
%ADD45C,1.55000*%
%TA.AperFunction,SMDPad,CuDef*%
%ADD47R,1.00000X0.88900*%
D14*
X3250001Y3800003D02*
D03*
X3387999D02*
D03*
X2912003Y3950000D02*
D03*
X3050002D02*
D03*
D20*
X3712698Y3212699D02*
D03*
Y3012699D02*
D03*
X2999999Y2999999D02*
D03*
Y3199999D02*
D03*
X3387298Y3187299D02*
D03*
Y2987299D02*
D03*
X4587301Y3187299D02*
D03*
Y2987299D02*
D03*
X4112702Y3012699D02*
D03*
Y3212699D02*
D03*
D37*
X4235557Y3577620D02*
D03*
Y3737620D02*
D03*
X3964442Y1272377D02*
D03*
Y1112378D02*
D03*
X1135558Y1327617D02*
D03*
Y1487622D02*
D03*
X2485563Y3277616D02*
D03*
Y3437621D02*
D03*
X2149998Y3800003D02*
D03*
Y3640003D02*
D03*
X3435558Y2127621D02*
D03*
Y2287621D02*
D03*
X3914440Y2112381D02*
D03*
Y2272381D02*
D03*
X4364441D02*
D03*
Y2112381D02*
D03*
X999998Y2750002D02*
D03*
Y2590002D02*
D03*
X4214439Y4012377D02*
D03*
Y4172377D02*
D03*
X1800001Y2950002D02*
D03*
Y2790002D02*
D03*
X999998Y2010004D02*
D03*
Y1849999D02*
D03*
X1835556Y1087623D02*
D03*
Y927618D02*
D03*
X1700002Y2400000D02*
D03*
Y2239996D02*
D03*
X2600000Y1700002D02*
D03*
Y1540002D02*
D03*
X2085564Y1737619D02*
D03*
Y1577619D02*
D03*
D39*
X2349998Y2300000D02*
D03*
Y2161997D02*
D03*
X1549999Y3438002D02*
D03*
Y3299998D02*
D03*
X1500002Y3800003D02*
D03*
Y3938006D02*
D03*
X3650000Y4138000D02*
D03*
Y4000002D02*
D03*
X4500006Y4549739D02*
D03*
Y4687743D02*
D03*
X1250000Y4411995D02*
D03*
Y4549999D02*
D03*
X2249998Y2661996D02*
D03*
Y2799999D02*
D03*
X3650000Y1649999D02*
D03*
Y1511996D02*
D03*
X4549999Y912002D02*
D03*
Y1050000D02*
D03*
D42*
X604002Y5300000D02*
D03*
X477002Y5046000D02*
D03*
X350002Y5300000D02*
D03*
X223002Y5046000D02*
D03*
X256022Y4017604D02*
D03*
X383022Y4271604D02*
D03*
X510022Y4017604D02*
D03*
X637022Y4271604D02*
D03*
X256022Y932404D02*
D03*
X383022Y1186404D02*
D03*
X510022Y932404D02*
D03*
X637022Y1186404D02*
D03*
X256022Y1960799D02*
D03*
X383022Y2214799D02*
D03*
X510022Y1960799D02*
D03*
X637022Y2214799D02*
D03*
Y3243199D02*
D03*
X510022Y2989199D02*
D03*
X383022Y3243199D02*
D03*
X256022Y2989199D02*
D03*
D43*
X744002Y5120000D02*
D03*
X777022Y4091600D02*
D03*
Y1006404D02*
D03*
Y2034799D02*
D03*
Y3063199D02*
D03*
D44*
X4530004Y302499D02*
D03*
X3870005D02*
D03*
D45*
X499999Y499999D02*
D03*
X5000000D02*
D03*
D47*
X3050002Y2249998D02*
D03*
Y2095058D02*
D03*
%TF.MD5,d7df22a981021fb9eb8df80e153f83f2*%
M02*
