%TF.GenerationSoftware,Altium Limited,Altium Designer,20.2.4 (192)*%
G04 Layer_Color=65535*
%FSLAX45Y45*%
%MOMM*%
%TF.SameCoordinates,538F140D-ADF5-4649-B7F1-A5983F3DD12E*%
%TF.FilePolarity,Positive*%
%TF.FileFunction,Legend,Top*%
%TF.Part,Single*%
G01*
G75*
%TA.AperFunction,NonConductor*%
%ADD49C,0.20320*%
%ADD50C,0.25400*%
%ADD61C,0.20000*%
%ADD62C,0.25000*%
%ADD63C,0.50000*%
%ADD64C,0.10000*%
%ADD65C,0.15000*%
%ADD66C,0.15240*%
%ADD67C,0.12700*%
D49*
X1132220Y3360161D02*
X1152540D01*
X1132220Y3268721D02*
X1152540D01*
X1869023Y3951742D02*
Y4048262D01*
X4197462Y781279D02*
X4217782D01*
X4197462Y689839D02*
X4217782D01*
X2831018Y5301737D02*
Y5398257D01*
X1168974Y3951742D02*
Y4048262D01*
X1219022Y851733D02*
Y948253D01*
X5045720Y3459841D02*
Y3480161D01*
X4954280Y3459841D02*
Y3480161D01*
X1132220Y3610163D02*
X1152540D01*
X1132220Y3518723D02*
X1152540D01*
X1001735Y2280976D02*
X1098255D01*
D50*
X5200000Y500000D02*
G03*
X5200000Y500000I-200000J0D01*
G01*
X700000D02*
G03*
X700000Y500000I-200000J0D01*
G01*
X1045002Y5122499D02*
X1365006D01*
X1045002Y5032502D02*
X1365006D01*
Y5122499D01*
X1045002Y5032502D02*
Y5122499D01*
X1689999Y5055006D02*
Y5145004D01*
X2009999Y5055006D02*
Y5145004D01*
X1689999Y5055006D02*
X2009999D01*
X1689999Y5145004D02*
X2009999D01*
X4899198Y3860302D02*
Y3910000D01*
X5000798Y3860302D02*
Y3910000D01*
X4899198Y3860302D02*
X5000798D01*
X5066040Y3074599D02*
Y3127096D01*
X4936500Y3072897D02*
Y3125399D01*
X4949200Y2560300D02*
Y2610002D01*
X5050800Y2560300D02*
Y2610002D01*
X4949200Y2560300D02*
X5050800D01*
X3635604Y2226198D02*
X3688100D01*
X3637300Y2096658D02*
X3689802D01*
X5066040Y1974601D02*
Y2027098D01*
X4936500Y1972899D02*
Y2025401D01*
X5287300Y1146668D02*
X5339801D01*
X5285598Y1276208D02*
X5338100D01*
X1576202Y854278D02*
Y945718D01*
X1334954Y1626175D02*
Y1499216D01*
X1360346Y1473825D01*
X1411129D01*
X1436521Y1499216D01*
Y1626175D01*
X1487304Y1473825D02*
X1538088D01*
X1512696D01*
Y1626175D01*
X1487304Y1600783D01*
X1614263Y1473825D02*
X1665047D01*
X1639655D01*
Y1626175D01*
X1614263Y1600783D01*
X1059562Y5476175D02*
Y5349217D01*
X1084954Y5323825D01*
X1135737D01*
X1161129Y5349217D01*
Y5476175D01*
X1211912Y5323825D02*
X1262696D01*
X1237304D01*
Y5476175D01*
X1211912Y5450784D01*
X1338871D02*
X1364263Y5476175D01*
X1415047D01*
X1440439Y5450784D01*
Y5349217D01*
X1415047Y5323825D01*
X1364263D01*
X1338871Y5349217D01*
Y5450784D01*
X2073041Y4026175D02*
Y3899216D01*
X2098433Y3873825D01*
X2149216D01*
X2174608Y3899216D01*
Y4026175D01*
X2225392Y3899216D02*
X2250784Y3873825D01*
X2301567D01*
X2326959Y3899216D01*
Y4000783D01*
X2301567Y4026175D01*
X2250784D01*
X2225392Y4000783D01*
Y3975392D01*
X2250784Y3950000D01*
X2326959D01*
X3373825Y773041D02*
X3500783D01*
X3526175Y798433D01*
Y849216D01*
X3500783Y874608D01*
X3373825D01*
X3399216Y925392D02*
X3373825Y950784D01*
Y1001567D01*
X3399216Y1026959D01*
X3424608D01*
X3450000Y1001567D01*
X3475392Y1026959D01*
X3500783D01*
X3526175Y1001567D01*
Y950784D01*
X3500783Y925392D01*
X3475392D01*
X3450000Y950784D01*
X3424608Y925392D01*
X3399216D01*
X3450000Y950784D02*
Y1001567D01*
X1973824Y2773041D02*
X2100783D01*
X2126175Y2798433D01*
Y2849216D01*
X2100783Y2874608D01*
X1973824D01*
Y2925392D02*
Y3026959D01*
X1999216D01*
X2100783Y2925392D01*
X2126175D01*
X1723041Y5476175D02*
Y5349217D01*
X1748433Y5323825D01*
X1799217D01*
X1824608Y5349217D01*
Y5476175D01*
X1976959D02*
X1926175Y5450784D01*
X1875392Y5400000D01*
Y5349217D01*
X1900784Y5323825D01*
X1951567D01*
X1976959Y5349217D01*
Y5374608D01*
X1951567Y5400000D01*
X1875392D01*
X3173041Y2676175D02*
Y2549216D01*
X3198433Y2523825D01*
X3249217D01*
X3274608Y2549216D01*
Y2676175D01*
X3426959D02*
X3325392D01*
Y2600000D01*
X3376175Y2625392D01*
X3401567D01*
X3426959Y2600000D01*
Y2549216D01*
X3401567Y2523825D01*
X3350784D01*
X3325392Y2549216D01*
X3436620Y4912311D02*
Y4785352D01*
X3462012Y4759960D01*
X3512795D01*
X3538187Y4785352D01*
Y4912311D01*
X3665146Y4759960D02*
Y4912311D01*
X3588971Y4836135D01*
X3690538D01*
X4026176Y4076959D02*
X3899217D01*
X3873825Y4051567D01*
Y4000783D01*
X3899217Y3975391D01*
X4026176D01*
X4000784Y3924608D02*
X4026176Y3899216D01*
Y3848432D01*
X4000784Y3823041D01*
X3975392D01*
X3950000Y3848432D01*
Y3873824D01*
Y3848432D01*
X3924608Y3823041D01*
X3899217D01*
X3873825Y3848432D01*
Y3899216D01*
X3899217Y3924608D01*
X1823824Y1573041D02*
X1950783D01*
X1976175Y1598433D01*
Y1649216D01*
X1950783Y1674608D01*
X1823824D01*
X1976175Y1826959D02*
Y1725392D01*
X1874608Y1826959D01*
X1849216D01*
X1823824Y1801567D01*
Y1750783D01*
X1849216Y1725392D01*
X2148433Y5426175D02*
Y5299216D01*
X2173825Y5273825D01*
X2224608D01*
X2250000Y5299216D01*
Y5426175D01*
X2300784Y5273825D02*
X2351567D01*
X2326176D01*
Y5426175D01*
X2300784Y5400783D01*
X4609562Y2223825D02*
Y2376175D01*
X4685737D01*
X4711129Y2350783D01*
Y2300000D01*
X4685737Y2274608D01*
X4609562D01*
X4660345D02*
X4711129Y2223825D01*
X4761912D02*
X4812696D01*
X4787304D01*
Y2376175D01*
X4761912Y2350783D01*
X4990439Y2223825D02*
X4888871D01*
X4990439Y2325392D01*
Y2350783D01*
X4965047Y2376175D01*
X4914263D01*
X4888871Y2350783D01*
X5109562Y3223825D02*
Y3376175D01*
X5185737D01*
X5211129Y3350783D01*
Y3300000D01*
X5185737Y3274608D01*
X5109562D01*
X5160345D02*
X5211129Y3223825D01*
X5261913D02*
X5312696D01*
X5287304D01*
Y3376175D01*
X5261913Y3350783D01*
X5388871D02*
X5414263Y3376175D01*
X5465047D01*
X5490439Y3350783D01*
Y3249217D01*
X5465047Y3223825D01*
X5414263D01*
X5388871Y3249217D01*
Y3350783D01*
X3523041Y2323825D02*
Y2476175D01*
X3599217D01*
X3624608Y2450784D01*
Y2400000D01*
X3599217Y2374608D01*
X3523041D01*
X3573825D02*
X3624608Y2323825D01*
X3776959Y2476175D02*
X3726175Y2450784D01*
X3675392Y2400000D01*
Y2349217D01*
X3700784Y2323825D01*
X3751567D01*
X3776959Y2349217D01*
Y2374608D01*
X3751567Y2400000D01*
X3675392D01*
X5023041Y1323825D02*
Y1476175D01*
X5099217D01*
X5124608Y1450783D01*
Y1400000D01*
X5099217Y1374608D01*
X5023041D01*
X5073825D02*
X5124608Y1323825D01*
X5276959Y1476175D02*
X5175392D01*
Y1400000D01*
X5226175Y1425392D01*
X5251567D01*
X5276959Y1400000D01*
Y1349217D01*
X5251567Y1323825D01*
X5200784D01*
X5175392Y1349217D01*
X1523041Y1023825D02*
Y1176175D01*
X1599217D01*
X1624608Y1150784D01*
Y1100000D01*
X1599217Y1074608D01*
X1523041D01*
X1573825D02*
X1624608Y1023825D01*
X1751567D02*
Y1176175D01*
X1675392Y1100000D01*
X1776959D01*
X5450783Y4700000D02*
X5349216D01*
X5323825Y4674608D01*
Y4623825D01*
X5349216Y4598433D01*
X5450783D01*
X5476175Y4623825D01*
Y4674608D01*
X5425392Y4649216D02*
X5476175Y4700000D01*
Y4674608D02*
X5450783Y4700000D01*
X5476175Y4750783D02*
Y4801567D01*
Y4776175D01*
X5323825D01*
X5349216Y4750783D01*
X1048433Y1176175D02*
Y1023825D01*
X1150000D01*
X1200784D02*
X1251567D01*
X1226176D01*
Y1176175D01*
X1200784Y1150784D01*
X177767Y2680531D02*
X126983D01*
X152375D01*
Y2553572D01*
X126983Y2528180D01*
X101592D01*
X76200Y2553572D01*
X228551Y2528180D02*
X279334D01*
X253943D01*
Y2680531D01*
X228551Y2655139D01*
X457077Y2680531D02*
X355510D01*
Y2604355D01*
X406293Y2629747D01*
X431685D01*
X457077Y2604355D01*
Y2553572D01*
X431685Y2528180D01*
X380901D01*
X355510Y2553572D01*
X4873825Y861129D02*
Y810345D01*
Y835737D01*
X5000783D01*
X5026175Y810345D01*
Y784953D01*
X5000783Y759562D01*
X5026175Y911912D02*
Y962696D01*
Y937304D01*
X4873825D01*
X4899217Y911912D01*
X5026175Y1115047D02*
X4873825D01*
X4950000Y1038871D01*
Y1140438D01*
X4761129Y1726175D02*
X4710345D01*
X4735737D01*
Y1599217D01*
X4710345Y1573825D01*
X4684954D01*
X4659562Y1599217D01*
X4811912Y1573825D02*
X4862696D01*
X4837304D01*
Y1726175D01*
X4811912Y1700783D01*
X4938871D02*
X4964263Y1726175D01*
X5015047D01*
X5040438Y1700783D01*
Y1675392D01*
X5015047Y1650000D01*
X4989655D01*
X5015047D01*
X5040438Y1624608D01*
Y1599217D01*
X5015047Y1573825D01*
X4964263D01*
X4938871Y1599217D01*
X4100784Y4723825D02*
X3999217D01*
X4100784Y4825392D01*
Y4850784D01*
X4075392Y4876175D01*
X4024608D01*
X3999217Y4850784D01*
X3836521Y4626175D02*
X3785737D01*
X3811129D01*
Y4499217D01*
X3785737Y4473825D01*
X3760346D01*
X3734954Y4499217D01*
X3887304Y4473825D02*
X3938088D01*
X3912696D01*
Y4626175D01*
X3887304Y4600784D01*
X4014263Y4473825D02*
X4065047D01*
X4039655D01*
Y4626175D01*
X4014263Y4600784D01*
X4561129Y2126175D02*
X4510345D01*
X4535737D01*
Y1999216D01*
X4510345Y1973825D01*
X4484954D01*
X4459562Y1999216D01*
X4611913Y1973825D02*
X4662696D01*
X4637304D01*
Y2126175D01*
X4611913Y2100783D01*
X4738871D02*
X4764263Y2126175D01*
X4815047D01*
X4840439Y2100783D01*
Y1999216D01*
X4815047Y1973825D01*
X4764263D01*
X4738871Y1999216D01*
Y2100783D01*
X3524608Y376175D02*
X3473825D01*
X3499217D01*
Y249216D01*
X3473825Y223825D01*
X3448433D01*
X3423041Y249216D01*
X3575392D02*
X3600784Y223825D01*
X3651567D01*
X3676959Y249216D01*
Y350783D01*
X3651567Y376175D01*
X3600784D01*
X3575392Y350783D01*
Y325392D01*
X3600784Y300000D01*
X3676959D01*
X4674608Y4026175D02*
X4623825D01*
X4649217D01*
Y3899216D01*
X4623825Y3873825D01*
X4598433D01*
X4573041Y3899216D01*
X4725392Y4000783D02*
X4750784Y4026175D01*
X4801567D01*
X4826959Y4000783D01*
Y3975392D01*
X4801567Y3950000D01*
X4826959Y3924608D01*
Y3899216D01*
X4801567Y3873825D01*
X4750784D01*
X4725392Y3899216D01*
Y3924608D01*
X4750784Y3950000D01*
X4725392Y3975392D01*
Y4000783D01*
X4750784Y3950000D02*
X4801567D01*
X5267927Y3987751D02*
X5217143D01*
X5242535D01*
Y3860792D01*
X5217143Y3835400D01*
X5191752D01*
X5166360Y3860792D01*
X5318711Y3987751D02*
X5420278D01*
Y3962359D01*
X5318711Y3860792D01*
Y3835400D01*
X177767Y3710111D02*
X126983D01*
X152375D01*
Y3583152D01*
X126983Y3557760D01*
X101592D01*
X76200Y3583152D01*
X330118Y3710111D02*
X279334Y3684719D01*
X228551Y3633936D01*
Y3583152D01*
X253943Y3557760D01*
X304726D01*
X330118Y3583152D01*
Y3608544D01*
X304726Y3633936D01*
X228551D01*
X-25433Y1247140D02*
X-127000D01*
X-25433Y1348707D01*
Y1374099D01*
X-50825Y1399491D01*
X-101608D01*
X-127000Y1374099D01*
X177767Y4737151D02*
X126983D01*
X152375D01*
Y4610192D01*
X126983Y4584800D01*
X101592D01*
X76200Y4610192D01*
X304726Y4584800D02*
Y4737151D01*
X228551Y4660976D01*
X330118D01*
X6474608Y7176175D02*
X6423825D01*
X6449216D01*
Y7049217D01*
X6423825Y7023825D01*
X6398433D01*
X6373041Y7049217D01*
X6525392Y7150784D02*
X6550784Y7176175D01*
X6601567D01*
X6626959Y7150784D01*
Y7125392D01*
X6601567Y7100000D01*
X6576175D01*
X6601567D01*
X6626959Y7074608D01*
Y7049217D01*
X6601567Y7023825D01*
X6550784D01*
X6525392Y7049217D01*
X4924608Y4726175D02*
X4873825D01*
X4899217D01*
Y4599217D01*
X4873825Y4573825D01*
X4848433D01*
X4823041Y4599217D01*
X5076959Y4573825D02*
X4975392D01*
X5076959Y4675392D01*
Y4700784D01*
X5051567Y4726175D01*
X5000784D01*
X4975392Y4700784D01*
X1550000Y5126175D02*
X1499216D01*
X1524608D01*
Y4999217D01*
X1499216Y4973825D01*
X1473825D01*
X1448433Y4999217D01*
X1600784Y4973825D02*
X1651567D01*
X1626176D01*
Y5126175D01*
X1600784Y5100784D01*
X4673041Y2876175D02*
Y2723825D01*
X4749217D01*
X4774608Y2749216D01*
Y2850783D01*
X4749217Y2876175D01*
X4673041D01*
X4901567Y2723825D02*
Y2876175D01*
X4825392Y2800000D01*
X4926959D01*
X4773041Y4326175D02*
Y4173825D01*
X4849217D01*
X4874608Y4199216D01*
Y4300783D01*
X4849217Y4326175D01*
X4773041D01*
X4925392Y4300783D02*
X4950784Y4326175D01*
X5001567D01*
X5026959Y4300783D01*
Y4275392D01*
X5001567Y4250000D01*
X4976175D01*
X5001567D01*
X5026959Y4224608D01*
Y4199216D01*
X5001567Y4173825D01*
X4950784D01*
X4925392Y4199216D01*
X748433Y1600783D02*
X723041Y1626175D01*
X672258D01*
X646866Y1600783D01*
Y1499216D01*
X672258Y1473825D01*
X723041D01*
X748433Y1499216D01*
X799217Y1600783D02*
X824608Y1626175D01*
X875392D01*
X900784Y1600783D01*
Y1575392D01*
X875392Y1550000D01*
X850000D01*
X875392D01*
X900784Y1524608D01*
Y1499216D01*
X875392Y1473825D01*
X824608D01*
X799217Y1499216D01*
X951567Y1600783D02*
X976959Y1626175D01*
X1027743D01*
X1053135Y1600783D01*
Y1575392D01*
X1027743Y1550000D01*
X1002351D01*
X1027743D01*
X1053135Y1524608D01*
Y1499216D01*
X1027743Y1473825D01*
X976959D01*
X951567Y1499216D01*
X498433Y3700784D02*
X473041Y3726175D01*
X422258D01*
X396866Y3700784D01*
Y3599217D01*
X422258Y3573825D01*
X473041D01*
X498433Y3599217D01*
X650784Y3573825D02*
X549217D01*
X650784Y3675392D01*
Y3700784D01*
X625392Y3726175D01*
X574608D01*
X549217Y3700784D01*
X803135Y3726175D02*
X752351Y3700784D01*
X701567Y3650000D01*
Y3599217D01*
X726959Y3573825D01*
X777743D01*
X803135Y3599217D01*
Y3624608D01*
X777743Y3650000D01*
X701567D01*
X1349217Y3298433D02*
X1323825Y3273041D01*
Y3222258D01*
X1349217Y3196866D01*
X1450783D01*
X1476175Y3222258D01*
Y3273041D01*
X1450783Y3298433D01*
X1476175Y3450784D02*
Y3349217D01*
X1374608Y3450784D01*
X1349217D01*
X1323825Y3425392D01*
Y3374608D01*
X1349217Y3349217D01*
Y3501567D02*
X1323825Y3526959D01*
Y3577743D01*
X1349217Y3603135D01*
X1374608D01*
X1400000Y3577743D01*
Y3552351D01*
Y3577743D01*
X1425392Y3603135D01*
X1450783D01*
X1476175Y3577743D01*
Y3526959D01*
X1450783Y3501567D01*
X4111129Y1000783D02*
X4085737Y1026175D01*
X4034954D01*
X4009562Y1000783D01*
Y899216D01*
X4034954Y873825D01*
X4085737D01*
X4111129Y899216D01*
X4161912Y873825D02*
X4212696D01*
X4187304D01*
Y1026175D01*
X4161912Y1000783D01*
X4390439Y1026175D02*
X4339655Y1000783D01*
X4288871Y950000D01*
Y899216D01*
X4314263Y873825D01*
X4365047D01*
X4390439Y899216D01*
Y924608D01*
X4365047Y950000D01*
X4288871D01*
X1117567Y2603459D02*
X1092175Y2628851D01*
X1041392D01*
X1016000Y2603459D01*
Y2501892D01*
X1041392Y2476500D01*
X1092175D01*
X1117567Y2501892D01*
X1168351Y2476500D02*
X1219134D01*
X1193743D01*
Y2628851D01*
X1168351Y2603459D01*
X1396877Y2628851D02*
X1295310D01*
Y2552675D01*
X1346093Y2578067D01*
X1371485D01*
X1396877Y2552675D01*
Y2501892D01*
X1371485Y2476500D01*
X1320701D01*
X1295310Y2501892D01*
X1999216Y4424608D02*
X1973825Y4399216D01*
Y4348433D01*
X1999216Y4323041D01*
X2100783D01*
X2126175Y4348433D01*
Y4399216D01*
X2100783Y4424608D01*
Y4475392D02*
X2126175Y4500784D01*
Y4551567D01*
X2100783Y4576959D01*
X1999216D01*
X1973825Y4551567D01*
Y4500784D01*
X1999216Y4475392D01*
X2024608D01*
X2050000Y4500784D01*
Y4576959D01*
X1174608Y3850784D02*
X1149216Y3876175D01*
X1098433D01*
X1073041Y3850784D01*
Y3749217D01*
X1098433Y3723825D01*
X1149216D01*
X1174608Y3749217D01*
X1225392Y3876175D02*
X1326959D01*
Y3850784D01*
X1225392Y3749217D01*
Y3723825D01*
X4624608Y3700784D02*
X4599217Y3726175D01*
X4548433D01*
X4523041Y3700784D01*
Y3599217D01*
X4548433Y3573825D01*
X4599217D01*
X4624608Y3599217D01*
X4776959Y3726175D02*
X4726175Y3700784D01*
X4675392Y3650000D01*
Y3599217D01*
X4700784Y3573825D01*
X4751567D01*
X4776959Y3599217D01*
Y3624608D01*
X4751567Y3650000D01*
X4675392D01*
X2524608Y5350784D02*
X2499216Y5376175D01*
X2448433D01*
X2423041Y5350784D01*
Y5249217D01*
X2448433Y5223825D01*
X2499216D01*
X2524608Y5249217D01*
X2575392Y5350784D02*
X2600784Y5376175D01*
X2651567D01*
X2676959Y5350784D01*
Y5325392D01*
X2651567Y5300000D01*
X2626175D01*
X2651567D01*
X2676959Y5274608D01*
Y5249217D01*
X2651567Y5223825D01*
X2600784D01*
X2575392Y5249217D01*
D61*
X2020000Y4240000D02*
G03*
X2020000Y4250000I0J5000D01*
G01*
D02*
G03*
X2020000Y4240000I0J-5000D01*
G01*
D02*
G03*
X2020000Y4250000I0J5000D01*
G01*
X4010000Y652502D02*
G03*
X4010000Y652502I-10000J0D01*
G01*
X1265001Y1262304D02*
Y1287704D01*
X1485001Y1262304D02*
Y1287704D01*
X1265001Y1262304D02*
X1485001D01*
X1265001Y1287704D02*
X1485001D01*
X3025003Y4325000D02*
Y4874997D01*
X2475001Y4325000D02*
X3025003D01*
X2475001D02*
Y4874997D01*
X3025003D01*
X4804999Y5395001D02*
X5096200D01*
X4804999Y4904999D02*
Y5395001D01*
Y4904999D02*
X5096200D01*
X3652500Y4489999D02*
Y4509999D01*
X3447501Y4489999D02*
X3652500D01*
X3447501D02*
Y4509999D01*
X3652500D01*
X3660003Y4545000D02*
Y4654997D01*
D62*
X1532500Y1370002D02*
G03*
X1532500Y1370002I-12500J0D01*
G01*
X1412501Y5205002D02*
G03*
X1412501Y5205002I-12500J0D01*
G01*
X2057500Y5227500D02*
G03*
X2057500Y5227500I-12500J0D01*
G01*
X3132500Y5022548D02*
G03*
X3132500Y5022548I-12500J0D01*
G01*
X3473752Y4125004D02*
G03*
X3473752Y4125004I-12500J0D01*
G01*
X3792500Y1095000D02*
G03*
X3792500Y1095000I-12500J0D01*
G01*
X3792498Y2609998D02*
G03*
X3792498Y2609998I-12500J0D01*
G01*
D63*
X2965000Y4790000D02*
G03*
X2965000Y4790000I-25000J0D01*
G01*
D64*
X4586199Y5340497D02*
G03*
X4576199Y5340497I-5000J0D01*
G01*
D02*
G03*
X4586199Y5340497I5000J0D01*
G01*
X832002Y5272999D02*
Y5432999D01*
X122001D02*
X832002D01*
X122001Y4913000D02*
Y5432999D01*
Y4913000D02*
X832002D01*
Y4973000D01*
X865022Y3884600D02*
Y3944600D01*
X155021Y3884600D02*
X865022D01*
X155021D02*
Y4404604D01*
X865022D01*
Y4244604D02*
Y4404604D01*
Y799404D02*
Y859404D01*
X155021Y799404D02*
X865022D01*
X155021D02*
Y1319403D01*
X865022D01*
Y1159403D02*
Y1319403D01*
Y1827799D02*
Y1887799D01*
X155021Y1827799D02*
X865022D01*
X155021D02*
Y2347798D01*
X865022D01*
Y2187799D02*
Y2347798D01*
Y3216199D02*
Y3376198D01*
X155021D02*
X865022D01*
X155021Y2856200D02*
Y3376198D01*
Y2856200D02*
X865022D01*
Y2916199D01*
D65*
X3436249Y4145001D02*
X3466247D01*
X3716249D02*
X3746246D01*
Y4127500D02*
Y4145001D01*
X3436249Y4127500D02*
Y4145001D01*
X3774999Y1075004D02*
X3805001D01*
X3494999D02*
X3525002D01*
X3494999D02*
Y1092505D01*
X3805001Y1075004D02*
Y1092505D01*
X3774999Y2589997D02*
X3804996D01*
X3494999D02*
X3524997D01*
X3494999D02*
Y2607498D01*
X3804996Y2589997D02*
Y2607498D01*
D66*
X2369002Y2505461D02*
Y2525781D01*
X2719522D01*
X2780482D01*
X3131002D01*
Y1474221D02*
Y1494541D01*
X2369002Y1474221D02*
X3131002D01*
X2369002D02*
Y1494541D01*
X3131002Y2505461D02*
Y2525781D01*
X2369002Y3755461D02*
Y3775781D01*
X2719522D01*
X2780482D01*
X3131002D01*
Y2724221D02*
Y2744541D01*
X2369002Y2724221D02*
X3131002D01*
X2369002D02*
Y2744541D01*
X3131002Y3755461D02*
Y3775781D01*
X2369002Y1205459D02*
Y1225779D01*
X2719522D01*
X2780482D01*
X3131002D01*
Y174219D02*
Y194539D01*
X2369002Y174219D02*
X3131002D01*
X2369002D02*
Y194539D01*
X3131002Y1205459D02*
Y1225779D01*
D67*
X4580006Y162499D02*
Y192502D01*
X3820003Y162499D02*
Y192502D01*
X4580006Y412501D02*
Y452501D01*
X3820003Y412501D02*
Y452501D01*
Y157500D02*
X4580006D01*
%TF.MD5,da3b451731321836e5abbbc35d5e5818*%
M02*
